<svg xmlns="http://www.w3.org/2000/svg" viewBox="0 0 26.15 10.75"><defs><style>.a748afcf-3874-43ac-aaed-c9a993f56dc1{fill:#22254f;}</style></defs><title>icon-json</title><g id="a1e5ca2d-7049-4f07-91ff-b0225a759aae" data-name="圖層 2"><g id="e9ee36d6-c5d2-46df-b69c-687e628af3d7" data-name="圖層 1"><path class="a748afcf-3874-43ac-aaed-c9a993f56dc1" d="M1.94,10.4H1.31A1.31,1.31,0,0,1,0,9.09V5A.6.6,0,0,1,1.2,5V9.2h.53A.49.49,0,0,0,2.15,9l4-6.68A.71.71,0,0,0,5.54,1.2H5.18a.6.6,0,0,1,0-1.2H7.86a.6.6,0,0,1,.52.3.61.61,0,0,1,0,.61L3.07,9.76A1.32,1.32,0,0,1,1.94,10.4Z"/><path class="a748afcf-3874-43ac-aaed-c9a993f56dc1" d="M8.94,10.31H4.59A.59.59,0,0,1,4,9.7a.6.6,0,0,1,.6-.6h4a.71.71,0,0,0,.62-.37L10.47,6.5a.71.71,0,0,0-.63-1.06H8.58a.6.6,0,0,1-.53-.33.58.58,0,0,1,0-.62L10.7.8A1.33,1.33,0,0,1,11.78.24h2.74a.6.6,0,0,1,.6.6.6.6,0,0,1-.6.6H12.09a.75.75,0,0,0-.59.3l-1,1.37a.71.71,0,0,0,.58,1.13h1a.58.58,0,0,1,.51.29.61.61,0,0,1,0,.6l-2.52,4.5A1.33,1.33,0,0,1,8.94,10.31Z"/><path class="a748afcf-3874-43ac-aaed-c9a993f56dc1" d="M12,10.51a.61.61,0,0,1-.51-.28.59.59,0,0,1,0-.59L16,.6a.62.62,0,0,1,.55-.33l4.13,0a.59.59,0,0,1,.5.28.59.59,0,0,1,0,.56L17.38,9.73a1.31,1.31,0,0,1-1.19.77ZM16.7,1.87l-3.21,6.4a.71.71,0,0,0,.63,1H15.8a.71.71,0,0,0,.65-.42L19.3,2.5a.71.71,0,0,0-.64-1l-1.32,0A.71.71,0,0,0,16.7,1.87Z"/><path class="a748afcf-3874-43ac-aaed-c9a993f56dc1" d="M25.39,10.75a.6.6,0,0,1-.54-.34L22.34,5.09a.24.24,0,0,0-.42,0l-2.54,5.09a.6.6,0,0,1-.81.27.61.61,0,0,1-.27-.8L21.62,3a.6.6,0,0,1,.54-.33A.6.6,0,0,1,22.7,3l1.65,3.51a.26.26,0,0,0,.5-.1L25,.83a.58.58,0,0,1,.61-.59.61.61,0,0,1,.59.61L26,10.16a.61.61,0,0,1-.48.58Z"/></g></g></svg>