<svg xmlns="http://www.w3.org/2000/svg" viewBox="0 0 16.64 18.69"><defs><style>.f4566ef4-6829-41e9-9f8d-2c1ab75e67f9{fill:#22254f;}.bc105280-3142-48ac-bbce-21ce5c047d19{fill:#7a7c95;}.b30073b5-3d04-461d-b80e-2e726ddf2556{fill:#ccd6d5;}</style></defs><title>icon-es6</title><g id="ed17b32d-0873-4f14-8c97-b7de57e7b0bb" data-name="圖層 2"><g id="be1b717b-0d7a-4eae-bf74-dbbe7a499cbb" data-name="圖層 1"><path class="f4566ef4-6829-41e9-9f8d-2c1ab75e67f9" d="M15.1,16.43l0,.17-.35.4L8.54,18.69H8.13L1.82,16.92l-.25-.3L0,.09,0,0H16.6l0,.27L15.1,16.43ZM8.33,15.18v1.89l.27.21,5-1.4.21-.25L15,1.67l-.26-.32H8.6l-.27.27v1.8H3.65L3.14,4l.91,9.87.23.28,4.05,1.06Z"/><polygon class="bc105280-3142-48ac-bbce-21ce5c047d19" points="8.33 3.42 8.33 1.61 8.6 1.35 14.78 1.35 15.04 1.67 13.77 15.63 13.56 15.88 8.6 17.28 8.33 17.07 8.34 15.14 12.18 14.08 12.55 13.66 13.08 7.84 12.9 7.62 8.33 7.64 8.34 5.62 12.99 5.63 13.27 5.46 13.44 3.67 13.24 3.45 8.34 3.46 8.33 3.42 8.33 3.42"/><polygon class="b30073b5-3d04-461d-b80e-2e726ddf2556" points="8.33 3.42 8.34 3.46 8.33 5.67 5.68 5.66 5.45 5.9 5.59 7.44 5.79 7.63 8.33 7.61 8.34 9.71 6.04 9.73 5.81 9.86 5.95 11.71 6.72 12.59 8.33 12.94 8.33 15.18 4.28 14.12 4.05 13.84 3.14 3.97 3.65 3.42 8.33 3.42 8.33 3.42"/><polygon class="f4566ef4-6829-41e9-9f8d-2c1ab75e67f9" points="8.33 7.61 5.79 7.63 5.59 7.44 5.45 5.9 5.68 5.66 8.33 5.67 8.33 7.61 8.33 7.61"/><polygon class="f4566ef4-6829-41e9-9f8d-2c1ab75e67f9" points="8.33 12.94 6.72 12.59 5.95 11.71 5.81 9.86 6.04 9.73 8.34 9.71 8.33 9.73 8.33 12.94 8.33 12.94"/><polygon class="bc105280-3142-48ac-bbce-21ce5c047d19" points="8.33 12.94 8.33 9.73 10.65 9.72 10.84 9.92 10.62 12.29 10.5 12.45 8.34 12.99 8.33 12.94 8.33 12.94"/></g></g></svg>