<svg xmlns="http://www.w3.org/2000/svg" viewBox="0 0 21 21"><title>icon-behance</title><g id="a5416b0c-8902-45d8-a386-7f2559caf3eb" data-name="圖層 2"><g id="abdb70fb-d23d-441f-a908-b97538870764" data-name="圖層 1"><path d="M8.3,10.84H5.78v2.31h2.4c.36,0,1-.12,1-1.12C9.21,10.83,8.3,10.84,8.3,10.84Z"/><path d="M10.5,0A10.5,10.5,0,1,0,21,10.5,10.5,10.5,0,0,0,10.5,0Zm2.36,6.54h3.57V7.61H12.86Zm-1.81,5.6c0,2.64-2.75,2.55-2.75,2.55H3.79V6H8.3a2.21,2.21,0,0,1,2.45,2.3A1.5,1.5,0,0,1,9.43,10C11.17,10,11.05,12.14,11.05,12.14ZM17.74,12H13.25a1.41,1.41,0,0,0,1.52,1.51c1.44,0,1.39-.93,1.39-.93h1.53c0,2.47-3,2.3-3,2.3a3.07,3.07,0,0,1-3.33-3.31,3.26,3.26,0,0,1,3.33-3.33C18.23,8.23,17.74,12,17.74,12Z"/><path d="M14.75,9.5a1.55,1.55,0,0,0-1.52,1.34h2.85A1.3,1.3,0,0,0,14.75,9.5Z"/><path d="M8.91,8.47c0-.9-.61-.9-.61-.9H5.78V9.5H8.14C8.55,9.5,8.91,9.37,8.91,8.47Z"/></g></g></svg>