<svg xmlns="http://www.w3.org/2000/svg" viewBox="0 0 17.67 15.72"><defs><style>.f443aaaf-d3b7-4108-b87e-8871aabecc81{fill:#22254f;}</style></defs><title>icon-react</title><g id="e5692378-19c1-4580-890e-8a8a9ae6293f" data-name="圖層 2"><g id="bff543d6-00dd-4ca5-89af-677c8ff19382" data-name="圖層 1"><path class="f443aaaf-d3b7-4108-b87e-8871aabecc81" d="M5.23,0a2.87,2.87,0,0,1,.82.13A5.45,5.45,0,0,1,7.34.76a8.9,8.9,0,0,1,1.15.87l.29.26c.06.05.07.05.13,0s.35-.32.53-.48A7.74,7.74,0,0,1,11,.38,3.84,3.84,0,0,1,12.09,0a2.22,2.22,0,0,1,.63,0A1.5,1.5,0,0,1,13.81.8a3,3,0,0,1,.37,1.12,4.48,4.48,0,0,1,.06.63A9.31,9.31,0,0,1,14,4.72l0,.12c0,.07,0,.08,0,.1l.38.12c.32.1.62.22.93.35a6.66,6.66,0,0,1,.91.49,4,4,0,0,1,.82.66,2.23,2.23,0,0,1,.51.81,1.45,1.45,0,0,1-.06,1.12,2.33,2.33,0,0,1-.41.61,4.11,4.11,0,0,1-.85.71,8.87,8.87,0,0,1-2,.91l-.2.06c-.11,0-.11,0-.08.15s.07.36.11.54a9.1,9.1,0,0,1,.13,1.28,5.81,5.81,0,0,1-.1,1.25,3.19,3.19,0,0,1-.3.85,1.72,1.72,0,0,1-.57.63,1.53,1.53,0,0,1-.66.23,2.51,2.51,0,0,1-1.05-.13A4.8,4.8,0,0,1,10.36,15a8.29,8.29,0,0,1-1.21-.93l-.21-.2c-.07-.06-.07-.06-.14,0a9.39,9.39,0,0,1-.91.76,6.46,6.46,0,0,1-1.49.85,3.43,3.43,0,0,1-.89.23,2,2,0,0,1-.9-.1,1.55,1.55,0,0,1-.83-.78,3.08,3.08,0,0,1-.32-1.07,5.68,5.68,0,0,1,0-.92,8.32,8.32,0,0,1,.19-1.49c0-.13,0-.26.08-.39s0-.1-.07-.13a10.48,10.48,0,0,1-1.07-.38A6.54,6.54,0,0,1,1,9.54a3.27,3.27,0,0,1-.76-.85A1.64,1.64,0,0,1,0,7.8a1.4,1.4,0,0,1,.13-.57,2.32,2.32,0,0,1,.45-.67A4.44,4.44,0,0,1,1.73,5.7,8.92,8.92,0,0,1,3.41,5l.23-.07c.07,0,.07,0,.06-.1l-.12-.54A8.47,8.47,0,0,1,3.42,3a5.75,5.75,0,0,1,.07-1.17,2.78,2.78,0,0,1,.36-1A1.47,1.47,0,0,1,5,0h.19ZM8.8,10.69c.39,0,.77,0,1.16,0l.38,0a.21.21,0,0,0,.18-.11A24.5,24.5,0,0,0,12,8a.21.21,0,0,0,0-.19c-.32-.63-.66-1.25-1-1.85-.16-.26-.32-.51-.49-.76a.17.17,0,0,0-.13-.08h-.27C9.7,5,9.31,5,8.92,5s-.66,0-1,0l-.6,0a.19.19,0,0,0-.16.09A22,22,0,0,0,5.66,7.78a.15.15,0,0,0,0,.16l.45.88c.33.6.69,1.18,1.07,1.75a.18.18,0,0,0,.15.09l.83,0Zm-8-2.86a.85.85,0,0,0,.08.35,1.81,1.81,0,0,0,.32.46A3.6,3.6,0,0,0,2,9.3a6.74,6.74,0,0,0,1.33.63c.15.06.31.1.46.15s.12,0,.16-.07A17.14,17.14,0,0,1,4.74,8a.21.21,0,0,0,0-.19,18.64,18.64,0,0,1-.78-2,.24.24,0,0,0,0-.08s0-.05-.08,0l-.12,0a8.67,8.67,0,0,0-1.2.45,5.53,5.53,0,0,0-1.18.73,2.06,2.06,0,0,0-.44.49A.88.88,0,0,0,.76,7.83ZM4.18,13v.22a3.32,3.32,0,0,0,.11.83,1.7,1.7,0,0,0,.25.55.74.74,0,0,0,.5.32,1.46,1.46,0,0,0,.51,0,3.77,3.77,0,0,0,1.17-.44,8.29,8.29,0,0,0,1.54-1.16c.07-.06.07-.07,0-.14L8,12.85c-.38-.44-.74-.89-1.08-1.37a.21.21,0,0,0-.19-.11h0l-.85-.09c-.43-.06-.86-.13-1.28-.22-.08,0-.09,0-.11.07l-.06.26A7.31,7.31,0,0,0,4.18,13Zm9.33-.1a6.33,6.33,0,0,0-.09-1.09,6.1,6.1,0,0,0-.14-.72c0-.08,0-.09-.11-.07h0a15.78,15.78,0,0,1-2.17.33.21.21,0,0,0-.16.1c-.1.15-.22.31-.33.46-.32.44-.66.85-1,1.25-.07.07-.08.07,0,.15a9.49,9.49,0,0,0,1,.86,5.2,5.2,0,0,0,1.08.6,2.24,2.24,0,0,0,.92.17.7.7,0,0,0,.43-.15,1,1,0,0,0,.27-.34,1.94,1.94,0,0,0,.2-.57A4.59,4.59,0,0,0,13.51,12.91ZM4.18,2.71a5.06,5.06,0,0,0,0,.54,9.68,9.68,0,0,0,.22,1.31c0,.15,0,.15.18.12.38-.08.76-.14,1.14-.2s.64-.09,1-.12a.21.21,0,0,0,.16-.1c.28-.39.58-.78.89-1.14.16-.19.32-.38.49-.56s.06-.08,0-.13A4.81,4.81,0,0,0,7.76,2a6.76,6.76,0,0,0-1.5-1,2.58,2.58,0,0,0-1-.26.85.85,0,0,0-.58.13.86.86,0,0,0-.26.31,2,2,0,0,0-.22.66A4.5,4.5,0,0,0,4.18,2.71Zm9.3,0a4.56,4.56,0,0,0-.08-.9,2,2,0,0,0-.26-.7.8.8,0,0,0-.76-.39,2.65,2.65,0,0,0-.55.1,4.63,4.63,0,0,0-1.05.51,7.46,7.46,0,0,0-1,.8l-.3.28s0,0,0,.1l0,0c.17.19.34.38.5.58.29.35.58.72.84,1.1a.24.24,0,0,0,.21.12h0l.63.07c.5.07,1,.16,1.48.26.09,0,.1,0,.12-.07A8.48,8.48,0,0,0,13.48,2.75Zm3.42,5.1a.49.49,0,0,0,0-.12,1,1,0,0,0-.22-.46,2.39,2.39,0,0,0-.56-.54,5.73,5.73,0,0,0-1-.56,9.83,9.83,0,0,0-1.31-.5c-.08,0-.08,0-.11.06l-.12.35a17.28,17.28,0,0,1-.67,1.68.19.19,0,0,0,0,.18,16.69,16.69,0,0,1,.81,2c0,.12.05.12.16.09L14,10A8.32,8.32,0,0,0,15,9.61a5.44,5.44,0,0,0,1.18-.71,2.46,2.46,0,0,0,.52-.55A1,1,0,0,0,16.9,7.85Zm-5.46,2.69a.06.06,0,0,0,.06,0c.45,0,.9-.13,1.34-.22l.15,0s0,0,0-.08v0q-.23-.69-.51-1.35l0-.05a0,0,0,0,0,0,0l0,.06-.2.37c-.24.42-.48.84-.74,1.25C11.46,10.49,11.44,10.51,11.44,10.54Zm-5.24,0s0,0,0-.05l0,0L6,10.11c-.25-.41-.48-.83-.71-1.25,0,0,0-.07,0-.06s0,0,0,.06c-.17.43-.34.87-.48,1.31,0,0,0,.05,0,.07s0,.06,0,.08h.08l.73.14ZM8,11.45H7.91s-.06,0-.07,0,0,0,0,.07l.44.54c.16.19.32.39.49.57s.07.06.13,0l.26-.3c.22-.26.44-.53.64-.81,0,0,0,0,0-.06s0,0-.06,0h0c-.15,0-.3,0-.45,0C8.87,11.46,8.45,11.47,8,11.45ZM9.62,4.27a.56.56,0,0,0,.13,0s.07,0,.09,0,0-.06,0-.08c-.21-.27-.42-.53-.64-.79l-.27-.3s-.05,0-.1,0L8.6,3.3c-.26.29-.5.6-.74.91,0,0,0,0,0,0s0,0,0,0,0,0,.05,0,.31,0,.46,0C8.81,4.26,9.22,4.25,9.62,4.27Zm1.9.92s0,0-.07,0,0,0,0,0l0,0c.16.26.32.52.47.78l.43.77s0,.07,0,.07,0,0,.05-.08a4.71,4.71,0,0,0,.21-.52c.1-.25.2-.52.28-.78,0-.09,0-.09-.06-.11h0l-.83-.16Zm-5.3,0s0,0-.08,0c-.47.06-.93.14-1.39.24-.08,0-.09,0-.06.11q.21.67.48,1.32s0,0,0,0,0,0,0,0l0,0c.08-.14.16-.28.23-.43.22-.39.45-.78.7-1.17C6.21,5.24,6.23,5.22,6.22,5.19Z"/><path class="f443aaaf-d3b7-4108-b87e-8871aabecc81" d="M10.41,7.84a1.58,1.58,0,1,1-3.16,0,1.58,1.58,0,1,1,3.16,0Z"/></g></g></svg>