<svg xmlns="http://www.w3.org/2000/svg" viewBox="0 0 13.98 15.48"><defs><style>.f33270b9-e657-4fe8-bdfc-984357dac071{fill:#22254f;}.e0ee67b9-9e91-47f4-9547-8ad3932bceb6{fill:#7a7c95;}</style></defs><title>icon-webpack</title><g id="bd1627d0-7857-47ac-9e95-73946e7b7e04" data-name="圖層 2"><g id="fbbe4c29-bd19-4ebd-9b52-18a1170d4901" data-name="圖層 1"><path class="f33270b9-e657-4fe8-bdfc-984357dac071" d="M7,3.14l0,0L10.4,5l.41.23c.06,0,0,0,0,.08L8,7l-.91.52a.11.11,0,0,1-.13,0L3.18,5.32s-.05,0-.05-.05,0,0,.05,0L6.94,3.17Z"/><path class="f33270b9-e657-4fe8-bdfc-984357dac071" d="M11.14,7.88v2a.13.13,0,0,1-.08.13L7.63,11.91l-.31.16s-.07,0-.06,0v-4A.11.11,0,0,1,7.32,8l3-1.72.76-.43c.09-.06.09,0,.09.05Z"/><path class="f33270b9-e657-4fe8-bdfc-984357dac071" d="M2.85,7.87v-2c0-.09,0-.09.08,0L5.52,7.3,6.65,8a.12.12,0,0,1,.07.12V12c0,.09,0,.1-.08.05L4,10.59,2.91,10a.1.1,0,0,1-.07-.11C2.85,9.22,2.85,8.55,2.85,7.87Z"/><path class="e0ee67b9-9e91-47f4-9547-8ad3932bceb6" d="M0,4.12l.39.22,1.7,1c.2.12.21.11.21.35,0,1.49,0,3,0,4.46a.14.14,0,0,1-.09.14l-1.68,1L0,11.55Z"/><path class="e0ee67b9-9e91-47f4-9547-8ad3932bceb6" d="M14,11.55l-.37-.21L12,10.4l-.27-.15a.08.08,0,0,1,0-.07V5.53a.13.13,0,0,1,.08-.13l1.79-1L14,4.12Z"/><path class="e0ee67b9-9e91-47f4-9547-8ad3932bceb6" d="M6.72,1.33V2.58a.12.12,0,0,1-.08.12L4.57,3.84c-.52.29-1,.58-1.57.86l-.38.21a.11.11,0,0,1-.14,0l-1.7-1L.32,3.66c-.06,0,0-.05,0-.06L1.37,3,3,2.06l1.32-.74,1.76-1L6.64,0c.08,0,.08,0,.08,0Z"/><path class="e0ee67b9-9e91-47f4-9547-8ad3932bceb6" d="M7.27,1.33V.07s0,0,0-.07,0,0,.06,0L8.89.9l1.65.94,1.56.88,1.55.88c.06,0,0,0,0,.07l-.9.52-1.23.71a.14.14,0,0,1-.17,0L9.12,3.68,7.52,2.8l0,0c-.18,0-.21-.17-.2-.33C7.28,2.07,7.27,1.7,7.27,1.33Z"/><path class="e0ee67b9-9e91-47f4-9547-8ad3932bceb6" d="M.43,11.94l.52-.3,1.59-.92.21-.12a.09.09,0,0,1,.1,0l2.7,1.49,1.1.6a.14.14,0,0,1,.07.11c0,.87,0,1.75,0,2.62,0,.08,0,.08-.07,0l-1.43-.81-1.33-.76-1.77-1L.54,12Z"/><path class="e0ee67b9-9e91-47f4-9547-8ad3932bceb6" d="M7.27,14.1V12.8a.1.1,0,0,1,.07-.11l2-1.1,1.73-1a.2.2,0,0,1,.21,0l1.58.92.63.36c.05,0,0,0,0,.07L11,13.39,9.11,14.46l-1.77,1c-.06,0-.07,0-.07,0Z"/></g></g></svg>