<svg xmlns="http://www.w3.org/2000/svg" viewBox="0 0 14.49 14.12"><defs><style>.b30589df-b188-4fdf-995a-6ca324d541f6{fill:#7a7c95;}.eb1533c1-6c56-4d70-ba27-fe243983d16a{fill:#22254f;}</style></defs><title>icon-ps</title><g id="b1d31248-ab97-4fb0-a58f-a588a2700da1" data-name="圖層 2"><g id="e8da0e07-3987-4829-b735-160ad26817d3" data-name="圖層 1"><path class="b30589df-b188-4fdf-995a-6ca324d541f6" d="M7.25,0h4.68a2.55,2.55,0,0,1,2.55,2.54q0,4.51,0,9a2.55,2.55,0,0,1-2.56,2.55H2.58A2.56,2.56,0,0,1,0,11.65c0-.31,0-.63,0-.94v-8A2.57,2.57,0,0,1,1.66.17,2.47,2.47,0,0,1,2.59,0Zm0,13.51h4.52a2.12,2.12,0,0,0,2.13-2.12q0-4.34,0-8.67A2.12,2.12,0,0,0,11.78.61Q7.25.6,2.72.61a2,2,0,0,0-1.44.59A2.16,2.16,0,0,0,.61,2.84V7.89c0,1.15,0,2.29,0,3.44a2.13,2.13,0,0,0,2.23,2.18Z"/><path class="eb1533c1-6c56-4d70-ba27-fe243983d16a" d="M7.22,13.51H2.84A2.13,2.13,0,0,1,.61,11.33c0-1.15,0-2.29,0-3.44v-5A2.16,2.16,0,0,1,1.28,1.2,2,2,0,0,1,2.72.61q4.53,0,9.06,0a2.12,2.12,0,0,1,2.1,2.11q0,4.33,0,8.67a2.12,2.12,0,0,1-2.13,2.12Zm-3.71-7c0,1,0,2.08,0,3.12,0,.14,0,.2.18.19h.73c.14,0,.17,0,.17-.18,0-.67,0-1.34,0-2,0-.19.06-.22.22-.2a3.63,3.63,0,0,0,1.09-.09A2,2,0,0,0,7.52,5.18,1.9,1.9,0,0,0,5.6,3.23a16.31,16.31,0,0,0-1.85,0c-.18,0-.25,0-.25.24C3.51,4.5,3.51,5.52,3.51,6.55ZM8.1,9.15a1.5,1.5,0,0,1,0,.3c0,.18.05.27.22.33a2.84,2.84,0,0,0,1.8.06,1.31,1.31,0,0,0,1-1.06,1.39,1.39,0,0,0-.5-1.41A2.81,2.81,0,0,0,9.94,7a5.08,5.08,0,0,1-.59-.35.42.42,0,0,1,.17-.78,1.09,1.09,0,0,1,.26,0,2,2,0,0,1,1,.22c.14.07.18,0,.18-.11s0-.46,0-.69A.19.19,0,0,0,10.78,5a2.7,2.7,0,0,0-1.86,0,1.38,1.38,0,0,0-.39,2.27,2.93,2.93,0,0,0,.74.48,2.31,2.31,0,0,1,.66.44A.42.42,0,0,1,9.76,9a1.31,1.31,0,0,1-.39,0A2.09,2.09,0,0,1,8.26,8.7c-.13-.08-.17,0-.16.1S8.1,9,8.1,9.15Z"/><path class="eb1533c1-6c56-4d70-ba27-fe243983d16a" d="M4.58,5.33v-1c0-.07,0-.13.1-.14a3.22,3.22,0,0,1,1,.06,1,1,0,0,1,.75.8A1.13,1.13,0,0,1,5.28,6.5c-.19,0-.38,0-.57,0s-.13,0-.13-.14Z"/></g></g></svg>