<svg xmlns="http://www.w3.org/2000/svg" viewBox="0 0 15.54 12.3"><defs><style>.e31d6af4-4e08-48e6-9dae-2840ec6da320{fill:#22254f;}</style></defs><title>icon-qt</title><g id="e7d92c59-f591-4ed4-9204-3483d22fd26a" data-name="圖層 2"><g id="a7584ce7-4327-4e92-ad6f-b64b758e4430" data-name="圖層 1"><path class="e31d6af4-4e08-48e6-9dae-2840ec6da320" d="M8.89,10.05a2.59,2.59,0,0,1-1,.18A2.72,2.72,0,0,1,5.27,8.61C4,8.36,3.06,7.18,3.06,5.41c0-2,1.14-3.2,2.79-3.2S8.63,3.4,8.63,5.41A3,3,0,0,1,6.58,8.57,1.6,1.6,0,0,0,8,9.23a2.22,2.22,0,0,0,.68-.1Zm-3-2.4c.92,0,1.51-.84,1.51-2.24S6.77,3.28,5.85,3.28s-1.52.8-1.52,2.13S4.92,7.65,5.85,7.65Z"/><path class="e31d6af4-4e08-48e6-9dae-2840ec6da320" d="M10,6.9V4.82H9.3V3.9L10,3.84l.14-1.26h1V3.84h1.16v1H11.2V6.9c0,.54.22.79.64.79a1.35,1.35,0,0,0,.46-.1l.2.9a3.16,3.16,0,0,1-1,.17C10.4,8.66,10,8,10,6.9Z"/><path class="e31d6af4-4e08-48e6-9dae-2840ec6da320" d="M12.88,12.3H0V2.65A2.66,2.66,0,0,1,2.66,0H15.54V9.65A2.66,2.66,0,0,1,12.88,12.3ZM1,11.33H12.88a1.69,1.69,0,0,0,1.69-1.68V1H2.66A1.69,1.69,0,0,0,1,2.65Z"/></g></g></svg>