<svg xmlns="http://www.w3.org/2000/svg" viewBox="0 0 18.39 13.2"><defs><style>.bf36b0ca-3b06-4ce6-93c0-776f29b01122{fill:#22254f;}</style></defs><title>icon-docker</title><g id="fbcad30e-8488-4836-a8f6-9d97b365bc07" data-name="圖層 2"><g id="fc37f715-4089-4c44-8772-ffec26c4e06d" data-name="圖層 1"><path class="bf36b0ca-3b06-4ce6-93c0-776f29b01122" d="M10.17,0a.93.93,0,0,1,.06.49V1.55c0,.13-.05.18-.18.18H8.5c-.14,0-.18-.05-.18-.18V.18A.55.55,0,0,1,8.38,0Z"/><path class="bf36b0ca-3b06-4ce6-93c0-776f29b01122" d="M6.64,6.25h6A3.49,3.49,0,0,0,13.94,6c.09,0,.09-.07,0-.15a2.62,2.62,0,0,1-.18-2.19,3.71,3.71,0,0,1,.53-1.05s0,0,.09,0a2.88,2.88,0,0,1,1.46,1.76,1.1,1.1,0,0,1,.06.26c0,.06,0,.07.09.06a3.82,3.82,0,0,1,1.39,0,2,2,0,0,1,.93.42.09.09,0,0,1,0,.12,2.42,2.42,0,0,1-1.71,1.6,3.18,3.18,0,0,1-1,.13.12.12,0,0,0-.12.08,12.16,12.16,0,0,1-1.22,2.38A8.28,8.28,0,0,1,9.53,12.8a11.8,11.8,0,0,1-3.64.39,11,11,0,0,1-2.35-.36A4.35,4.35,0,0,1,.6,10.11,8,8,0,0,1,.07,8,9.79,9.79,0,0,1,0,6.88a.61.61,0,0,1,.64-.64Z"/><path class="bf36b0ca-3b06-4ce6-93c0-776f29b01122" d="M4.76,2.08h.76c.14,0,.19,0,.19.19V3.63c0,.13,0,.18-.18.18H4c-.13,0-.18-.05-.18-.17V2.25c0-.12.05-.17.17-.17Z"/><path class="bf36b0ca-3b06-4ce6-93c0-776f29b01122" d="M7,3.81H6.26c-.14,0-.19,0-.19-.18V2.26c0-.13,0-.18.18-.18H7.8c.14,0,.18,0,.18.18V3.63c0,.14-.05.18-.19.18Z"/><path class="bf36b0ca-3b06-4ce6-93c0-776f29b01122" d="M4.76,4.16h.77c.13,0,.18,0,.18.18V5.72c0,.12,0,.17-.17.17H4c-.12,0-.17,0-.17-.17V4.33c0-.12.05-.17.17-.17Z"/><path class="bf36b0ca-3b06-4ce6-93c0-776f29b01122" d="M7,5.89H6.26c-.14,0-.19,0-.19-.19V4.35c0-.14,0-.19.19-.19H7.8c.14,0,.18,0,.18.19V5.7c0,.15,0,.19-.18.19Z"/><path class="bf36b0ca-3b06-4ce6-93c0-776f29b01122" d="M2.52,4.16h.76c.14,0,.19,0,.19.18V5.71c0,.13-.05.18-.18.18H1.74c-.13,0-.18,0-.18-.18V4.34c0-.13.05-.18.18-.18Z"/><path class="bf36b0ca-3b06-4ce6-93c0-776f29b01122" d="M11.54,5.89h-.77c-.14,0-.19,0-.19-.18V4.35c0-.14.05-.19.2-.19h1.53c.14,0,.18,0,.18.19q0,.68,0,1.35c0,.15,0,.19-.19.19Z"/><path class="bf36b0ca-3b06-4ce6-93c0-776f29b01122" d="M9.28,3.81H8.5c-.13,0-.18-.05-.18-.17V2.25c0-.12,0-.17.17-.17h1.57c.12,0,.17,0,.17.18V3.63c0,.13-.05.18-.18.18Z"/><path class="bf36b0ca-3b06-4ce6-93c0-776f29b01122" d="M9.28,5.89H8.52c-.16,0-.2,0-.2-.19V4.35c0-.14,0-.19.19-.19H10c.14,0,.19,0,.19.19V5.71c0,.13-.05.18-.18.18Z"/></g></g></svg>