<svg xmlns="http://www.w3.org/2000/svg" viewBox="0 0 23.09 10.1"><defs><style>.e338039d-f246-4c1c-91cc-04b6a626b856{fill:#22254f;}</style></defs><title>icon-markdown</title><g id="a4d7808f-4493-466f-ac1d-baccd63f871d" data-name="圖層 2"><g id="a00f0c4e-7802-4664-91f2-5846410d4904" data-name="圖層 1"><path class="e338039d-f246-4c1c-91cc-04b6a626b856" d="M9.41,3.55a7.82,7.82,0,0,1-.71.7c-.29.32-.6.61-.9.91s-.67.69-1,1-.44.44-.66.67-.19.14-.35,0l-3.1-3.1-.09-.09s0-.06-.08,0,0,.06,0,.09V9.27c0,.27,0,.3-.3.3H.27C0,9.56,0,9.52,0,9.28V.33C0,0,0,0,.33,0h1.8a.62.62,0,0,1,.5.21L5.82,3.4c.12.13.18.11.3,0,.3-.33.62-.62.94-.94L8.58.92,9.41.11A.29.29,0,0,1,9.64,0h2c.18,0,.24.07.24.24V5.72c0,1.19,0,2.38,0,3.57,0,.26,0,.28-.27.28H9.71c-.22,0-.26,0-.26-.25V3.72C9.45,3.67,9.47,3.61,9.41,3.55Z"/><path class="e338039d-f246-4c1c-91cc-04b6a626b856" d="M20.18,2.42V4.54c0,.16,0,.22.21.21h2.55s.11,0,.14,0,0,.1-.07.14c-.22.21-.41.46-.62.69-.52.58-1,1.17-1.55,1.74-.69.76-1.36,1.54-2.05,2.3l-.33.36c-.08.09-.14.09-.22,0L17.09,8.74,15.85,7.36l-1.3-1.47L13.73,5c-.05,0-.13-.09-.09-.17s.11,0,.18,0h2.47c.23,0,.24,0,.24-.23V.3c0-.26,0-.29.3-.29h3.09c.22,0,.26,0,.26.26V2.42Z"/></g></g></svg>