<svg xmlns="http://www.w3.org/2000/svg" viewBox="0 0 17.84 17.84"><defs><style>.ac49405f-7e22-4aff-87f0-3bd883ab1fab{fill:#22254f;}</style></defs><title>git</title><g id="beab5bea-4aab-4c64-8cc3-1660e725d5c3" data-name="圖層 2"><g id="a7776db2-5924-4407-a69e-2c9b273a4672" data-name="圖層 1"><path class="ac49405f-7e22-4aff-87f0-3bd883ab1fab" d="M9.57,6.66l.07.07,1.71,1.71a.11.11,0,0,1,0,.13A1.34,1.34,0,0,0,11.71,10a1.29,1.29,0,0,0,1.39.33A1.31,1.31,0,0,0,14,9.21,1.37,1.37,0,0,0,12.31,7.7a.11.11,0,0,1-.14,0L10.32,5.82a.14.14,0,0,1,0-.16A1.36,1.36,0,0,0,8.6,4a.14.14,0,0,1-.14,0L6.53,2c0-.06,0-.08,0-.13L8.08.35a1.15,1.15,0,0,1,1.64,0L12,2.64l5.45,5.45a1.2,1.2,0,0,1,.37.79,1.18,1.18,0,0,1-.36.9l-1.75,1.75c-2,2-4,4-5.93,5.93a1.23,1.23,0,0,1-.88.38,1.07,1.07,0,0,1-.76-.3A1.85,1.85,0,0,1,8,17.4L.38,9.76A1.16,1.16,0,0,1,0,9a1.1,1.1,0,0,1,.35-.89L1.88,6.54Q3.74,4.69,5.6,2.82c.06-.06.09-.06.16,0L7.63,4.71a.12.12,0,0,1,0,.15,1.36,1.36,0,0,0,.69,1.67.12.12,0,0,1,.08.12v4.73a.11.11,0,0,1-.07.12,1.37,1.37,0,0,0,.4,2.59,1.38,1.38,0,0,0,1.48-.92,1.34,1.34,0,0,0-.61-1.62c-.05,0-.08-.05-.08-.12V6.72A.35.35,0,0,0,9.57,6.66Z"/></g></g></svg>