<svg xmlns="http://www.w3.org/2000/svg" viewBox="0 0 22.42 9.63"><defs><style>.bcb59393-8b4e-44fb-bb05-a61626932626{fill:#22254f;}</style></defs><title>icon-pip</title><g id="aa9503e2-be51-4d46-8ecb-ea69684e92ea" data-name="圖層 2"><g id="b7f235c6-f7f9-423a-9db2-112674f7e3f5" data-name="圖層 1"><path class="bcb59393-8b4e-44fb-bb05-a61626932626" d="M.42,9.63a.41.41,0,0,1-.3-.13.42.42,0,0,1,0-.59L8.86.18a.42.42,0,0,1,.6,0,.43.43,0,0,1,.12.31V7.1a.42.42,0,0,1-.42.42h-5a.43.43,0,0,1-.43-.33.43.43,0,0,1,.42-.51h4A.64.64,0,0,0,8.74,6V2.42a.39.39,0,0,0-.66-.27L.72,9.5A.39.39,0,0,1,.42,9.63Z"/><path class="bcb59393-8b4e-44fb-bb05-a61626932626" d="M13.26,9.63a.44.44,0,0,1-.28-.1.48.48,0,0,1-.14-.34V2.58a.42.42,0,0,1,.43-.42h5a.43.43,0,0,1,.44.38.42.42,0,0,1-.42.46H14.23a.55.55,0,0,0-.55.55V7.31a.36.36,0,0,0,.62.26L21.7.18a.42.42,0,0,1,.6,0,.42.42,0,0,1,0,.59L13.56,9.51A.42.42,0,0,1,13.26,9.63Z"/><path class="bcb59393-8b4e-44fb-bb05-a61626932626" d="M11.31,9.58H9a.44.44,0,0,1-.44-.39A.42.42,0,0,1,9,8.73h1.39a.5.5,0,0,0,.5-.5V.43A.43.43,0,0,1,11.32,0H13.4a.43.43,0,0,1,.44.38.42.42,0,0,1-.42.46h-1a.69.69,0,0,0-.69.7V9.15A.42.42,0,0,1,11.31,9.58Z"/></g></g></svg>