<svg width="36" height="35" viewBox="0 0 36 35" fill="none" xmlns="http://www.w3.org/2000/svg">
  <g clip-path="url(#clip0_13_12)">
  <path d="M13.28 32V33.33C13.3139 33.5026 13.2982 33.6812 13.2346 33.8453C13.1711 34.0093 13.0623 34.1519 12.921 34.2566C12.7797 34.3613 12.6115 34.4238 12.4361 34.4368C12.2607 34.4497 12.0852 34.4127 11.93 34.33C10.7225 33.9386 9.5673 33.4013 8.49 32.73C4.92368 30.5753 2.24033 27.222 0.919999 23.27C0.413238 21.8214 0.103793 20.3112 -1.40443e-06 18.78C-0.2768 15.0523 0.682695 11.3374 2.73 8.20999C4.0026 6.16249 5.68932 4.40375 7.68185 3.0467C9.67438 1.68964 11.9287 0.764266 14.3 0.329986C15.7421 0.0248623 17.2185 -0.0861205 18.69 -1.42641e-05C22.673 0.25108 26.4536 1.8439 29.4154 4.51882C32.3773 7.19374 34.3458 10.793 35 14.73C35.248 16.2134 35.3018 17.7227 35.16 19.22C34.8488 22.8544 33.3922 26.2963 31 29.05C28.9724 31.4513 26.3323 33.2586 23.36 34.28C23.1968 34.3406 23.024 34.3711 22.85 34.37C22.7364 34.381 22.6219 34.3687 22.5132 34.3339C22.4045 34.2991 22.3041 34.2426 22.218 34.1677C22.1319 34.0929 22.062 34.0013 22.0125 33.8985C21.963 33.7957 21.9349 33.684 21.93 33.57C21.91 33.317 21.91 33.0629 21.93 32.81C21.93 31.35 21.93 29.9 21.93 28.45C21.9573 27.5479 21.7021 26.6599 21.2 25.91L20.96 25.61C20.96 25.55 20.79 25.5 20.84 25.4C20.89 25.3 21 25.33 21.08 25.32C22.2442 25.2027 23.3857 24.9198 24.47 24.48C25.5356 24.0422 26.4696 23.3359 27.1811 22.4299C27.8926 21.5239 28.3573 20.449 28.53 19.31C28.8416 17.9367 28.8688 16.5142 28.61 15.13C28.3809 14.0499 27.8821 13.0453 27.16 12.21C27.0984 12.1505 27.056 12.074 27.0382 11.9903C27.0204 11.9065 27.028 11.8194 27.06 11.74C27.4669 10.3621 27.4035 8.88793 26.88 7.54999C26.8566 7.47123 26.8048 7.40402 26.7345 7.36148C26.6642 7.31895 26.5806 7.30415 26.5 7.31999C25.6823 7.35435 24.8812 7.56228 24.15 7.92999C23.4974 8.23291 22.8718 8.59087 22.28 8.99999C22.2024 9.05836 22.1119 9.09704 22.0161 9.11272C21.9203 9.12839 21.8221 9.12059 21.73 9.08999C20.393 8.73286 19.0138 8.55795 17.63 8.56999C16.2531 8.55391 14.8805 8.72549 13.55 9.07999C13.443 9.11899 13.3284 9.13207 13.2154 9.11817C13.1024 9.10426 12.9943 9.06376 12.9 8.99999C11.8799 8.26802 10.7343 7.72913 9.52 7.40999C9.24148 7.34497 8.95596 7.31474 8.67 7.31999C8.59275 7.31244 8.51532 7.33237 8.4513 7.37626C8.38729 7.42016 8.3408 7.48521 8.32 7.55999C7.96609 8.49036 7.82266 9.48758 7.9 10.48C7.93242 10.947 8.02657 11.4077 8.18 11.85C8.19852 11.9071 8.19884 11.9686 8.18093 12.0259C8.16301 12.0832 8.12775 12.1336 8.08 12.17C7.16724 13.1745 6.6057 14.4485 6.48 15.8C6.23994 17.7325 6.55923 19.6934 7.4 21.45C8.17389 22.9424 9.49119 24.0807 11.08 24.63C12.0048 24.9654 12.964 25.1968 13.94 25.32H14.23C14.39 25.32 14.37 25.42 14.23 25.51C13.7335 26.073 13.4105 26.7676 13.3 27.51C13.3 27.64 13.3 27.74 13.12 27.79C12.5513 28.0745 11.9221 28.2167 11.2864 28.2045C10.6506 28.1923 10.0273 28.0261 9.47 27.72C8.93893 27.3992 8.49839 26.9483 8.19 26.41C7.79397 25.7163 7.2075 25.1507 6.5 24.78C6.10894 24.5883 5.6746 24.5022 5.24 24.53C5.05 24.53 4.81 24.53 4.74 24.77C4.67 25.01 4.85 25.13 5 25.25C5.15 25.37 5.59 25.67 5.87 25.9C6.47668 26.4443 6.93736 27.1319 7.21 27.9C7.45648 28.5676 7.88501 29.1528 8.44705 29.5894C9.00908 30.0259 9.68216 30.2964 10.39 30.37C11.2283 30.4887 12.0809 30.4616 12.91 30.29C13.24 30.22 13.27 30.29 13.27 30.58V32H13.28Z" fill="#20244A"/>
  <path d="M10.08 28.83C9.81 28.83 9.59 28.65 9.61 28.48C9.63 28.31 9.77 28.26 9.93 28.26C10.09 28.26 10.4 28.43 10.37 28.6C10.3663 28.6342 10.3558 28.6674 10.3392 28.6975C10.3225 28.7277 10.3001 28.7542 10.2731 28.7756C10.2461 28.797 10.2151 28.8128 10.182 28.8222C10.1488 28.8315 10.1142 28.8342 10.08 28.83Z" fill="#20244A"/>
  <path d="M12.73 28.89C12.56 28.89 12.38 28.84 12.38 28.64C12.38 28.44 12.59 28.33 12.8 28.32C13.01 28.31 13.14 28.32 13.14 28.56C13.14 28.8 12.92 28.85 12.73 28.89Z" fill="#20244A"/>
  <path d="M11.46 28.48C11.63 28.48 11.82 28.56 11.79 28.77C11.76 28.98 11.57 29.06 11.37 29.05C11.17 29.04 11 29 11 28.75C11 28.5 11.26 28.48 11.46 28.48Z" fill="#20244A"/>
  <path d="M8.73 27.5C8.87 27.5 9.08 27.69 9.1 27.9C9.12 28.11 9.04 28.16 8.87 28.16C8.75858 28.1494 8.65416 28.1009 8.5741 28.0227C8.49405 27.9444 8.4432 27.8411 8.43 27.73C8.43 27.58 8.51 27.5 8.73 27.5Z" fill="#20244A"/>
  </g>
  <defs>
  <clipPath id="clip0_13_12">
  <rect width="35.23" height="34.38" fill="white"/>
  </clipPath>
  </defs>
  </svg>
  