<svg xmlns="http://www.w3.org/2000/svg" viewBox="0 0 13.2 13.2"><defs><style>.bf3dd766-1b22-4981-8cf4-121f0d8c6758{fill:#22254f;}</style></defs><title>icon-gatsby</title><g id="bd74fe2f-4e82-41dc-affc-c78faead84a5" data-name="圖層 2"><g id="a999d7e3-c83a-424c-be05-22e819aa641b" data-name="圖層 1"><path class="bf3dd766-1b22-4981-8cf4-121f0d8c6758" d="M13.2,6.61A6.6,6.6,0,1,1,6.63,0,6.61,6.61,0,0,1,13.2,6.61Zm-3.08,0c-.52,0-1,0-1.56,0-.07,0-.1,0-.1.1,0,.27,0,.53,0,.8,0,.11,0,.11.12.11h2c.1,0,.11,0,.08.1a4.24,4.24,0,0,1-2.55,2.84.14.14,0,0,1-.18,0L2.7,5.24a.14.14,0,0,1,0-.19A4.25,4.25,0,0,1,3.87,3.36,4.24,4.24,0,0,1,10,4.1c0,.06.07.06.12,0l.57-.49c.06-.05,0-.09,0-.15a5.24,5.24,0,0,0-.8-.83A5,5,0,0,0,5.84,1.49,5,5,0,0,0,2.73,3.18,5,5,0,0,0,1.59,5.35a.13.13,0,0,0,0,.15L7.7,11.58a.16.16,0,0,0,.15,0,5.18,5.18,0,0,0,2.31-1.28,4.82,4.82,0,0,0,1-1.29,5.3,5.3,0,0,0,.62-2.34c0-.08,0-.11-.1-.11C11.15,6.61,10.63,6.6,10.12,6.6Zm-8.68.12a5.08,5.08,0,0,0,.7,2.49A5.21,5.21,0,0,0,4,11.06a5.08,5.08,0,0,0,2.49.7Z"/></g></g></svg>