<svg xmlns="http://www.w3.org/2000/svg" viewBox="0 0 22.73 10.2"><defs><style>.a8918599-9bd8-4b21-b048-eec1c2131399{fill:#22254f;}</style></defs><title>icon-yaml</title><g id="ab4cda0e-9c62-436f-a24f-40e2828594a1" data-name="圖層 2"><g id="e50f2e90-06de-465d-800c-40d86bbdef02" data-name="圖層 1"><path class="a8918599-9bd8-4b21-b048-eec1c2131399" d="M10,.18a.59.59,0,0,0-.85,0L5.7,3.65a.44.44,0,0,1-.62,0L1.61.18a.59.59,0,0,0-.85,0A.58.58,0,0,0,.76,1L4.23,4.5a.44.44,0,0,1,0,.62L.18,9.18a.58.58,0,0,0,0,.84A.58.58,0,0,0,1,10l9-9A.61.61,0,0,0,10,.18Z"/><path class="a8918599-9bd8-4b21-b048-eec1c2131399" d="M10.07,10.2A.63.63,0,0,1,9.65,10a.59.59,0,0,1,0-.85l5.52-5.52a.24.24,0,0,0-.27-.4l-2.11.94a.58.58,0,0,1-.57,0,.6.6,0,0,1-.27-.5V2.26L4.18,10a.6.6,0,0,1-.85-.84L12.13.39a.6.6,0,0,1,1,.42V2.14a.39.39,0,0,0,.54.35L18.62.27a.61.61,0,0,1,.74.2.62.62,0,0,1-.07.77L10.5,10A.63.63,0,0,1,10.07,10.2Z"/><path class="a8918599-9bd8-4b21-b048-eec1c2131399" d="M21.49,9.84H13.55a.6.6,0,0,1-.43-1L21.7.23a.61.61,0,0,1,.85,0,.59.59,0,0,1,0,.85L15.68,8a.4.4,0,0,0,.29.68h5.52a.59.59,0,0,1,.6.6A.6.6,0,0,1,21.49,9.84Z"/></g></g></svg>