<svg xmlns="http://www.w3.org/2000/svg" viewBox="0 0 23.07 17.82"><defs><style>.e0824c90-9846-4fe5-b99f-288f076c50a5{fill:#22254f;}</style></defs><title>icon-c</title><g id="faac8ff5-9dba-4508-9111-d6418aa699b4" data-name="圖層 2"><g id="fef44b52-f856-429a-92d5-2aae22f9cddf" data-name="圖層 1"><path class="e0824c90-9846-4fe5-b99f-288f076c50a5" d="M16.93,12.3v3.79a14.37,14.37,0,0,1-6.82,1.73,10.39,10.39,0,0,1-7.37-2.56A8.25,8.25,0,0,1,0,9,8.23,8.23,0,0,1,2.89,2.61,10.86,10.86,0,0,1,10.45,0a12.14,12.14,0,0,1,6.29,1.53V5.4a12.22,12.22,0,0,0-6-1.78A6.81,6.81,0,0,0,6.22,5.1,4.76,4.76,0,0,0,4.46,8.89,4.84,4.84,0,0,0,6.2,12.71a6.52,6.52,0,0,0,4.44,1.5,9.64,9.64,0,0,0,2.59-.35A25.87,25.87,0,0,0,16.93,12.3Z"/><path class="e0824c90-9846-4fe5-b99f-288f076c50a5" d="M8.22,9.33H6.42V8.09h1.8V6.23H9.5V8.09h1.79V9.33H9.5v1.86H8.22Z"/><path class="e0824c90-9846-4fe5-b99f-288f076c50a5" d="M14.08,9.33h-1.8V8.09h1.8V6.23h1.28V8.09h1.8V9.33h-1.8v1.86H14.08Z"/><path class="e0824c90-9846-4fe5-b99f-288f076c50a5" d="M20.86,10.26h-.95l-.23,1.86h-1l.22-1.86h-.74V9.15H19l.12-1h-.79V7h.94l.19-1.63h1L20.29,7h1l.2-1.63h1L22.25,7h.82V8.16h-.95l-.12,1h.86v1.11h-1l-.23,1.86h-1Zm.25-2.1h-1l-.11,1H21Z"/></g></g></svg>