<svg xmlns="http://www.w3.org/2000/svg" viewBox="0 0 13.97 13.63"><defs><style>.a75aa3a8-5ca3-4f74-b7fa-b7486b0688b7{fill:#7a7c95;}.eaf67eca-a6f8-4508-abaa-88f092406acb{fill:#22254f;}</style></defs><title>icon-ai</title><g id="b9638309-9c1c-48cc-8cfb-a99c838c83a6" data-name="圖層 2"><g id="a8782240-b72f-426c-be9e-2af31a4861ee" data-name="圖層 1"><path class="a75aa3a8-5ca3-4f74-b7fa-b7486b0688b7" d="M7,0h6.77c.16,0,.21,0,.21.21q0,6.6,0,13.2c0,.16,0,.22-.2.22H.2c-.17,0-.2,0-.2-.2C0,9,0,4.61,0,.2,0,.05,0,0,.2,0ZM7,13h6.16c.26,0,.26,0,.26-.25,0-4,0-8,0-12,0-.17,0-.22-.22-.22Q7,.6.79.58C.62.58.59.63.59.79q0,6,0,12c0,.16,0,.21.21.21Z"/><path class="eaf67eca-a6f8-4508-abaa-88f092406acb" d="M7,13H.79c-.17,0-.21,0-.21-.21q0-6,0-12c0-.16,0-.21.2-.21Q7,.6,13.17.58c.18,0,.22.05.22.22,0,4,0,8,0,12,0,.25,0,.25-.26.25ZM5.77,3.1H5.28c-.15,0-.2,0-.19.19A1.32,1.32,0,0,1,5,3.73L4.23,6.48,3.42,9.32c0,.15,0,.2.14.2a4.42,4.42,0,0,1,.63,0c.15,0,.2-.06.24-.2.12-.49.26-1,.38-1.47,0-.1.07-.14.18-.14H6.55c.13,0,.17,0,.2.16.13.5.27,1,.4,1.49a.18.18,0,0,0,.21.16h.7c.25,0,.25,0,.18-.24-.59-2-1.18-4-1.76-6-.05-.16-.12-.2-.27-.19Zm4.43,4h0V5c0-.12,0-.17-.16-.16H9.29c-.1,0-.14,0-.14.14q0,2.22,0,4.44c0,.12,0,.15.16.14s.47,0,.7,0,.19-.06.19-.2Zm.08-3.6a.6.6,0,1,0-1.19,0,.54.54,0,0,0,.58.58A.55.55,0,0,0,10.28,3.54Z"/><path class="eaf67eca-a6f8-4508-abaa-88f092406acb" d="M5.77,4.06l.52,2c0,.18.09.37.15.55s0,.14-.11.14H5.22c-.09,0-.12,0-.09-.13C5.36,5.8,5.58,5,5.77,4.06Z"/></g></g></svg>