<svg width="256" height="256" viewBox="0 0 256 256" fill="none" xmlns="http://www.w3.org/2000/svg">
  <g clip-path="url(#clip0_13_6)">
  <path d="M88.384 112.832L93.8453 20.4907C93.8888 19.7681 94.1712 19.0805 94.6481 18.536C95.125 17.9915 95.7695 17.6209 96.48 17.4827L185.355 0.0639977C185.904 -0.0437923 186.471 -0.00871308 187.002 0.165869C187.534 0.340452 188.011 0.648679 188.389 1.06098C188.767 1.47327 189.033 1.9758 189.161 2.52034C189.289 3.06489 189.275 3.63317 189.12 4.17066L172.501 61.8027C172.347 62.3391 172.333 62.9062 172.461 63.4497C172.588 63.9931 172.853 64.4948 173.229 64.9068C173.606 65.3187 174.082 65.6272 174.612 65.8027C175.142 65.9783 175.708 66.015 176.256 65.9093L201.728 61.0027C202.327 60.8855 202.948 60.9387 203.518 61.1565C204.089 61.3742 204.587 61.7476 204.956 62.2343C205.324 62.721 205.549 63.3014 205.605 63.9096C205.66 64.5178 205.544 65.1293 205.269 65.6747L132.843 210.208L131.531 212.235C131.249 212.693 130.853 213.072 130.382 213.333C129.911 213.595 129.381 213.731 128.843 213.728C126.955 213.728 125.109 212.107 125.589 209.792L137.269 153.248C137.384 152.694 137.353 152.12 137.179 151.582C137.005 151.044 136.694 150.56 136.276 150.178C135.859 149.796 135.35 149.53 134.798 149.404C134.247 149.278 133.672 149.298 133.131 149.461L117.845 154.101C117.304 154.266 116.729 154.288 116.178 154.164C115.626 154.039 115.115 153.774 114.697 153.393C114.279 153.012 113.966 152.529 113.791 151.992C113.615 151.454 113.583 150.88 113.696 150.325L121.056 114.325C121.168 113.788 121.142 113.231 120.981 112.706C120.82 112.181 120.53 111.705 120.136 111.322C119.743 110.94 119.259 110.662 118.73 110.516C118.201 110.37 117.644 110.359 117.109 110.485L92.3627 116.203C91.8688 116.316 91.3552 116.313 90.8628 116.194C90.3703 116.074 89.9123 115.842 89.5253 115.515C89.1382 115.188 88.8325 114.775 88.6326 114.309C88.4327 113.844 88.3439 113.338 88.3733 112.832H88.384Z" fill="#20244A"/>
  <path d="M248.128 28.288L184.363 39.8933L178.56 60.0213L200.715 55.7547C202.432 55.4124 204.212 55.6065 205.815 56.3106C207.418 57.0147 208.765 58.1947 209.675 59.6907C210.447 60.9348 210.885 62.3565 210.949 63.8192C211.012 65.2819 210.698 66.7364 210.037 68.0427L137.6 212.587L137.461 212.853L137.301 213.099L136 215.125C135.231 216.33 134.171 217.323 132.919 218.013C131.667 218.702 130.262 219.066 128.832 219.072C127.537 219.065 126.26 218.773 125.091 218.216C123.922 217.659 122.891 216.851 122.069 215.851C121.27 214.862 120.703 213.707 120.407 212.47C120.112 211.234 120.097 209.947 120.363 208.704L131.339 155.573L119.392 159.2C117.758 159.692 116.015 159.69 114.382 159.192C112.749 158.695 111.301 157.725 110.219 156.405C109.412 155.42 108.835 154.267 108.531 153.031C108.226 151.795 108.202 150.506 108.459 149.259L115.179 116.405L93.5573 121.397C92.0937 121.733 90.5678 121.68 89.1309 121.244C87.694 120.808 86.396 120.004 85.3653 118.912C84.5663 118.057 83.9492 117.05 83.5513 115.949C83.1534 114.849 82.9831 113.68 83.0507 112.512L87.2 42.432L7.84 28.2453C6.61726 28.0247 5.35695 28.1575 4.20711 28.6283C3.05728 29.0991 2.06568 29.8883 1.3488 30.9031C0.631932 31.9179 0.219561 33.1163 0.160136 34.3573C0.100712 35.5984 0.396701 36.8307 1.01333 37.9093L123.52 252.704C124.092 253.709 124.921 254.545 125.923 255.124C126.924 255.704 128.061 256.007 129.218 256.003C130.375 255.998 131.51 255.687 132.506 255.099C133.503 254.512 134.326 253.671 134.891 252.661L254.997 37.888C255.599 36.8074 255.882 35.578 255.812 34.3429C255.743 33.1079 255.323 31.9181 254.603 30.9121C253.884 29.9061 252.893 29.1254 251.746 28.6608C250.6 28.1962 249.345 28.0669 248.128 28.288Z" fill="#20244A" fill-opacity="0.6"/>
  </g>
  <defs>
  <clipPath id="clip0_13_6">
  <rect width="256" height="256" fill="white"/>
  </clipPath>
  </defs>
  </svg>
  