<svg xmlns="http://www.w3.org/2000/svg" viewBox="0 0 18 17.01"><defs><style>.f480642d-b831-4874-b5b8-c8a775d5a0ff{fill:#22254f;}</style></defs><title>icon-python</title><g id="f980a8b3-3153-45d7-8c85-8c5d1f3e78b7" data-name="圖層 2"><g id="a9a99eef-b52d-4d60-a49c-71b10f4159fe" data-name="圖層 1"><path class="f480642d-b831-4874-b5b8-c8a775d5a0ff" d="M10.84,12.74H8.26c-.16,0-.23,0-.22.2s0,.25.21.25h4.52c.18,0,.23,0,.23.23a13.4,13.4,0,0,1-.13,2.36.27.27,0,0,1-.14.22,5.62,5.62,0,0,1-2.36.86,7.92,7.92,0,0,1-3.84-.16,2.28,2.28,0,0,1-1.28-.87,2.53,2.53,0,0,1-.35-1,9.73,9.73,0,0,1,.26-4.7,1.79,1.79,0,0,1,.75-1.09A3.07,3.07,0,0,1,7,8.76a20.89,20.89,0,0,1,3,0,6.9,6.9,0,0,0,1.76-.13,2.28,2.28,0,0,0,1.8-1.9,15.1,15.1,0,0,0,.3-2.11c0-.16.05-.21.22-.2A3.83,3.83,0,0,1,17.1,6,4.85,4.85,0,0,1,18,8.63,5.09,5.09,0,0,1,17.64,11a2.63,2.63,0,0,1-1.48,1.58,2.06,2.06,0,0,1-.78.13H10.84Zm.14.92a1,1,0,0,0-1,1,1,1,0,0,0,1,1,1.05,1.05,0,0,0,1-1A1.06,1.06,0,0,0,11,13.66Z"/><path class="f480642d-b831-4874-b5b8-c8a775d5a0ff" d="M7.09,4.26H9.66c.18,0,.22,0,.22-.22s0-.23-.22-.23H5.17c-.21,0-.28,0-.27-.26,0-.59,0-1.17,0-1.75a3.55,3.55,0,0,1,.12-.65C5.12,1,5.33.88,5.5.8A8.37,8.37,0,0,1,9.71,0,4.93,4.93,0,0,1,12,.56a1.86,1.86,0,0,1,.91,1.09,8.92,8.92,0,0,1,.26,3,6.85,6.85,0,0,1-.52,2.45,1.47,1.47,0,0,1-1,.92,5.48,5.48,0,0,1-1.8.21c-.84,0-1.68-.06-2.52-.06a4.16,4.16,0,0,0-1.52.23A2.16,2.16,0,0,0,4.46,9.93,14.18,14.18,0,0,0,4,12.34c0,.16-.06.21-.23.2A3.6,3.6,0,0,1,.6,10.43,5.31,5.31,0,0,1,.39,6,2.44,2.44,0,0,1,2.28,4.32a2.28,2.28,0,0,1,.45,0H7.09ZM6.76,1.08a1,1,0,0,0-1.06,1,1,1,0,0,0,2.08,0A1,1,0,0,0,6.76,1.08Z"/></g></g></svg>