<svg xmlns="http://www.w3.org/2000/svg" viewBox="0 0 15.35 17.08"><defs><style>.b79921ad-d74b-4016-b4db-34e8a0507113{fill:#22254f;}</style></defs><title>icon-css3</title><g id="fe8b2e9c-be23-4bde-971d-1c8791b8d9a8" data-name="圖層 2"><g id="b7edbf1e-06c8-4d85-a3f4-e708c92d0c13" data-name="圖層 1"><path class="b79921ad-d74b-4016-b4db-34e8a0507113" d="M7.28,17.08,1.49,15.41l-.17-.2L0,.22.22,0H15.1l.25.27L14,15.2l-.17.21L8.07,17.08ZM7.67,1H1.27l-.2.21L2.25,14.51l.1.13,5.23,1.5h.18L13,14.66l.12-.12L14.29,1.19,14.07,1Z"/><polygon class="b79921ad-d74b-4016-b4db-34e8a0507113" points="7.65 3.6 11.55 3.6 11.79 3.84 11.3 12 11.25 12.38 11.13 12.48 7.74 13.61 7.63 13.61 4.21 12.48 4.1 12.38 4.04 11.92 3.96 10.08 4.17 9.89 5.58 9.9 5.85 10.15 5.85 10.87 5.98 11.07 7.56 11.62 7.79 11.62 9.28 11.12 9.5 10.81 9.59 9.23 9.47 9.09 5.83 9.09 5.65 8.93 5.59 7.35 5.76 7.2 9.57 7.21 9.73 7.05 9.84 5.59 9.75 5.49 3.92 5.49 3.62 5.2 3.52 4.1 3.94 3.6 7.65 3.6 7.65 3.6"/></g></g></svg>