<svg xmlns="http://www.w3.org/2000/svg" viewBox="0 0 21.03 24"><defs><style>.b23a6523-954a-44b7-bd37-30771b784589{fill-rule:evenodd;}</style></defs><title>icon-bse</title><g id="b771c5e0-33c4-4a86-99b7-e455f7ff7626" data-name="圖層 2"><g id="b3ddd12d-2349-475c-95d5-421d07e68831" data-name="圖層 1"><path class="b23a6523-954a-44b7-bd37-30771b784589" d="M10.53,0h0C4.75,0,0,4.41,0,9.77c0,4.78,3.84,8.92,8.69,9.78V24l8.67-6.8A9.53,9.53,0,0,0,21,9.78C21,4.36,16.32,0,10.53,0Zm5.79,15.7-.15.12-.08.07-5.54,4.35v-2.5C5.81,17.74,2,14.14,2,9.82s3.88-7.88,8.65-7.88h0c4.78,0,8.65,3.51,8.65,7.87A7.53,7.53,0,0,1,16.32,15.7Z"/><path class="b23a6523-954a-44b7-bd37-30771b784589" d="M15.31,6.9a5.69,5.69,0,0,0-4.73-2.77A5.84,5.84,0,0,0,7,5.49,5.35,5.35,0,0,0,5.84,6.9a3.92,3.92,0,0,0-.56,1.8,4.56,4.56,0,0,0,.26,1.9,4.77,4.77,0,0,0,1.38,1.94l3.63,3.18V13.86a5.49,5.49,0,0,0,4-1.59,4.76,4.76,0,0,0,1.08-1.67,4.92,4.92,0,0,0,.26-1.9A5,5,0,0,0,15.31,6.9ZM13,11a3.55,3.55,0,0,1-2.47,1,3.58,3.58,0,0,1-2.46-1,3,3,0,0,1-.89-2.24A3,3,0,0,1,8.26,6.68a3.55,3.55,0,0,1,2.31-.82,3.51,3.51,0,0,1,2.31.82A2.9,2.9,0,0,1,14,8.77,2.77,2.77,0,0,1,13,11Z"/></g></g></svg>