<svg xmlns="http://www.w3.org/2000/svg" viewBox="0 0 15.62 16.78"><defs><style>.fbf3e71e-4525-473b-b2b7-fcad8a39bb5f{fill:#22254f;}</style></defs><title>icon-html5</title><g id="a3fe7615-d71d-4cc1-b661-8dffb21ee4ba" data-name="圖層 2"><g id="a7f8bc63-b0ad-424e-8e18-85ff47feda1f" data-name="圖層 1"><path class="fbf3e71e-4525-473b-b2b7-fcad8a39bb5f" d="M1.33,1.05H14.2l.34.36L13.36,14.33l-.26.27L8,15.73H7.56L2.49,14.59l-.21-.26L1.09,1.27l.24-.22M.91,0,.61.29.37.51,0,.86l.05.51L1.24,14.43l0,.31.19.24.21.26.23.29.36.08,5.07,1.13.1,0h.69l.12,0,5.09-1.12.31-.07.22-.24.26-.27.25-.27,0-.36L15.58,1.5l0-.47L15.3.68,15,.33,14.65,0H.91Z"/><polygon class="fbf3e71e-4525-473b-b2b7-fcad8a39bb5f" points="7.82 3.47 11.86 3.47 12.1 3.76 11.88 5.12 11.56 5.37 5.62 5.36 5.44 5.58 5.64 6.36 5.84 6.52 11.29 6.52 11.51 6.77 10.97 11.76 10.61 12.25 7.96 13.31 7.69 13.31 4.86 12.18 4.68 11.95 4.25 9.8 4.43 9.6 5.79 9.6 6.04 9.81 6.26 10.67 6.49 10.93 7.63 11.39 8 11.38 9.16 10.93 9.36 10.67 9.6 8.72 9.35 8.44 4.47 8.44 4.06 8.08 3.52 3.75 3.78 3.47 7.82 3.47 7.82 3.47"/></g></g></svg>