<svg width="778" height="756" viewBox="0 0 778 756" fill="none" xmlns="http://www.w3.org/2000/svg">
  <path fill-rule="evenodd" clip-rule="evenodd" d="M366.486 5.70272C372.689 2.73936 379.426 1.03449 386.303 0.6881C394.953 0.250219 403.575 1.97413 411.378 5.70162L681.838 134.846C688.837 138.188 694.987 143.052 699.831 149.075C704.675 155.099 708.088 162.127 709.817 169.638L776.634 459.88C778.364 467.394 778.364 475.199 776.634 482.714C774.904 490.229 771.488 497.26 766.641 503.285L579.533 736.046C574.684 742.061 568.532 746.917 561.533 750.252C554.534 753.587 546.867 755.315 539.102 755.31L238.934 755.378C231.166 755.38 223.498 753.645 216.499 750.304C209.499 746.963 203.349 742.101 198.504 736.079L11.3273 503.354C10.2809 502.042 9.29994 500.68 8.38782 499.273C4.62561 493.517 2.06576 487.071 0.859774 480.317C-0.346216 473.562 -0.173847 466.637 1.36668 459.949L68.083 169.708C69.812 162.196 73.2252 155.168 78.0688 149.144C82.9125 143.121 89.0622 138.257 96.0613 134.914L366.486 5.70272ZM372.797 117.445C372.796 107.514 380.044 99.4621 388.983 99.461C397.923 99.461 405.168 107.514 405.169 117.445C405.171 117.95 405.182 118.517 405.194 119.096C405.214 120.133 405.235 121.21 405.204 122.045C405.063 125.825 404.472 129.018 403.87 132.27C403.559 133.947 403.246 135.64 402.99 137.436L402.884 138.314C401.569 149.219 400.471 158.322 401.158 166.799C401.709 170.559 403.68 172.356 405.565 174.073C405.863 174.345 406.16 174.616 406.449 174.892C406.497 176.066 406.686 179.964 406.83 182.121C458.294 186.693 506.088 210.228 541.194 247.038L547.35 242.645C547.596 242.66 547.876 242.681 548.186 242.705C550.499 242.884 554.403 243.185 557.172 241.574C564.238 236.817 570.688 230.264 578.41 222.42L578.996 221.825C580.215 220.532 581.327 219.259 582.427 217.999C584.628 215.479 586.786 213.007 589.682 210.515C590.395 209.903 591.369 209.141 592.271 208.436C592.625 208.16 592.968 207.891 593.279 207.645C601.044 201.45 611.846 202.11 617.42 209.098C622.994 216.086 621.207 226.768 613.443 232.961C613.082 233.252 612.684 233.579 612.277 233.915C611.449 234.598 610.579 235.316 609.88 235.832C606.864 238.06 604.003 239.576 601.099 241.115C599.563 241.928 598.016 242.748 596.427 243.683C586.746 249.662 578.72 254.619 572.355 260.595C569.751 263.381 569.571 266.038 569.4 268.587C569.373 268.98 569.347 269.372 569.312 269.76C568.878 270.159 567.915 271.019 566.846 271.974C565.702 272.996 564.437 274.126 563.57 274.914C577.523 295.68 587.982 319.249 593.902 345.018C599.767 370.551 600.68 396.069 597.291 420.588L603.827 422.49C603.965 422.685 604.12 422.912 604.292 423.165C605.583 425.063 607.817 428.348 610.814 429.511C619.055 432.106 628.319 433.077 639.475 434.247L639.832 434.284C641.657 434.436 643.396 434.504 645.121 434.572C648.417 434.701 651.663 434.829 655.36 435.529C656.208 435.689 657.3 435.96 658.339 436.218C658.953 436.371 659.549 436.518 660.064 436.636C669.605 438.938 675.73 447.709 673.76 456.349C671.789 464.991 662.468 470.243 652.87 468.178C652.823 468.167 652.762 468.162 652.704 468.155C652.677 468.152 652.651 468.148 652.628 468.143C652.519 468.118 652.424 468.065 652.317 468.04C651.83 467.933 651.298 467.826 650.762 467.718C649.826 467.53 648.877 467.339 648.132 467.14C644.491 466.166 641.511 464.875 638.482 463.563C636.903 462.88 635.312 462.191 633.606 461.538L633.105 461.358C622.619 457.597 613.891 454.467 605.385 453.237C601.599 452.938 599.414 454.456 597.323 455.909C596.989 456.141 596.658 456.371 596.323 456.592C595.141 456.355 591.501 455.711 589.406 455.381C573.896 504.123 540.87 546.326 496.094 572.765C496.342 573.362 496.644 574.174 496.961 575.026C497.635 576.836 498.375 578.823 498.792 579.301C498.65 579.678 498.499 580.052 498.347 580.429C497.398 582.783 496.414 585.224 497.547 588.845C500.689 596.993 505.772 604.957 511.9 614.544C512.914 616.058 513.937 617.452 514.95 618.834C516.901 621.494 518.818 624.108 520.581 627.444C521.026 628.285 521.571 629.439 522.069 630.495C522.29 630.962 522.501 631.409 522.69 631.801C526.853 640.702 523.798 650.952 515.809 654.801C507.755 658.68 497.741 654.583 493.431 645.635C493.244 645.252 493.035 644.83 492.819 644.395C492.322 643.393 491.789 642.32 491.425 641.485C489.905 638.004 489.042 634.852 488.164 631.642C487.716 630.009 487.265 628.362 486.722 626.648L486.563 626.184C482.959 615.624 479.967 606.858 475.62 599.429C473.48 596.266 470.92 595.496 468.468 594.759C468.094 594.646 467.721 594.534 467.354 594.415C467.084 593.951 466.429 592.764 465.719 591.476C465.074 590.308 464.384 589.058 463.895 588.189C454.842 591.616 445.562 594.413 436.123 596.559C394.124 606.095 352.08 602.226 314.52 587.808L310.854 594.449C308.125 595.179 305.493 595.921 303.879 597.847C299.736 602.789 297.343 609.831 294.801 617.314C293.725 620.481 292.622 623.726 291.348 626.925C290.795 628.668 290.342 630.342 289.893 632.002C289.032 635.183 288.186 638.31 286.679 641.762C286.332 642.557 285.827 643.564 285.346 644.522C285.108 644.997 284.876 645.46 284.672 645.879C284.669 645.885 284.673 645.894 284.673 645.902C284.674 645.905 284.674 645.909 284.672 645.912C284.67 645.919 284.662 645.925 284.655 645.93C284.648 645.936 284.641 645.941 284.638 645.948C280.319 654.866 270.338 658.948 262.296 655.078C254.305 651.23 251.253 640.979 255.414 632.078C255.64 631.61 255.892 631.063 256.153 630.5C256.605 629.521 257.082 628.49 257.489 627.721C259.259 624.368 261.188 621.729 263.149 619.045C264.153 617.671 265.165 616.285 266.17 614.785C272.298 605.199 277.679 596.599 280.82 588.454C281.61 585.747 280.441 582.04 279.381 579.301L282.322 572.245C239.236 546.715 205.211 506.029 188.975 455.692L181.92 456.903C181.706 456.783 181.469 456.645 181.21 456.495C179.173 455.313 175.818 453.366 172.616 453.617C164.103 454.849 155.368 457.981 144.873 461.746L144.395 461.917C142.717 462.56 141.15 463.234 139.597 463.901C136.54 465.214 133.54 466.503 129.869 467.486C129.036 467.709 127.947 467.939 126.906 468.158C126.484 468.247 126.069 468.335 125.683 468.419C125.632 468.432 125.583 468.451 125.534 468.47C125.481 468.49 125.428 468.511 125.372 468.523C125.3 468.539 125.199 468.542 125.13 468.558C115.532 470.626 106.213 465.371 104.24 456.73C102.268 448.09 108.396 439.321 117.936 437.016C118.007 437 118.104 436.964 118.178 436.947L118.317 436.912C118.731 436.815 119.18 436.705 119.64 436.593C120.683 436.339 121.779 436.072 122.64 435.909C126.33 435.21 129.572 435.082 132.863 434.953C134.594 434.885 136.338 434.816 138.169 434.664L138.547 434.624C149.693 433.456 158.95 432.485 167.186 429.892C169.52 428.934 171.764 425.986 173.488 423.721C173.714 423.423 173.931 423.138 174.138 422.87L180.917 420.899C173.32 368.298 186.174 316.674 213.945 274.879L208.758 270.245C208.722 270.024 208.684 269.771 208.643 269.493C208.307 267.228 207.72 263.266 205.506 260.906C199.144 254.931 191.122 249.976 181.446 244.001L181.435 243.994C179.86 243.068 178.33 242.254 176.814 241.448C173.906 239.902 171.047 238.381 168.016 236.143C167.317 235.627 166.452 234.916 165.627 234.237C165.294 233.963 164.968 233.694 164.661 233.446C164.624 233.417 164.585 233.39 164.546 233.364C164.503 233.335 164.46 233.305 164.419 233.272C156.653 227.081 154.869 216.398 160.442 209.409C163.577 205.478 168.367 203.532 173.342 203.702C177.213 203.834 181.219 205.247 184.617 207.955C184.919 208.195 185.252 208.455 185.595 208.723C186.507 209.436 187.497 210.21 188.214 210.826C191.089 213.299 193.221 215.752 195.393 218.252C196.505 219.532 197.628 220.823 198.866 222.136L199.144 222.418C207.002 230.4 213.53 237.031 220.69 241.849C223.99 243.772 226.624 243.356 229.151 242.957C229.538 242.896 229.922 242.835 230.305 242.783C232.235 244.192 234.183 245.576 236.15 246.934C263.699 217.705 299.884 196.056 341.912 186.512C351.548 184.33 361.325 182.827 371.172 182.017L371.552 175.168C373.707 173.082 376.123 170.081 376.809 166.799C377.508 158.152 376.387 148.852 375.037 137.654L375.011 137.436C374.755 135.643 374.442 133.953 374.132 132.278C373.53 129.023 372.938 125.827 372.797 122.045C372.767 121.248 372.788 120.243 372.808 119.257C372.817 118.791 372.827 118.329 372.831 117.895C372.83 117.847 372.826 117.8 372.822 117.752C372.812 117.651 372.797 117.55 372.797 117.445ZM363.908 309.914L368.716 225.007C362.916 225.702 357.155 226.695 351.457 227.982C319.916 235.142 292.547 250.692 271.15 271.731L340.771 321.085L340.909 321.016C343.267 322.738 346.169 323.748 349.314 323.748C356.989 323.748 363.24 317.683 363.563 310.087L363.908 309.914ZM506.262 271.767C480.165 246.211 446.11 229.536 409.284 225.007L414.092 309.776L414.162 309.81C414.292 312.826 415.382 315.723 417.274 318.077C422.059 324.076 430.71 325.189 436.85 320.705L437.091 320.808L506.262 271.767ZM309.471 360.305L245.902 303.447C227.037 334.181 218.099 371.044 222.246 408.967L303.729 385.448L303.799 385.172C306.721 384.373 309.313 382.665 311.2 380.295C315.986 374.295 315.14 365.639 309.401 360.651L309.471 360.305ZM552.468 354.425C548.211 335.889 541.059 318.79 531.614 303.48V303.481L468.392 360.063L468.426 360.236C466.147 362.213 464.559 364.867 463.895 367.81C462.187 375.293 466.695 382.753 474.028 384.757L474.098 385.103L555.997 408.69C557.731 391.022 556.675 372.74 552.468 354.425ZM401.988 364.697H375.944L359.724 384.895L365.534 410.143L388.983 421.417L412.363 410.177L418.174 384.93L401.988 364.697ZM462.72 434.18C461.642 433.982 460.541 433.882 459.434 433.938C457.589 434.031 455.74 434.503 453.969 435.356C447.054 438.686 444.047 446.876 447.052 453.859L446.949 453.997L479.666 533.025C511.204 512.933 534.807 482.912 547.143 448.256L462.858 434.006L462.72 434.18ZM331.571 445.386C330.076 438.838 324.307 434.374 317.876 434.283C316.956 434.271 316.009 434.354 315.073 434.525L314.935 434.353L231.376 448.532C244.272 484.212 268.379 513.292 298.646 532.714L331.018 454.481L330.775 454.17C331.93 451.487 332.271 448.451 331.571 445.386ZM395.139 469.975C393.063 468.965 390.771 468.478 388.463 468.559L388.464 468.558C385.969 468.65 383.542 469.395 381.424 470.718C379.306 472.041 377.572 473.896 376.394 476.098H376.325L335.238 550.387C363.672 560.076 395.075 562.244 426.577 555.091C432.138 553.833 437.632 552.298 443.04 550.49L401.849 476.062H401.537C400.16 473.488 397.972 471.34 395.139 469.975Z" fill="#20244A"/>
  </svg>
  