<svg xmlns="http://www.w3.org/2000/svg" viewBox="0 0 13.95 13.74"><defs><style>.fdfc6b2e-2198-4e97-be0a-b053152baab9{fill:#22254f;}</style></defs><title>icon-blender</title><g id="f5e0366b-6fba-4d40-b7c0-2eafc048642a" data-name="圖層 2"><g id="b8be7854-8ad4-4b97-a676-09c01b62a1a4" data-name="圖層 1"><path class="fdfc6b2e-2198-4e97-be0a-b053152baab9" d="M8.43,3.31a.38.38,0,0,0-.15-.19C7.74,2.56,7.18,2,6.64,1.46A.84.84,0,0,1,6.54.33.78.78,0,0,1,7.67.18c.25.21.49.44.73.68,1.22,1.22,2.44,2.45,3.68,3.66A6.77,6.77,0,0,1,13.28,6a5.2,5.2,0,0,1-.61,6,5.13,5.13,0,0,1-4.16,1.8A5.22,5.22,0,0,1,3.58,9.22c0-.11,0-.22,0-.33s0-.12-.12-.05L3.21,9c-.59.59-1.18,1.18-1.78,1.76a.82.82,0,0,1-1.14.06A.81.81,0,0,1,.23,9.66L2.06,7.82C2.93,7,3.81,6.1,4.66,5.2c0,0,.13-.08.1-.16s-.11,0-.17,0H2.12a.8.8,0,0,1-.78-.78.81.81,0,0,1,.71-.85l.49,0H8.43Zm.3,8.1A2.92,2.92,0,1,0,5.82,8.48,2.91,2.91,0,0,0,8.73,11.41Z"/><path class="fdfc6b2e-2198-4e97-be0a-b053152baab9" d="M8.74,6.62A1.88,1.88,0,1,1,6.86,8.49,1.88,1.88,0,0,1,8.74,6.62Z"/></g></g></svg>