<?xml version="1.0" encoding="iso-8859-1"?>
<!-- Generator: Adobe Illustrator 19.0.0, SVG Export Plug-In . SVG Version: 6.00 Build 0)  -->
<svg version="1.1" id="&#x5716;&#x5C64;_1" xmlns="http://www.w3.org/2000/svg" xmlns:xlink="http://www.w3.org/1999/xlink" x="0px"
	 y="0px" viewBox="0 0 226.5 18.961" style="enable-background:new 0 0 226.5 18.961;" xml:space="preserve">
<g id="XMLID_9_">
	<g id="XMLID_1_">
		<path id="XMLID_144_" style="fill:#6ABF9E;" d="M3.912,11.09c0-0.594-0.108-0.756-0.756-0.756H2.67
			c-0.18,0-0.504-0.036-0.504-0.396c0-0.378,0.342-0.414,0.504-0.414h1.477c1.224,0,1.638,0.469,1.638,1.423v4.033
			c0.324,2.125,2.269,2.269,4.213,2.269h8.3c0.18,0,0.504,0.036,0.504,0.396c0,0.378-0.342,0.414-0.504,0.414H9.53
			c-1.962,0-3.673,0-4.79-1.729c-0.144,0.198-0.918,1.152-1.458,1.674c-0.162,0.145-0.324,0.234-0.541,0.234
			c-0.378,0-0.756-0.324-0.756-0.954c0-0.324,0.108-0.576,0.432-0.756c0.504-0.289,1.134-0.667,1.494-0.955V11.09z M4.758,6.823
			c-0.558,0-0.63-0.198-1.206-1.801C3.444,4.734,3.012,3.762,2.4,2.807c-0.126-0.18-0.126-0.234-0.126-0.306
			c0-0.252,0.198-0.396,0.414-0.396c0.27,0,1.152,0.9,1.44,1.207c0.684,0.702,1.71,1.836,1.71,2.395
			C5.839,6.373,5.281,6.823,4.758,6.823z M7.531,5.4H6.595c-0.162,0-0.504-0.036-0.504-0.414s0.324-0.414,0.504-0.414h1.638V2.771
			c0-0.882,0.63-0.954,0.882-0.954c0.126,0,0.882,0,0.882,0.954v1.801h1.404c0.162,0,0.504,0.036,0.504,0.414
			c0,0.36-0.324,0.414-0.504,0.414H9.242v2.377h1.278c1.351,0,1.351,0.811,1.351,1.17c0,1.369-0.108,4.321-0.36,5.582
			c-0.324,1.53-1.009,1.639-1.891,1.639H8.503C8.359,16.168,8,16.132,8,15.754c0-0.324,0.288-0.414,0.504-0.414h0.594
			c0.594,0,0.774-0.288,0.882-0.9c0.234-1.423,0.324-4.033,0.324-5.528c0-0.306-0.216-0.306-0.36-0.306h-0.72
			c-0.018,1.206-0.072,3.781-1.729,6.302c-0.234,0.342-0.594,0.9-0.882,0.9c-0.234,0-0.415-0.198-0.415-0.414
			c0-0.126,0.396-0.9,0.468-1.08C7.459,12.387,7.531,11,7.531,8.065V5.4z M18.083,4.14c0.18,0,0.504,0.036,0.504,0.414
			c0,0.36-0.342,0.414-0.504,0.414h-4.321c-0.378,0.468-1.531,2.035-1.945,2.035c-0.234,0-0.414-0.198-0.414-0.414
			c0-0.145,0.54-1.044,0.648-1.242c0.432-0.882,0.702-1.819,0.972-2.773c0.162-0.576,0.45-0.756,0.918-0.756
			c0.558,0,1.062,0.324,1.062,0.846c0,0.378-0.252,0.792-0.684,1.477H18.083z M14.157,10.082c0-0.396,0-1.044,0.882-1.044
			c0.108,0,0.18,0.018,0.252,0.035c0.396-0.72,0.558-1.152,0.558-1.26c0-0.181-0.162-0.181-0.234-0.181h-2.629
			c-0.162,0-0.504-0.054-0.504-0.414c0-0.359,0.324-0.414,0.504-0.414h4.195c0.414,0,0.828,0.162,0.828,0.612
			c0,0.54-1.512,1.98-2.07,2.503v0.864h2.125c0.162,0,0.504,0.036,0.504,0.414s-0.36,0.414-0.504,0.414H15.94v3.115
			c0,0.828-0.234,1.494-1.603,1.494h-1.44c-0.144,0-0.54,0-0.54-0.414c0-0.414,0.396-0.414,0.54-0.414h0.504
			c0.63,0,0.756-0.145,0.756-0.756v-3.025h-1.656c-0.144,0-0.504-0.036-0.504-0.414c0-0.36,0.324-0.414,0.504-0.414h1.656V10.082z"
			/>
		<path id="XMLID_150_" style="fill:#6ABF9E;" d="M30.409,5.724h-0.846c-0.63,0-0.738,0.144-0.738,0.756v2.737
			c0,0.198-0.018,0.666-0.036,1.225h6.608c0.162,0,0.504,0.054,0.504,0.414c0,0.359-0.324,0.414-0.504,0.414h-6.662
			c-0.234,2.269-0.828,4.843-1.908,6.536c-0.162,0.252-0.252,0.27-0.396,0.27c-0.252,0-0.414-0.198-0.414-0.432
			c0-0.055,0.036-0.162,0.072-0.271c0.774-1.963,0.936-4.951,0.936-7.112V6.373c0-0.847,0.306-1.423,1.639-1.423h2.035V2.844
			c0-0.414,0.144-0.972,0.864-0.972c0.846,0,0.846,0.738,0.846,1.134h2.647c0.162,0,0.468,0.036,0.468,0.378
			c0,0.342-0.288,0.396-0.468,0.396h-2.647v1.17h2.359c0.9,0,1.422,0.486,1.422,1.242v0.45c0,0.378-0.126,0.9-0.811,0.9
			c-0.72,0-0.792-0.612-0.792-0.9V6.175c0-0.198-0.054-0.45-0.432-0.45h-2.017V7.02l1.692-0.144c0.288-0.018,0.504,0.09,0.504,0.378
			c0,0.271-0.216,0.378-0.432,0.396l-1.765,0.144v0.559c0,0.576,0.126,0.666,0.666,0.666h0.846c0.522,0,0.576-0.144,0.702-0.432
			c0.054-0.162,0.18-0.433,0.612-0.433s0.828,0.324,0.828,0.685c0,0.288-0.27,0.594-0.558,0.738c-0.144,0.09-0.342,0.18-1.098,0.18
			h-2.25c-0.991,0-1.477-0.324-1.477-1.261v-0.54l-0.918,0.072c-0.252,0.018-0.504-0.072-0.504-0.378
			c0-0.36,0.324-0.378,0.432-0.396l0.99-0.09V5.724z M29.257,13.358c0-0.972,0.54-1.26,1.458-1.26h3.187
			c0.99,0,1.458,0.342,1.458,1.26v0.469c0,0.504-0.108,1.116-1.008,1.242c0.054,0.072,0.198,0.234,0.198,0.504
			c0,0.414-0.648,0.919-0.846,1.081c0.234-0.019,1.458-0.217,1.494-0.217c0.252,0,0.415,0.217,0.415,0.414
			c0,0.288-0.252,0.379-0.324,0.396c-1.063,0.36-5.654,1.063-6.302,1.063c-0.378,0-0.612-0.36-0.612-0.666
			c0-0.181,0.09-0.414,0.288-0.505c0.162-0.071,0.414-0.107,1.98-0.18c-0.216-0.09-0.234-0.162-0.504-0.918
			c-0.036-0.126-0.216-0.595-0.216-0.666c0-0.198,0.126-0.289,0.18-0.324c-0.702-0.181-0.846-0.702-0.846-1.225V13.358z
			 M30.679,15.105c0.198,0.126,1.062,0.685,1.062,1.152c0,0.18-0.09,0.486-0.378,0.648c0.09,0,0.918-0.072,1.351-0.126
			c-0.036-0.091-0.036-0.126-0.036-0.181c0-0.054,0.36-1.386,0.414-1.494H30.679z M33.74,13.449c0-0.343-0.09-0.54-0.504-0.54
			h-1.818c-0.342,0-0.522,0.107-0.522,0.54v0.288c0,0.342,0.09,0.54,0.522,0.54h1.818c0.324,0,0.504-0.108,0.504-0.54V13.449z
			 M36.387,8.678c-0.504,0.054-0.54-0.307-0.54-0.378c0-0.127,0.072-0.379,0.45-0.433l0.684-0.09
			c-0.054-1.368-0.072-2.503-0.072-4.231c0-1.044,0-1.17,0.162-1.368c0.144-0.162,0.396-0.306,0.738-0.306
			c0.378,0,0.756,0.18,0.864,0.558c0.036,0.162,0.072,4.304,0.126,5.113l3.277-0.432c0.486-0.072,0.54,0.306,0.54,0.378
			c0,0.252-0.18,0.396-0.432,0.432l-3.349,0.433c0.144,1.854,0.252,2.862,0.486,4.123c0.576-1.188,0.648-1.351,1.116-2.809
			c0.09-0.252,0.198-0.63,0.81-0.63c0.559,0,1.009,0.414,1.009,0.863c0,0.324-0.648,2.251-2.413,4.609
			c0.396,1.135,1.044,1.945,1.261,1.945c0.216,0,0.324-0.45,0.414-0.793c0.162-0.666,0.252-0.99,0.756-0.99
			c0.432,0,0.811,0.307,0.811,0.738c0,0.307-0.63,2.972-2.125,2.972c-1.206,0-2.07-1.567-2.448-2.323
			c-1.639,1.639-2.863,2.431-3.097,2.431c-0.216,0-0.414-0.162-0.414-0.414c0-0.18,0.108-0.288,0.216-0.378
			c1.351-1.152,2.125-2.125,2.773-3.025c-0.63-1.98-0.864-4.321-0.972-6.067L36.387,8.678z M42.509,4.968
			c0,0.558-0.522,0.991-1.026,0.991c-0.576,0-0.648-0.234-1.063-1.495c-0.09-0.252-0.594-1.422-0.594-1.513
			c0-0.234,0.216-0.396,0.415-0.396C40.582,2.555,42.509,4.302,42.509,4.968z"/>
		<path id="XMLID_157_" style="fill:#6ABF9E;" d="M56.834,4.896c0.162,0,0.504,0.054,0.504,0.414c0,0.378-0.342,0.414-0.504,0.414
			h-5.942c-0.18,0-0.504-0.054-0.504-0.414c0-0.378,0.342-0.414,0.504-0.414H56.834z M56.69,16.636c0,1.026-0.504,1.423-1.639,1.423
			h-2.467c-1.26,0-1.621-0.522-1.621-1.423v-2.755c0-0.972,0.415-1.422,1.621-1.422h2.467c1.333,0,1.639,0.576,1.639,1.422V16.636z
			 M56.186,2.357c0.198,0,0.504,0.054,0.504,0.414c0,0.36-0.324,0.415-0.504,0.415h-4.681C51.324,3.186,51,3.132,51,2.771
			c0-0.36,0.342-0.414,0.504-0.414H56.186z M56.186,7.453c0.198,0,0.504,0.054,0.504,0.396c0,0.378-0.342,0.414-0.504,0.414h-4.681
			C51.324,8.264,51,8.209,51,7.849c0-0.343,0.324-0.396,0.504-0.396H56.186z M56.186,9.973c0.198,0,0.504,0.055,0.504,0.396
			c0,0.378-0.342,0.414-0.504,0.414h-4.681c-0.18,0-0.504-0.054-0.504-0.414c0-0.342,0.324-0.396,0.504-0.396H56.186z
			 M54.925,14.025c0-0.612-0.126-0.757-0.756-0.757h-0.594c-0.63,0-0.738,0.145-0.738,0.757v2.448c0,0.612,0.108,0.757,0.738,0.757
			h0.594c0.648,0,0.756-0.145,0.756-0.757V14.025z M57.698,10.496c-0.162,0-0.504-0.036-0.504-0.396c0-0.396,0.36-0.414,0.504-0.414
			h7.166c0.72,0,1.098,0.469,1.098,0.9c0,0.271-0.522,2.629-2.683,4.735c1.17,1.009,2.017,1.459,3.475,2.232
			c0.144,0.072,0.288,0.145,0.288,0.396c0,0.18-0.126,0.396-0.432,0.396c-0.108,0-2.25-0.54-4.412-2.107
			c-2.466,1.729-4.825,2.197-4.915,2.197c-0.252,0-0.414-0.216-0.414-0.414c0-0.288,0.234-0.378,0.342-0.414
			c1.477-0.559,2.611-1.099,3.889-2.232c-2.053-1.891-2.431-3.205-2.431-3.565c0-0.648,0.648-0.937,1.116-0.937
			c0.45,0,0.738,0.198,0.937,0.702c0.342,0.9,0.63,1.621,1.476,2.629c0.721-0.937,1.585-2.665,1.585-3.403
			c0-0.162-0.09-0.306-0.342-0.306H57.698z M58.778,3.69c0-0.846,0.306-1.386,1.566-1.386h2.305c1.333,0,1.549,0.612,1.549,1.386
			v3.205c0,0.667,0.198,0.667,0.774,0.667c0.27,0,0.414-0.145,0.486-0.793c0.072-0.684,0.144-1.17,0.81-1.17
			c0.414,0,0.846,0.234,0.846,0.72c0,0.631-0.162,2.071-1.656,2.071h-1.495c-1.35,0-1.566-0.631-1.566-1.387V3.852
			c0-0.63-0.144-0.72-0.738-0.72h-0.324c-0.63,0-0.648,0.162-0.666,0.99c-0.054,1.387-0.252,3.547-2.611,4.754
			c-0.306,0.144-0.396,0.18-0.486,0.18c-0.198,0-0.396-0.18-0.396-0.414c0-0.198,0.09-0.271,0.288-0.45
			c1.17-0.99,1.314-2.215,1.314-3.925V3.69z"/>
		<path id="XMLID_166_" style="fill:#6ABF9E;" d="M82.178,4.896c0.181,0,0.504,0.054,0.504,0.414s-0.342,0.414-0.504,0.414h-7.094
			c-0.198,0-0.505-0.072-0.505-0.414c0-0.378,0.324-0.414,0.505-0.414H82.178z M82.034,16.618c0,1.026-0.522,1.422-1.639,1.422
			h-3.512c-1.332,0-1.62-0.576-1.62-1.422v-2.665c0-1.026,0.486-1.423,1.62-1.423h3.512c1.225,0,1.639,0.469,1.639,1.423V16.618z
			 M81.476,2.357c0.162,0,0.504,0.054,0.504,0.414c0,0.378-0.342,0.415-0.504,0.415H75.84c-0.18,0-0.504-0.054-0.504-0.415
			c0-0.36,0.342-0.414,0.504-0.414H81.476z M81.476,7.435c0.162,0,0.504,0.035,0.504,0.414c0,0.378-0.359,0.414-0.504,0.414H75.84
			c-0.18,0-0.504-0.055-0.504-0.414c0-0.379,0.342-0.414,0.504-0.414H81.476z M81.476,9.973c0.18,0,0.504,0.055,0.504,0.414
			c0,0.379-0.359,0.414-0.504,0.414H75.84c-0.18,0-0.504-0.054-0.504-0.414c0-0.359,0.324-0.414,0.504-0.414H81.476z M80.144,14.097
			c0-0.594-0.108-0.738-0.738-0.738h-1.513c-0.648,0-0.756,0.162-0.756,0.738v2.359c0,0.594,0.107,0.756,0.756,0.756h1.513
			c0.648,0,0.738-0.162,0.738-0.756V14.097z M87.976,17.158c0,0.36,0,1.26-0.973,1.26c-0.99,0-0.99-0.882-0.99-1.26V8.552h-3.061
			c-0.18,0-0.504-0.055-0.504-0.414c0-0.36,0.342-0.414,0.504-0.414h3.061V3.059c0-0.36,0-1.278,0.973-1.278
			c0.99,0,0.99,0.882,0.99,1.278v4.664h2.646c0.181,0,0.505,0.054,0.505,0.414c0,0.378-0.324,0.414-0.505,0.414h-2.646V17.158z"/>
	</g>
	<g id="XMLID_3_">
		<path id="XMLID_95_" style="fill:#4D4D4D;" d="M115.115,9.781h-3.006c-0.368,0-0.63-0.164-0.784-0.493
			c-0.061-0.127-0.09-0.254-0.09-0.382c0-0.201,0.063-0.382,0.19-0.543l2.785-3.528c0.181-0.228,0.271-0.489,0.271-0.784
			c0-0.342-0.126-0.637-0.377-0.885c-0.252-0.248-0.559-0.372-0.92-0.372c-0.362,0-0.673,0.127-0.931,0.382
			c-0.258,0.255-0.387,0.566-0.387,0.935v0.462h-0.623V4.111c0-0.536,0.189-0.994,0.567-1.372c0.379-0.378,0.836-0.568,1.373-0.568
			c0.529,0,0.981,0.186,1.356,0.558c0.376,0.372,0.563,0.816,0.563,1.332c0,0.429-0.135,0.814-0.402,1.156l-2.795,3.528
			c-0.066,0.087-0.077,0.178-0.03,0.271c0.047,0.094,0.124,0.141,0.231,0.141h3.006V9.781z"/>
		<path id="XMLID_97_" style="fill:#4D4D4D;" d="M119.888,7.951c0,0.536-0.189,0.994-0.568,1.372
			c-0.379,0.379-0.836,0.568-1.372,0.568s-0.994-0.189-1.372-0.568c-0.379-0.378-0.568-0.836-0.568-1.372v-3.84
			c0-0.536,0.189-0.994,0.568-1.372c0.378-0.378,0.836-0.568,1.372-0.568s0.993,0.189,1.372,0.568s0.568,0.836,0.568,1.372V7.951z
			 M119.264,7.951v-3.84c0-0.369-0.129-0.68-0.387-0.935c-0.258-0.254-0.568-0.382-0.93-0.382c-0.362,0-0.672,0.127-0.93,0.382
			c-0.259,0.255-0.388,0.566-0.388,0.935v3.84c0,0.369,0.129,0.68,0.388,0.935c0.258,0.254,0.567,0.382,0.93,0.382
			c0.361,0,0.672-0.127,0.93-0.382C119.135,8.632,119.264,8.32,119.264,7.951z"/>
		<path id="XMLID_100_" style="fill:#4D4D4D;" d="M122.871,9.781h-0.624V3.146c0-0.188-0.09-0.282-0.271-0.282h-0.733V2.251h0.733
			c0.248,0,0.459,0.087,0.634,0.262c0.174,0.174,0.262,0.385,0.262,0.633V9.781z"/>
		<path id="XMLID_102_" style="fill:#4D4D4D;" d="M128.542,7.951c0,0.529-0.189,0.985-0.568,1.367s-0.836,0.573-1.372,0.573
			c-0.529,0-0.985-0.191-1.367-0.573s-0.573-0.838-0.573-1.367V7.66c0-0.704,0.298-1.247,0.895-1.628
			c-0.597-0.382-0.895-0.925-0.895-1.629V4.111c0-0.536,0.189-0.994,0.568-1.372c0.378-0.378,0.836-0.568,1.372-0.568
			s0.993,0.189,1.372,0.568s0.568,0.836,0.568,1.372v0.292c0,0.704-0.299,1.247-0.896,1.629c0.597,0.382,0.896,0.925,0.896,1.628
			V7.951z M127.918,4.403V4.111c0-0.369-0.129-0.68-0.387-0.935c-0.258-0.254-0.568-0.382-0.93-0.382
			c-0.362,0-0.672,0.127-0.93,0.382c-0.259,0.255-0.388,0.566-0.388,0.935v0.292c0,0.362,0.129,0.672,0.388,0.93
			c0.258,0.258,0.567,0.387,0.93,0.387c0.361,0,0.672-0.129,0.93-0.387C127.789,5.075,127.918,4.764,127.918,4.403z M127.918,7.951
			V7.66c0-0.362-0.129-0.672-0.387-0.93c-0.258-0.258-0.568-0.387-0.93-0.387c-0.362,0-0.672,0.129-0.93,0.387
			c-0.259,0.258-0.388,0.568-0.388,0.93v0.292c0,0.362,0.129,0.672,0.388,0.93c0.258,0.258,0.567,0.387,0.93,0.387
			c0.361,0,0.672-0.129,0.93-0.387C127.789,8.623,127.918,8.313,127.918,7.951z"/>
		<path id="XMLID_106_" style="fill:#4D4D4D;" d="M138.766,6.021c0,1.059-0.376,1.964-1.126,2.714
			c-0.751,0.75-1.655,1.126-2.715,1.126c-1.059,0-1.964-0.375-2.714-1.126c-0.751-0.75-1.126-1.655-1.126-2.714
			s0.375-1.964,1.126-2.714c0.75-0.75,1.655-1.126,2.714-1.126c0.791,0,1.51,0.22,2.156,0.659c0.647,0.439,1.114,1.017,1.403,1.734
			h-0.674c-0.275-0.543-0.671-0.975-1.187-1.297c-0.516-0.321-1.082-0.482-1.699-0.482c-0.891,0-1.65,0.315-2.276,0.945
			c-0.627,0.63-0.94,1.391-0.94,2.282c0,0.885,0.313,1.642,0.94,2.272c0.626,0.63,1.386,0.945,2.276,0.945
			c0.812,0,1.517-0.266,2.116-0.799c0.6-0.533,0.953-1.198,1.061-1.995c0.007-0.074-0.026-0.111-0.101-0.111h-3.065V5.71h3.83V6.021
			z"/>
		<path id="XMLID_108_" style="fill:#4D4D4D;" d="M145.468,9.781h-0.624V8.866c0-0.02-0.01-0.033-0.029-0.04
			c-0.021-0.006-0.037-0.003-0.051,0.01c-0.59,0.684-1.327,1.025-2.212,1.025c-0.804,0-1.491-0.285-2.061-0.854
			c-0.569-0.57-0.854-1.257-0.854-2.061s0.285-1.491,0.854-2.061c0.569-0.569,1.257-0.854,2.061-0.854
			c0.805,0,1.491,0.283,2.062,0.85c0.569,0.566,0.854,1.255,0.854,2.066V9.781z M144.844,6.946c0-0.637-0.225-1.18-0.673-1.628
			c-0.449-0.449-0.989-0.674-1.619-0.674s-1.171,0.225-1.623,0.674c-0.452,0.449-0.679,0.992-0.679,1.628
			c0,0.63,0.225,1.169,0.674,1.619c0.448,0.449,0.991,0.673,1.628,0.673s1.178-0.224,1.624-0.673
			C144.621,8.116,144.844,7.576,144.844,6.946z"/>
		<path id="XMLID_111_" style="fill:#4D4D4D;" d="M153.762,9.781h-0.613v-3.82c0-0.362-0.129-0.671-0.387-0.93
			c-0.258-0.258-0.571-0.387-0.94-0.387c-0.361,0-0.672,0.129-0.93,0.387c-0.258,0.258-0.387,0.568-0.387,0.93v3.82h-0.613v-3.82
			c0-0.362-0.129-0.671-0.387-0.93c-0.259-0.258-0.568-0.387-0.931-0.387c-0.368,0-0.682,0.129-0.939,0.387
			c-0.258,0.258-0.388,0.568-0.388,0.93v3.82h-0.612v-3.82c0-0.536,0.188-0.992,0.567-1.367c0.379-0.375,0.836-0.563,1.372-0.563
			c0.704,0,1.243,0.295,1.619,0.885c0.389-0.589,0.931-0.885,1.628-0.885c0.536,0,0.994,0.188,1.372,0.563
			c0.379,0.375,0.568,0.831,0.568,1.367V9.781z"/>
		<path id="XMLID_113_" style="fill:#4D4D4D;" d="M160.632,7.258h-5.066c-0.08,0-0.114,0.037-0.101,0.111
			c0.101,0.536,0.362,0.982,0.784,1.337c0.422,0.355,0.911,0.533,1.468,0.533c0.462,0,0.885-0.125,1.267-0.377
			s0.663-0.588,0.845-1.01h0.663c-0.194,0.597-0.548,1.081-1.061,1.453s-1.084,0.558-1.714,0.558c-0.805,0-1.491-0.285-2.061-0.854
			c-0.57-0.57-0.854-1.257-0.854-2.061s0.284-1.491,0.854-2.061c0.569-0.569,1.256-0.854,2.061-0.854
			c0.804,0,1.491,0.285,2.061,0.854c0.569,0.57,0.854,1.257,0.854,2.061V7.258z M159.969,6.514
			c-0.101-0.536-0.364-0.982-0.789-1.337c-0.426-0.355-0.914-0.533-1.463-0.533c-0.55,0-1.037,0.178-1.463,0.533
			c-0.426,0.355-0.688,0.801-0.789,1.337c-0.014,0.08,0.021,0.121,0.101,0.121h4.303C159.948,6.635,159.981,6.594,159.969,6.514z"/>
		<path id="XMLID_116_" style="fill:#4D4D4D;" d="M167.348,4.292c0,0.563-0.198,1.042-0.594,1.438s-0.874,0.593-1.438,0.593h-1.407
			c-0.08,0-0.121,0.04-0.121,0.121v3.337h-0.612v-7.53h2.141c0.563,0,1.042,0.2,1.438,0.598
			C167.149,3.248,167.348,3.729,167.348,4.292z M166.734,4.292c0-0.396-0.138-0.73-0.412-1.005c-0.275-0.275-0.61-0.412-1.006-0.412
			h-1.407c-0.08,0-0.121,0.04-0.121,0.121v2.594c0,0.08,0.041,0.121,0.121,0.121h1.407c0.396,0,0.73-0.139,1.006-0.417
			C166.597,5.014,166.734,4.681,166.734,4.292z"/>
		<path id="XMLID_119_" style="fill:#4D4D4D;" d="M170.449,4.644h-0.402c-0.361,0-0.672,0.129-0.93,0.387
			c-0.258,0.258-0.387,0.568-0.387,0.93v3.82h-0.623v-3.82c0-0.529,0.188-0.983,0.567-1.362c0.379-0.379,0.836-0.568,1.372-0.568
			h0.402V4.644z"/>
		<path id="XMLID_121_" style="fill:#4D4D4D;" d="M176.7,6.946c0,0.804-0.285,1.491-0.854,2.061
			c-0.569,0.569-1.257,0.854-2.061,0.854c-0.805,0-1.491-0.285-2.061-0.854c-0.57-0.57-0.854-1.257-0.854-2.061
			s0.284-1.491,0.854-2.061c0.569-0.569,1.256-0.854,2.061-0.854c0.804,0,1.491,0.285,2.061,0.854
			C176.415,5.455,176.7,6.142,176.7,6.946z M176.087,6.946c0-0.637-0.225-1.18-0.674-1.628c-0.448-0.449-0.991-0.674-1.628-0.674
			c-0.63,0-1.171,0.225-1.624,0.674c-0.452,0.449-0.679,0.992-0.679,1.628c0,0.63,0.225,1.169,0.674,1.619s0.992,0.673,1.629,0.673
			s1.18-0.224,1.628-0.673C175.862,8.116,176.087,7.576,176.087,6.946z"/>
		<path id="XMLID_124_" style="fill:#4D4D4D;" d="M183.417,8.776c0,0.804-0.285,1.491-0.854,2.061
			c-0.569,0.569-1.257,0.854-2.061,0.854h-0.563v-0.624h0.563c0.616,0,1.146-0.213,1.588-0.638c0.442-0.426,0.677-0.943,0.704-1.553
			c0.007-0.027-0.004-0.043-0.03-0.05c-0.021-0.013-0.037-0.01-0.05,0.01c-0.59,0.684-1.327,1.025-2.212,1.025
			c-0.805,0-1.491-0.285-2.061-0.854c-0.57-0.57-0.854-1.257-0.854-2.061s0.284-1.491,0.854-2.061
			c0.569-0.569,1.256-0.854,2.061-0.854c0.804,0,1.491,0.285,2.061,0.854c0.569,0.57,0.854,1.257,0.854,2.061V8.776z M182.804,6.946
			c0-0.637-0.225-1.18-0.674-1.628c-0.448-0.449-0.991-0.674-1.628-0.674c-0.63,0-1.171,0.225-1.624,0.674
			c-0.452,0.449-0.679,0.992-0.679,1.628c0,0.63,0.225,1.169,0.674,1.619s0.992,0.673,1.629,0.673s1.18-0.224,1.628-0.673
			C182.579,8.116,182.804,7.576,182.804,6.946z"/>
		<path id="XMLID_127_" style="fill:#4D4D4D;" d="M186.916,4.644h-0.402c-0.362,0-0.672,0.129-0.93,0.387
			c-0.259,0.258-0.388,0.568-0.388,0.93v3.82h-0.623v-3.82c0-0.529,0.189-0.983,0.568-1.362c0.378-0.379,0.836-0.568,1.372-0.568
			h0.402V4.644z"/>
		<path id="XMLID_129_" style="fill:#4D4D4D;" d="M193.167,9.781h-0.624V8.866c0-0.02-0.01-0.033-0.029-0.04
			c-0.021-0.006-0.037-0.003-0.051,0.01c-0.59,0.684-1.327,1.025-2.212,1.025c-0.804,0-1.491-0.285-2.061-0.854
			c-0.569-0.57-0.854-1.257-0.854-2.061s0.285-1.491,0.854-2.061c0.569-0.569,1.257-0.854,2.061-0.854
			c0.805,0,1.491,0.283,2.062,0.85c0.569,0.566,0.854,1.255,0.854,2.066V9.781z M192.543,6.946c0-0.637-0.225-1.18-0.673-1.628
			c-0.449-0.449-0.989-0.674-1.619-0.674s-1.171,0.225-1.623,0.674c-0.452,0.449-0.679,0.992-0.679,1.628
			c0,0.63,0.225,1.169,0.674,1.619c0.448,0.449,0.991,0.673,1.628,0.673s1.178-0.224,1.624-0.673
			C192.32,8.116,192.543,7.576,192.543,6.946z"/>
		<path id="XMLID_132_" style="fill:#4D4D4D;" d="M201.461,9.781h-0.613v-3.82c0-0.362-0.129-0.671-0.387-0.93
			c-0.258-0.258-0.571-0.387-0.94-0.387c-0.361,0-0.672,0.129-0.93,0.387c-0.258,0.258-0.387,0.568-0.387,0.93v3.82h-0.613v-3.82
			c0-0.362-0.129-0.671-0.387-0.93c-0.259-0.258-0.568-0.387-0.931-0.387c-0.368,0-0.682,0.129-0.939,0.387
			c-0.258,0.258-0.388,0.568-0.388,0.93v3.82h-0.612v-3.82c0-0.536,0.188-0.992,0.567-1.367c0.379-0.375,0.836-0.563,1.372-0.563
			c0.704,0,1.243,0.295,1.619,0.885c0.389-0.589,0.931-0.885,1.628-0.885c0.536,0,0.994,0.188,1.372,0.563
			c0.379,0.375,0.568,0.831,0.568,1.367V9.781z"/>
		<path id="XMLID_134_" style="fill:#4D4D4D;" d="M209.787,9.781h-0.613v-3.82c0-0.362-0.13-0.671-0.388-0.93
			c-0.258-0.258-0.571-0.387-0.939-0.387c-0.362,0-0.672,0.129-0.93,0.387c-0.259,0.258-0.388,0.568-0.388,0.93v3.82h-0.613v-3.82
			c0-0.362-0.129-0.671-0.387-0.93c-0.258-0.258-0.568-0.387-0.93-0.387c-0.369,0-0.683,0.129-0.94,0.387
			c-0.258,0.258-0.387,0.568-0.387,0.93v3.82h-0.613v-3.82c0-0.536,0.189-0.992,0.568-1.367c0.378-0.375,0.836-0.563,1.372-0.563
			c0.703,0,1.243,0.295,1.618,0.885c0.389-0.589,0.932-0.885,1.629-0.885c0.536,0,0.993,0.188,1.372,0.563
			c0.379,0.375,0.568,0.831,0.568,1.367V9.781z"/>
		<path id="XMLID_136_" style="fill:#4D4D4D;" d="M211.671,3.186h-0.624V2.251h0.624V3.186z M211.671,9.781h-0.624V4.152h0.624
			V9.781z"/>
		<path id="XMLID_139_" style="fill:#4D4D4D;" d="M217.425,9.781h-0.613V6.273c0-0.449-0.16-0.833-0.478-1.151
			c-0.318-0.318-0.702-0.478-1.151-0.478s-0.835,0.16-1.156,0.478c-0.321,0.318-0.482,0.702-0.482,1.151v3.508h-0.613V6.273
			c0-0.617,0.22-1.145,0.658-1.583c0.439-0.439,0.971-0.659,1.594-0.659c0.616,0,1.145,0.22,1.583,0.659
			c0.439,0.439,0.659,0.967,0.659,1.583V9.781z"/>
		<path id="XMLID_141_" style="fill:#4D4D4D;" d="M224.281,8.776c0,0.804-0.285,1.491-0.854,2.061
			c-0.569,0.569-1.257,0.854-2.061,0.854h-0.563v-0.624h0.563c0.616,0,1.146-0.213,1.588-0.638c0.442-0.426,0.677-0.943,0.704-1.553
			c0.007-0.027-0.004-0.043-0.03-0.05c-0.021-0.013-0.037-0.01-0.05,0.01c-0.59,0.684-1.327,1.025-2.212,1.025
			c-0.805,0-1.491-0.285-2.061-0.854c-0.57-0.57-0.854-1.257-0.854-2.061s0.284-1.491,0.854-2.061
			c0.569-0.569,1.256-0.854,2.061-0.854c0.804,0,1.491,0.285,2.061,0.854c0.569,0.57,0.854,1.257,0.854,2.061V8.776z M223.668,6.946
			c0-0.637-0.225-1.18-0.674-1.628c-0.448-0.449-0.991-0.674-1.628-0.674c-0.63,0-1.171,0.225-1.624,0.674
			c-0.452,0.449-0.679,0.992-0.679,1.628c0,0.63,0.225,1.169,0.674,1.619s0.992,0.673,1.629,0.673s1.18-0.224,1.628-0.673
			C223.443,8.116,223.668,7.576,223.668,6.946z"/>
	</g>
	<g id="XMLID_4_">
		<path id="XMLID_71_" style="fill:#4D4D4D;" d="M113.289,18.717c0.229,0,0.433-0.04,0.612-0.119s0.332-0.189,0.457-0.33
			s0.221-0.307,0.286-0.498c0.066-0.19,0.1-0.396,0.1-0.618V14.22h0.342v2.932c0,0.262-0.042,0.506-0.124,0.732
			c-0.083,0.227-0.202,0.425-0.357,0.593c-0.155,0.169-0.344,0.302-0.566,0.397c-0.222,0.096-0.472,0.145-0.749,0.145
			c-0.276,0-0.526-0.049-0.748-0.145c-0.223-0.096-0.411-0.229-0.566-0.397c-0.155-0.168-0.274-0.366-0.357-0.593
			c-0.082-0.227-0.124-0.471-0.124-0.732V14.22h0.346v2.929c0,0.221,0.032,0.427,0.099,0.618c0.065,0.191,0.161,0.356,0.285,0.498
			c0.124,0.141,0.275,0.251,0.455,0.331C112.857,18.677,113.062,18.717,113.289,18.717z"/>
		<path id="XMLID_73_" style="fill:#4D4D4D;" d="M116.986,14.231c0.018,0.008,0.037,0.025,0.057,0.052l3.069,4.108
			c-0.006-0.067-0.01-0.132-0.01-0.194V14.22h0.302v4.741h-0.164c-0.052,0-0.093-0.022-0.124-0.066l-3.083-4.115
			c0.007,0.066,0.01,0.131,0.01,0.19v3.991h-0.298V14.22h0.167C116.943,14.22,116.969,14.223,116.986,14.231z"/>
		<path id="XMLID_75_" style="fill:#4D4D4D;" d="M122.509,18.961h-0.346V14.22h0.346V18.961z"/>
		<path id="XMLID_77_" style="fill:#4D4D4D;" d="M127.397,14.22v0.291h-1.665v4.45h-0.342v-4.45h-1.676V14.22H127.397z"/>
		<path id="XMLID_79_" style="fill:#4D4D4D;" d="M130.295,17.004v1.957h-0.345v-1.957l-1.753-2.784h0.298
			c0.031,0,0.057,0.007,0.076,0.021c0.019,0.015,0.037,0.035,0.055,0.063l1.357,2.178c0.031,0.052,0.058,0.102,0.08,0.149
			s0.043,0.097,0.061,0.146c0.018-0.049,0.038-0.098,0.061-0.146s0.049-0.098,0.08-0.149l1.354-2.178
			c0.014-0.025,0.03-0.045,0.051-0.061s0.046-0.023,0.077-0.023h0.302L130.295,17.004z"/>
		<path id="XMLID_81_" style="fill:#4D4D4D;" d="M137.841,18.164c0.022,0,0.042,0.008,0.058,0.023l0.134,0.144
			c-0.099,0.105-0.206,0.199-0.322,0.283c-0.115,0.084-0.242,0.155-0.38,0.215c-0.138,0.059-0.288,0.104-0.452,0.137
			c-0.164,0.033-0.345,0.049-0.541,0.049c-0.329,0-0.63-0.058-0.903-0.173c-0.273-0.114-0.509-0.277-0.704-0.489
			c-0.195-0.211-0.348-0.466-0.457-0.766c-0.109-0.299-0.164-0.632-0.164-0.998c0-0.359,0.056-0.688,0.169-0.985
			s0.271-0.553,0.476-0.766c0.205-0.214,0.449-0.379,0.734-0.496c0.284-0.117,0.599-0.176,0.943-0.176
			c0.172,0,0.329,0.013,0.473,0.038c0.143,0.026,0.276,0.063,0.4,0.111c0.124,0.048,0.24,0.107,0.35,0.179s0.217,0.154,0.322,0.248
			l-0.104,0.151c-0.018,0.026-0.046,0.04-0.084,0.04c-0.02,0-0.046-0.012-0.077-0.035s-0.07-0.053-0.118-0.088
			c-0.049-0.034-0.106-0.072-0.175-0.113c-0.068-0.042-0.148-0.079-0.243-0.114c-0.094-0.034-0.202-0.063-0.324-0.087
			c-0.123-0.023-0.263-0.035-0.419-0.035c-0.288,0-0.553,0.05-0.795,0.149c-0.241,0.099-0.448,0.241-0.623,0.425
			c-0.174,0.185-0.31,0.408-0.407,0.671c-0.097,0.262-0.146,0.557-0.146,0.883c0,0.335,0.048,0.635,0.145,0.897
			c0.096,0.264,0.229,0.487,0.398,0.669s0.37,0.321,0.602,0.419c0.231,0.097,0.481,0.146,0.752,0.146
			c0.17,0,0.321-0.011,0.454-0.033s0.255-0.056,0.367-0.101c0.111-0.045,0.216-0.1,0.312-0.164c0.096-0.065,0.191-0.141,0.285-0.229
			c0.011-0.009,0.021-0.016,0.031-0.021C137.816,18.166,137.828,18.164,137.841,18.164z"/>
		<path id="XMLID_83_" style="fill:#4D4D4D;" d="M143.438,16.589c0,0.366-0.055,0.698-0.164,0.997
			c-0.109,0.298-0.264,0.553-0.462,0.764c-0.199,0.211-0.438,0.374-0.714,0.489c-0.277,0.115-0.585,0.173-0.922,0.173
			c-0.333,0-0.638-0.058-0.915-0.173c-0.276-0.115-0.515-0.278-0.714-0.489c-0.198-0.211-0.354-0.466-0.464-0.764
			c-0.11-0.299-0.166-0.631-0.166-0.997c0-0.364,0.056-0.695,0.166-0.994c0.11-0.298,0.266-0.553,0.464-0.764
			c0.199-0.211,0.438-0.375,0.714-0.491c0.277-0.116,0.582-0.174,0.915-0.174c0.337,0,0.645,0.058,0.922,0.173
			c0.276,0.114,0.515,0.278,0.714,0.49c0.198,0.213,0.353,0.468,0.462,0.766C143.383,15.893,143.438,16.224,143.438,16.589z
			 M143.083,16.589c0-0.331-0.046-0.628-0.138-0.892s-0.221-0.487-0.387-0.67c-0.167-0.184-0.367-0.323-0.602-0.421
			c-0.235-0.097-0.495-0.146-0.781-0.146c-0.281,0-0.539,0.049-0.772,0.146c-0.233,0.098-0.435,0.237-0.604,0.421
			c-0.168,0.183-0.299,0.406-0.392,0.67s-0.139,0.561-0.139,0.892c0,0.333,0.046,0.631,0.139,0.893
			c0.093,0.263,0.224,0.485,0.392,0.669c0.169,0.183,0.37,0.322,0.604,0.419c0.233,0.096,0.491,0.144,0.772,0.144
			c0.286,0,0.546-0.048,0.781-0.144c0.234-0.097,0.435-0.236,0.602-0.419c0.166-0.184,0.295-0.406,0.387-0.669
			C143.037,17.22,143.083,16.922,143.083,16.589z"/>
		<path id="XMLID_86_" style="fill:#4D4D4D;" d="M146.6,18.717c0.228,0,0.432-0.04,0.611-0.119s0.332-0.189,0.458-0.33
			c0.125-0.141,0.22-0.307,0.286-0.498c0.065-0.19,0.099-0.396,0.099-0.618V14.22h0.342v2.932c0,0.262-0.041,0.506-0.124,0.732
			c-0.082,0.227-0.201,0.425-0.356,0.593c-0.155,0.169-0.345,0.302-0.566,0.397c-0.223,0.096-0.472,0.145-0.749,0.145
			s-0.526-0.049-0.749-0.145s-0.411-0.229-0.566-0.397c-0.155-0.168-0.274-0.366-0.356-0.593c-0.083-0.227-0.124-0.471-0.124-0.732
			V14.22h0.345v2.929c0,0.221,0.033,0.427,0.099,0.618c0.066,0.191,0.161,0.356,0.285,0.498c0.124,0.141,0.276,0.251,0.456,0.331
			C146.168,18.677,146.372,18.717,146.6,18.717z"/>
		<path id="XMLID_88_" style="fill:#4D4D4D;" d="M150.452,16.816v2.145h-0.342V14.22h1.21c0.547,0,0.956,0.105,1.226,0.316
			c0.271,0.211,0.406,0.521,0.406,0.93c0,0.182-0.031,0.347-0.094,0.496c-0.063,0.149-0.153,0.281-0.271,0.394
			c-0.117,0.113-0.259,0.206-0.424,0.278c-0.165,0.073-0.352,0.12-0.56,0.143c0.054,0.033,0.102,0.078,0.145,0.134l1.632,2.051
			h-0.299c-0.035,0-0.066-0.007-0.092-0.02c-0.025-0.014-0.051-0.036-0.075-0.067l-1.519-1.924
			c-0.037-0.049-0.078-0.083-0.122-0.104c-0.043-0.021-0.111-0.03-0.202-0.03H150.452z M150.452,16.561h0.824
			c0.21,0,0.398-0.024,0.564-0.075s0.308-0.122,0.422-0.217c0.115-0.094,0.203-0.207,0.264-0.339c0.061-0.132,0.09-0.28,0.09-0.446
			c0-0.338-0.11-0.588-0.331-0.752c-0.222-0.163-0.543-0.245-0.965-0.245h-0.868V16.561z"/>
		<path id="XMLID_91_" style="fill:#4D4D4D;" d="M156.862,14.796c-0.021,0.038-0.049,0.057-0.087,0.057
			c-0.029,0-0.067-0.021-0.113-0.062s-0.107-0.087-0.187-0.138c-0.078-0.05-0.177-0.097-0.294-0.139
			c-0.117-0.043-0.263-0.063-0.436-0.063c-0.172,0-0.324,0.024-0.455,0.073s-0.241,0.116-0.33,0.201
			c-0.088,0.085-0.155,0.184-0.201,0.295s-0.069,0.229-0.069,0.352c0,0.161,0.034,0.294,0.103,0.399
			c0.068,0.104,0.158,0.194,0.271,0.268c0.111,0.074,0.238,0.136,0.381,0.187c0.142,0.05,0.288,0.1,0.438,0.148
			c0.15,0.05,0.296,0.104,0.438,0.163c0.142,0.059,0.269,0.133,0.381,0.223c0.111,0.089,0.201,0.199,0.27,0.33
			s0.103,0.293,0.103,0.487c0,0.199-0.034,0.386-0.103,0.562c-0.067,0.175-0.167,0.328-0.296,0.457
			c-0.13,0.13-0.288,0.232-0.477,0.307c-0.188,0.075-0.401,0.112-0.643,0.112c-0.313,0-0.582-0.055-0.808-0.166
			c-0.226-0.11-0.424-0.262-0.594-0.454l0.094-0.147c0.027-0.033,0.059-0.05,0.094-0.05c0.021,0,0.046,0.014,0.077,0.04
			c0.032,0.027,0.069,0.06,0.114,0.099s0.099,0.082,0.161,0.128s0.136,0.088,0.219,0.127c0.082,0.039,0.178,0.072,0.285,0.099
			c0.107,0.027,0.229,0.04,0.365,0.04c0.188,0,0.355-0.028,0.504-0.085c0.147-0.057,0.272-0.135,0.374-0.232
			c0.102-0.099,0.18-0.216,0.233-0.351s0.08-0.28,0.08-0.434c0-0.168-0.034-0.306-0.103-0.414s-0.158-0.199-0.27-0.271
			c-0.112-0.072-0.239-0.134-0.381-0.183c-0.143-0.049-0.288-0.098-0.438-0.145c-0.149-0.047-0.296-0.099-0.438-0.157
			c-0.143-0.058-0.27-0.133-0.381-0.223c-0.112-0.091-0.202-0.203-0.271-0.339c-0.068-0.135-0.103-0.304-0.103-0.508
			c0-0.158,0.03-0.312,0.091-0.459s0.148-0.277,0.266-0.39c0.116-0.113,0.26-0.204,0.431-0.271c0.171-0.068,0.366-0.103,0.586-0.103
			c0.246,0,0.467,0.039,0.662,0.117c0.196,0.078,0.374,0.197,0.535,0.358L156.862,14.796z"/>
		<path id="XMLID_93_" style="fill:#4D4D4D;" d="M161.209,14.22v0.284h-2.496v1.917h2.077v0.278h-2.077v1.978h2.496v0.284h-2.842
			V14.22H161.209z"/>
	</g>
</g>
<g id="XMLID_70_">
</g>
<g id="XMLID_174_">
</g>
<g id="XMLID_175_">
</g>
<g id="XMLID_176_">
</g>
<g id="XMLID_177_">
</g>
<g id="XMLID_178_">
</g>
<g id="XMLID_179_">
</g>
<g id="XMLID_180_">
</g>
<g id="XMLID_181_">
</g>
<g id="XMLID_182_">
</g>
<g id="XMLID_183_">
</g>
<g id="XMLID_184_">
</g>
<g id="XMLID_185_">
</g>
<g id="XMLID_186_">
</g>
<g id="XMLID_187_">
</g>
</svg>
