<?xml version="1.0" encoding="iso-8859-1"?>
<!-- Generator: Adobe Illustrator 19.0.0, SVG Export Plug-In . SVG Version: 6.00 Build 0)  -->
<svg version="1.1" id="&#x5716;&#x5C64;_1" xmlns="http://www.w3.org/2000/svg" xmlns:xlink="http://www.w3.org/1999/xlink" x="0px"
	 y="0px" viewBox="0 0 100 12" style="enable-background:new 0 0 100 12;" xml:space="preserve">
<g id="XMLID_10_">
	<path id="XMLID_2_" style="fill:#666666;" d="M1.13,9.749V5.432h0.408v4.317H1.13z"/>
	<path id="XMLID_4_" style="fill:#666666;" d="M2.714,9.749V5.432h1.475c0.479,0,0.93,0.03,1.331,0.324
		c0.57,0.413,0.72,1.253,0.72,1.828c0,0.57-0.126,1.206-0.521,1.638C5.322,9.665,4.759,9.749,4.189,9.749H2.714z M3.122,9.401h0.978
		c0.366,0,0.684-0.023,1.013-0.198c0.576-0.293,0.72-1.031,0.72-1.619c0-0.629-0.138-1.318-0.744-1.643
		C4.831,5.804,4.459,5.779,4.099,5.779H3.122V9.401z"/>
	<path id="XMLID_7_" style="fill:#666666;" d="M15.7,2.403h4.118v0.689c-1.429,1.939-2.269,4.268-2.469,6.656h-0.93
		c0.29-2.389,1.239-4.667,2.708-6.596H15.7V2.403z"/>
	<path id="XMLID_9_" style="fill:#666666;" d="M21.599,7.91c-0.36,0.32-0.52,0.62-0.54,1.09h3.168v0.749H20.2
		c0.01-0.539,0.08-1.089,0.3-1.619c0.11-0.26,0.37-0.539,0.589-0.749l1.429-1.38c0.58-0.56,0.78-0.859,0.78-1.679
		c0-0.76-0.26-1.319-1.109-1.319c-1.029,0-1.12,1.01-1.1,1.799h-0.83v-0.46c0-0.549,0.14-1.069,0.48-1.499
		c0.23-0.239,0.649-0.59,1.489-0.59c1.279,0,1.929,0.85,1.929,2.089c0,1.1-0.439,1.64-1.209,2.339L21.599,7.91z"/>
	<path id="XMLID_12_" style="fill:#666666;" d="M25.549,7.79c-0.04,0.8,0.26,1.359,1.109,1.359c0.88,0,1.2-0.879,1.2-1.809
		c0-0.859-0.19-1.759-1.25-1.759c-0.5,0-0.85,0.22-1.049,0.679h-0.74l0.44-3.857h3.188v0.75h-2.519l-0.33,2.219
		c0.35-0.36,0.689-0.54,1.209-0.54c1.379,0.01,1.909,1.159,1.909,2.379c0,1.329-0.49,2.688-2.039,2.688
		c-1.329,0-2.049-0.79-1.989-2.109H25.549z"/>
	<path id="XMLID_14_" style="fill:#666666;" d="M31.569,2.253h0.83v5.388c-0.01,0.59,0.09,1.539,1.419,1.539
		c1.33,0,1.429-0.949,1.419-1.539V2.253h0.83V7.94c0,1.339-0.89,1.988-2.249,1.988c-1.359,0-2.249-0.649-2.249-1.988V2.253z"/>
	<path id="XMLID_16_" style="fill:#666666;" d="M38.249,5.512c0.66-0.04,1.549,0.1,1.549-1.279c0-0.729-0.22-1.229-1.049-1.229
		c-0.94,0-1.07,0.699-1.07,1.469h-0.79c-0.04-1.259,0.52-2.219,1.879-2.219c1.119,0,1.869,0.73,1.869,1.859
		c0,0.81-0.25,1.399-1.049,1.689c0.87,0.199,1.25,0.89,1.25,1.738c0,1.399-0.62,2.359-2.109,2.359c-1.5,0-2.009-0.989-1.979-2.349
		h0.819c-0.07,0.799,0.16,1.599,1.229,1.599c0.819,0,1.209-0.569,1.209-1.339c0-1.31-0.5-1.56-1.759-1.55V5.512z"/>
	<path id="XMLID_18_" style="fill:#666666;" d="M42.708,7.91c-0.36,0.32-0.52,0.62-0.54,1.09h3.168v0.749H41.31
		c0.01-0.539,0.08-1.089,0.3-1.619c0.11-0.26,0.37-0.539,0.589-0.749l1.429-1.38c0.58-0.56,0.78-0.859,0.78-1.679
		c0-0.76-0.26-1.319-1.109-1.319c-1.029,0-1.12,1.01-1.1,1.799h-0.83v-0.46c0-0.549,0.14-1.069,0.48-1.499
		c0.23-0.239,0.649-0.59,1.489-0.59c1.279,0,1.929,0.85,1.929,2.089c0,1.1-0.439,1.64-1.209,2.339L42.708,7.91z"/>
	<path id="XMLID_20_" style="fill:#666666;" d="M45.81,2.403h4.118v0.689c-1.429,1.939-2.269,4.268-2.469,6.656h-0.93
		c0.29-2.389,1.24-4.667,2.708-6.596H45.81V2.403z"/>
	<path id="XMLID_22_" style="fill:#666666;" d="M50.33,6.062c0-1.399,0.09-3.809,2.039-3.809c2.099,0,2.049,2.379,2.049,3.809
		c0,1.699-0.09,3.838-2.049,3.838C50.369,9.899,50.33,7.391,50.33,6.062z M52.368,9.149c1.239,0,1.189-1.779,1.189-3.218
		c0-1.06,0.11-2.839-1.189-2.929c-1.319-0.08-1.179,2.239-1.179,2.929C51.189,7.37,50.989,9.149,52.368,9.149z"/>
	<path id="XMLID_25_" style="fill:#6ABF9E;" d="M57.299,2.253h0.641v7.496h-0.641V2.253z"/>
	<path id="XMLID_27_" style="fill:#666666;" d="M64.947,5.731c0,1.56-0.061,4.168-2.219,4.168c-1.109,0-1.719-0.71-1.749-1.789
		h0.849c0,0.68,0.291,1.039,1,1.039c1.27,0,1.26-2.108,1.299-2.908h-0.02c-0.289,0.64-0.84,0.92-1.379,0.92
		c-1.34,0-1.93-1.08-1.93-2.289c0-1.6,0.85-2.619,1.989-2.619C64.797,2.253,64.947,4.192,64.947,5.731z M62.818,3.003
		c-0.939,0-1.16,0.96-1.16,1.719c0,0.78,0.201,1.689,1.17,1.689c0.939,0,1.22-0.779,1.22-1.56
		C64.048,4.053,63.818,3.003,62.818,3.003z"/>
	<path id="XMLID_30_" style="fill:#666666;" d="M66.709,7.91c-0.36,0.32-0.52,0.62-0.54,1.09h3.169v0.749H65.31
		c0.01-0.539,0.079-1.089,0.3-1.619c0.109-0.26,0.369-0.539,0.59-0.749l1.429-1.38c0.58-0.56,0.78-0.859,0.78-1.679
		c0-0.76-0.26-1.319-1.109-1.319c-1.029,0-1.12,1.01-1.1,1.799h-0.83v-0.46c0-0.549,0.141-1.069,0.48-1.499
		c0.229-0.239,0.648-0.59,1.488-0.59c1.279,0,1.93,0.85,1.93,2.089c0,1.1-0.439,1.64-1.209,2.339L66.709,7.91z"/>
	<path id="XMLID_32_" style="fill:#666666;" d="M71.209,7.91c-0.36,0.32-0.52,0.62-0.54,1.09h3.169v0.749H69.81
		c0.01-0.539,0.079-1.089,0.3-1.619c0.109-0.26,0.369-0.539,0.59-0.749l1.429-1.38c0.58-0.56,0.78-0.859,0.78-1.679
		c0-0.76-0.26-1.319-1.109-1.319c-1.029,0-1.12,1.01-1.1,1.799h-0.83v-0.46c0-0.549,0.141-1.069,0.48-1.499
		c0.229-0.239,0.648-0.59,1.488-0.59c1.279,0,1.93,0.85,1.93,2.089c0,1.1-0.439,1.64-1.209,2.339L71.209,7.91z"/>
	<path id="XMLID_34_" style="fill:#666666;" d="M76.68,2.253h0.829v5.388c-0.011,0.59,0.09,1.539,1.419,1.539
		c1.33,0,1.43-0.949,1.42-1.539V2.253h0.829V7.94c0,1.339-0.89,1.988-2.249,1.988S76.68,9.279,76.68,7.94V2.253z"/>
	<path id="XMLID_36_" style="fill:#666666;" d="M83.359,5.512c0.659-0.04,1.549,0.1,1.549-1.279c0-0.729-0.221-1.229-1.049-1.229
		c-0.94,0-1.07,0.699-1.07,1.469H82c-0.04-1.259,0.52-2.219,1.879-2.219c1.119,0,1.869,0.73,1.869,1.859
		c0,0.81-0.25,1.399-1.05,1.689c0.87,0.199,1.249,0.89,1.249,1.738c0,1.399-0.619,2.359-2.108,2.359
		c-1.499,0-2.009-0.989-1.979-2.349h0.82c-0.07,0.799,0.16,1.599,1.229,1.599c0.82,0,1.21-0.569,1.21-1.339
		c0-1.31-0.5-1.56-1.759-1.55V5.512z"/>
	<path id="XMLID_38_" style="fill:#666666;" d="M89.059,2.253h0.76v4.878h0.669V7.88h-0.669v1.869h-0.83V7.88H86.26V7.11
		L89.059,2.253z M86.92,7.131h2.068V3.553L86.92,7.131z"/>
	<path id="XMLID_41_" style="fill:#666666;" d="M92.359,5.691c-0.891-0.149-1.189-0.8-1.189-1.649s0.489-1.789,1.898-1.789
		c1.05,0,1.739,0.62,1.739,1.84c0,0.759-0.319,1.449-1.13,1.599v0.021c0.939,0.159,1.34,0.959,1.34,1.778
		c0,1.29-0.55,2.409-1.999,2.409c-1.369,0-2.079-0.85-2.079-2.299c0-1.21,0.8-1.779,1.42-1.889V5.691z M93.039,9.149
		c0.689,0,1.119-0.569,1.119-1.589c0-0.77-0.311-1.449-1.18-1.449s-1.18,0.699-1.18,1.459C91.799,8.4,92.059,9.149,93.039,9.149z
		 M93.019,5.361c0.729,0,0.93-0.55,0.93-1.199c0-0.64-0.2-1.159-0.939-1.159s-0.979,0.46-0.979,1.13
		C92.02,4.872,92.318,5.361,93.019,5.361z"/>
	<path id="XMLID_45_" style="fill:#666666;" d="M95.439,6.062c0-1.399,0.09-3.809,2.039-3.809c2.1,0,2.049,2.379,2.049,3.809
		c0,1.699-0.09,3.838-2.049,3.838C95.479,9.899,95.439,7.391,95.439,6.062z M97.479,9.149c1.239,0,1.189-1.779,1.189-3.218
		c0-1.06,0.109-2.839-1.189-2.929c-1.319-0.08-1.18,2.239-1.18,2.929C96.299,7.37,96.1,9.149,97.479,9.149z"/>
</g>
<g id="XMLID_1_">
</g>
<g id="XMLID_48_">
</g>
<g id="XMLID_49_">
</g>
<g id="XMLID_50_">
</g>
<g id="XMLID_51_">
</g>
<g id="XMLID_52_">
</g>
<g id="XMLID_53_">
</g>
<g id="XMLID_54_">
</g>
<g id="XMLID_55_">
</g>
<g id="XMLID_56_">
</g>
<g id="XMLID_57_">
</g>
<g id="XMLID_58_">
</g>
<g id="XMLID_59_">
</g>
<g id="XMLID_60_">
</g>
<g id="XMLID_61_">
</g>
</svg>
