<?xml version="1.0" encoding="iso-8859-1"?>
<!-- Generator: Adobe Illustrator 19.0.0, SVG Export Plug-In . SVG Version: 6.00 Build 0)  -->
<svg version="1.1" id="&#x5716;&#x5C64;_1" xmlns="http://www.w3.org/2000/svg" xmlns:xlink="http://www.w3.org/1999/xlink" x="0px"
	 y="0px" viewBox="0 0 100 12" style="enable-background:new 0 0 100 12;" xml:space="preserve">
<g id="XMLID_10_">
	<path id="XMLID_2_" style="fill:#666666;" d="M1.13,9.749V5.432h0.408v4.317H1.13z"/>
	<path id="XMLID_4_" style="fill:#666666;" d="M3.098,9.749h-0.36V6.643h0.36v0.433C3.386,6.769,3.668,6.559,4.1,6.559
		c0.378,0,0.726,0.12,0.948,0.444c0.15,0.222,0.156,0.456,0.156,0.714v2.032h-0.36V7.723c0-0.558-0.228-0.84-0.804-0.84
		c-0.444,0-0.75,0.288-0.863,0.605C3.104,7.687,3.098,7.86,3.098,8.076V9.749z"/>
	<path id="XMLID_6_" style="fill:#666666;" d="M6.423,8.777c0.114,0.534,0.39,0.732,0.93,0.732c0.521,0,0.768-0.276,0.768-0.576
		c0-0.899-1.991-0.264-1.991-1.487c0-0.516,0.402-0.888,1.092-0.888c0.671,0,1.109,0.276,1.199,0.978H8.054
		c-0.066-0.479-0.39-0.653-0.84-0.653c-0.456,0-0.702,0.216-0.702,0.534c0,0.845,1.991,0.317,1.991,1.511
		c0,0.594-0.534,0.905-1.266,0.905c-0.731,0-1.151-0.468-1.181-1.056H6.423z"/>
	<path id="XMLID_8_" style="fill:#666666;" d="M10.427,9.762c-0.084,0.018-0.24,0.071-0.414,0.071c-0.354,0-0.552-0.155-0.552-0.617
		V6.942H9.024v-0.3h0.438V5.779h0.36v0.863h0.582v0.3H9.821v2.129c0,0.307,0.012,0.438,0.312,0.438c0.096,0,0.198-0.019,0.293-0.042
		V9.762z"/>
	<path id="XMLID_11_" style="fill:#666666;" d="M11.527,9.749h-0.36V6.643h0.36v0.582h0.012c0.198-0.498,0.492-0.666,1.013-0.666
		v0.391c-0.81-0.019-1.025,0.581-1.025,1.277V9.749z"/>
	<path id="XMLID_13_" style="fill:#666666;" d="M15.399,6.643h0.36v3.106h-0.36V9.317c-0.192,0.216-0.456,0.516-1.001,0.516
		c-0.828,0-1.104-0.497-1.104-1.146V6.643h0.36v2.039c0,0.534,0.234,0.828,0.798,0.828c0.593,0,0.947-0.492,0.947-1.176V6.643z"/>
	<path id="XMLID_15_" style="fill:#666666;" d="M18.996,7.62c-0.125-0.462-0.443-0.737-0.923-0.737
		c-0.737,0-1.043,0.672-1.043,1.319c0,0.653,0.3,1.308,1.043,1.308c0.534,0,0.87-0.318,0.954-0.834h0.384
		c-0.126,0.689-0.558,1.157-1.337,1.157c-0.989,0-1.427-0.714-1.427-1.631c0-0.863,0.498-1.644,1.427-1.644
		c0.714,0,1.182,0.342,1.29,1.062H18.996z"/>
	<path id="XMLID_17_" style="fill:#666666;" d="M21.332,9.762c-0.084,0.018-0.24,0.071-0.414,0.071
		c-0.354,0-0.552-0.155-0.552-0.617V6.942h-0.438v-0.3h0.438V5.779h0.36v0.863h0.582v0.3h-0.582v2.129
		c0,0.307,0.012,0.438,0.312,0.438c0.096,0,0.198-0.019,0.293-0.042V9.762z"/>
	<path id="XMLID_19_" style="fill:#666666;" d="M21.788,8.196c0-0.905,0.479-1.638,1.439-1.638c0.972,0,1.439,0.726,1.439,1.638
		c0,0.983-0.57,1.637-1.439,1.637C22.436,9.821,21.788,9.281,21.788,8.196z M23.227,6.883c-0.755,0-1.055,0.642-1.055,1.313
		c0,0.773,0.366,1.313,1.055,1.313c0.756,0,1.056-0.648,1.056-1.313C24.276,7.465,23.989,6.883,23.227,6.883z"/>
	<path id="XMLID_22_" style="fill:#666666;" d="M25.89,9.749h-0.36V6.643h0.36v0.582h0.012c0.198-0.498,0.492-0.666,1.013-0.666
		v0.391c-0.81-0.019-1.025,0.581-1.025,1.277V9.749z"/>
	<path id="XMLID_24_" style="fill:#666666;" d="M36.518,2.573h3.158c1.339,0,2.029,0.829,2.029,1.809c0,0.47-0.17,1.13-0.959,1.5
		c0.47,0.189,1.299,0.52,1.299,1.749c0,1.149-0.85,2.118-2.438,2.118h-3.088V2.573z M37.487,5.611h1.749
		c0.93,0,1.499-0.279,1.499-1.159c0-0.67-0.41-1.05-1.489-1.05h-1.759V5.611z M37.487,8.92h2.069c1.01,0,1.519-0.51,1.519-1.31
		c0-1.01-0.889-1.209-1.679-1.209h-1.909V8.92z"/>
	<path id="XMLID_28_" style="fill:#666666;" d="M43.313,3.572V2.573h0.88v0.999H43.313z M44.193,9.749h-0.88V4.522h0.88V9.749z"/>
	<path id="XMLID_31_" style="fill:#666666;" d="M49.897,9.749h-0.879V6.531c0-0.91-0.26-1.369-1.12-1.369
		c-0.5,0-1.379,0.319-1.379,1.738v2.849h-0.88V4.522h0.83v0.739h0.02c0.19-0.28,0.68-0.89,1.579-0.89c0.81,0,1.829,0.33,1.829,1.819
		V9.749z"/>
	<path id="XMLID_33_" style="fill:#666666;" d="M55.68,9.319c0,0.75-0.01,2.629-2.428,2.629c-0.62,0-1.83-0.17-2-1.56h0.88
		c0.16,0.83,0.97,0.83,1.18,0.83c1.519,0,1.489-1.22,1.489-1.839V9.159h-0.02v0.04c-0.23,0.37-0.69,0.7-1.39,0.7
		c-1.779,0-2.299-1.669-2.299-2.919c0-1.469,0.79-2.608,2.179-2.608c0.949,0,1.35,0.59,1.559,0.89h0.021V4.522h0.829V9.319z
		 M53.411,9.14c0.56,0,1.43-0.37,1.43-1.759c0-0.85-0.14-2.219-1.409-2.219c-1.359,0-1.43,1.289-1.43,1.959
		C52.002,8.271,52.452,9.14,53.411,9.14z"/>
	<path id="XMLID_36_" style="fill:#666666;" d="M59.414,7.431h-2.448V6.531h2.448V7.431z"/>
	<path id="XMLID_38_" style="fill:#666666;" d="M63.027,9.749h-0.969V6.861L59.35,2.573h1.13l2.059,3.448l2.06-3.448h1.139
		l-2.709,4.288V9.749z"/>
	<path id="XMLID_40_" style="fill:#666666;" d="M69.489,9.749v-0.76l-0.021-0.02c-0.369,0.609-0.818,0.93-1.658,0.93
		c-0.77,0-1.699-0.37-1.699-1.619V4.522h0.879V7.99c0,0.859,0.44,1.149,1.01,1.149c1.109,0,1.439-0.979,1.439-1.739V4.522h0.879
		v5.227H69.489z"/>
	<path id="XMLID_42_" style="fill:#6ABF9E;" d="M79.769,4.732c-0.271-1.26-1.319-1.489-2.009-1.489
		c-1.299,0-2.349,0.959-2.349,2.848c0,1.689,0.6,2.989,2.378,2.989c0.631,0,1.72-0.3,2.049-1.97h0.939
		c-0.399,2.709-2.598,2.829-3.138,2.829c-1.629,0-3.228-1.06-3.228-3.818c0-2.209,1.259-3.737,3.348-3.737
		c1.849,0,2.809,1.148,2.948,2.349H79.769z"/>
	<path id="XMLID_44_" style="fill:#6ABF9E;" d="M86.216,9.749h-0.88V6.331c0-0.71-0.199-1.169-1.039-1.169
		c-0.72,0-1.459,0.42-1.459,1.738v2.849h-0.88V2.573h0.88v2.648h0.02c0.25-0.33,0.689-0.85,1.529-0.85
		c0.81,0,1.829,0.33,1.829,1.819V9.749z"/>
	<path id="XMLID_46_" style="fill:#6ABF9E;" d="M92.1,8.11c-0.031,0.25-0.271,0.989-0.93,1.429c-0.24,0.16-0.58,0.36-1.42,0.36
		c-1.469,0-2.338-1.109-2.338-2.619c0-1.619,0.779-2.908,2.508-2.908c1.51,0,2.249,1.199,2.249,3.049h-3.817
		c0,1.089,0.51,1.719,1.519,1.719c0.829,0,1.319-0.64,1.349-1.029H92.1z M91.26,6.721c-0.051-0.81-0.391-1.559-1.459-1.559
		c-0.811,0-1.449,0.749-1.449,1.559H91.26z"/>
	<path id="XMLID_49_" style="fill:#6ABF9E;" d="M97.621,9.749h-0.879V6.531c0-0.91-0.26-1.369-1.119-1.369
		c-0.5,0-1.379,0.319-1.379,1.738v2.849h-0.881V4.522h0.83v0.739h0.02c0.19-0.28,0.68-0.89,1.58-0.89
		c0.809,0,1.828,0.33,1.828,1.819V9.749z"/>
</g>
<g id="XMLID_1_">
</g>
<g id="XMLID_51_">
</g>
<g id="XMLID_52_">
</g>
<g id="XMLID_53_">
</g>
<g id="XMLID_54_">
</g>
<g id="XMLID_55_">
</g>
<g id="XMLID_56_">
</g>
<g id="XMLID_57_">
</g>
<g id="XMLID_58_">
</g>
<g id="XMLID_59_">
</g>
<g id="XMLID_60_">
</g>
<g id="XMLID_61_">
</g>
<g id="XMLID_62_">
</g>
<g id="XMLID_63_">
</g>
<g id="XMLID_64_">
</g>
</svg>
