<?xml version="1.0" encoding="iso-8859-1"?>
<!-- Generator: Adobe Illustrator 19.0.0, SVG Export Plug-In . SVG Version: 6.00 Build 0)  -->
<svg version="1.1" id="&#x5716;&#x5C64;_1" xmlns="http://www.w3.org/2000/svg" xmlns:xlink="http://www.w3.org/1999/xlink" x="0px"
	 y="0px" viewBox="0 0 123.25 12" style="enable-background:new 0 0 123.25 12;" xml:space="preserve">
<g id="XMLID_10_">
	<path id="XMLID_42_" style="fill:#666666;" d="M4.05,6.685c-0.167-0.737-0.624-1.02-1.361-1.02c-1.043,0-1.493,0.894-1.493,1.913
		c0,0.966,0.354,1.938,1.529,1.938c0.744,0,1.206-0.504,1.367-1.188h0.426C4.326,9.161,3.804,9.863,2.647,9.863
		c-1.332,0-1.859-1.05-1.859-2.272c0-1.649,0.863-2.273,2.009-2.273c0.887,0,1.535,0.474,1.673,1.367H4.05z"/>
	<path id="XMLID_44_" style="fill:#666666;" d="M5.45,9.749V5.432h0.36v4.317H5.45z"/>
	<path id="XMLID_46_" style="fill:#666666;" d="M8.287,7.938C8.418,7.926,8.641,7.891,8.76,7.836C8.88,7.782,8.893,7.62,8.893,7.513
		c0-0.366-0.216-0.63-0.774-0.63c-0.498,0-0.839,0.162-0.905,0.701H6.848c0.054-0.731,0.6-1.025,1.277-1.025
		c0.629,0,1.127,0.246,1.127,0.966v1.691c0,0.281,0.072,0.348,0.378,0.239v0.282c-0.054,0.018-0.18,0.06-0.282,0.06
		c-0.06,0-0.108-0.006-0.162-0.018c-0.24-0.036-0.282-0.246-0.288-0.462c-0.3,0.336-0.708,0.516-1.157,0.516
		c-0.546,0-1.038-0.294-1.038-0.894c0-0.521,0.36-0.839,1.085-0.936L8.287,7.938z M8.893,8.118c-0.306,0.126-0.618,0.15-0.93,0.174
		c-0.546,0.042-0.875,0.24-0.875,0.66c0,0.377,0.33,0.558,0.671,0.558c0.57,0,1.134-0.276,1.134-0.906V8.118z"/>
	<path id="XMLID_49_" style="fill:#666666;" d="M10.547,8.777c0.114,0.534,0.39,0.732,0.93,0.732c0.521,0,0.768-0.276,0.768-0.576
		c0-0.899-1.991-0.264-1.991-1.487c0-0.516,0.402-0.888,1.092-0.888c0.671,0,1.109,0.276,1.199,0.978h-0.366
		c-0.066-0.479-0.39-0.653-0.84-0.653c-0.456,0-0.702,0.216-0.702,0.534c0,0.845,1.991,0.317,1.991,1.511
		c0,0.594-0.534,0.905-1.266,0.905c-0.731,0-1.151-0.468-1.181-1.056H10.547z"/>
	<path id="XMLID_51_" style="fill:#666666;" d="M13.718,8.777c0.114,0.534,0.39,0.732,0.93,0.732c0.521,0,0.768-0.276,0.768-0.576
		c0-0.899-1.991-0.264-1.991-1.487c0-0.516,0.402-0.888,1.091-0.888c0.672,0,1.11,0.276,1.2,0.978H15.35
		c-0.066-0.479-0.39-0.653-0.84-0.653c-0.456,0-0.702,0.216-0.702,0.534c0,0.845,1.991,0.317,1.991,1.511
		c0,0.594-0.534,0.905-1.266,0.905c-0.731,0-1.151-0.468-1.181-1.056H13.718z"/>
	<path id="XMLID_53_" style="fill:#666666;" d="M17.04,9.749h-0.36V6.643h0.36v0.582h0.012c0.198-0.498,0.492-0.666,1.013-0.666
		v0.391c-0.81-0.019-1.025,0.581-1.025,1.277V9.749z"/>
	<path id="XMLID_55_" style="fill:#666666;" d="M18.525,8.196c0-0.905,0.479-1.638,1.439-1.638c0.972,0,1.439,0.726,1.439,1.638
		c0,0.983-0.57,1.637-1.439,1.637C19.172,9.821,18.525,9.281,18.525,8.196z M19.964,6.883c-0.755,0-1.055,0.642-1.055,1.313
		c0,0.773,0.366,1.313,1.055,1.313c0.756,0,1.056-0.648,1.056-1.313C21.013,7.465,20.726,6.883,19.964,6.883z"/>
	<path id="XMLID_58_" style="fill:#666666;" d="M22.075,8.196c0-0.905,0.479-1.638,1.439-1.638c0.972,0,1.439,0.726,1.439,1.638
		c0,0.983-0.57,1.637-1.439,1.637C22.723,9.821,22.075,9.281,22.075,8.196z M23.514,6.883c-0.755,0-1.055,0.642-1.055,1.313
		c0,0.773,0.366,1.313,1.055,1.313c0.756,0,1.056-0.648,1.056-1.313C24.563,7.465,24.276,6.883,23.514,6.883z"/>
	<path id="XMLID_61_" style="fill:#666666;" d="M26.141,9.749h-0.36V6.643h0.36V7.11h0.012c0.186-0.354,0.558-0.552,0.959-0.552
		c0.576,0,0.78,0.271,0.912,0.6c0.204-0.401,0.57-0.6,1.014-0.6c0.845,0,0.965,0.606,0.965,1.229v1.961h-0.36V7.603
		c0-0.444-0.156-0.72-0.666-0.72c-0.264,0-0.522,0.114-0.702,0.354c-0.156,0.204-0.204,0.582-0.204,0.84v1.673h-0.359V7.603
		c0-0.444-0.156-0.72-0.666-0.72c-0.264,0-0.521,0.114-0.702,0.354c-0.156,0.204-0.204,0.582-0.204,0.84V9.749z"/>
	<path id="XMLID_63_" style="fill:#666666;" d="M45.762,9.749V5.512c0-0.21,0.02-1.119,0.02-1.789h-0.02l-2.019,6.026h-0.959
		l-2.019-6.017h-0.02c0,0.66,0.02,1.569,0.02,1.779v4.237h-0.939V2.573h1.389l2.049,6.066h0.02l2.039-6.066h1.379v7.176H45.762z"/>
	<path id="XMLID_65_" style="fill:#666666;" d="M48.37,2.573h3.158c1.339,0,2.028,0.829,2.028,1.809c0,0.47-0.17,1.13-0.959,1.5
		c0.47,0.189,1.299,0.52,1.299,1.749c0,1.149-0.85,2.118-2.438,2.118H48.37V2.573z M49.339,5.611h1.749c0.93,0,1.5-0.279,1.5-1.159
		c0-0.67-0.41-1.05-1.489-1.05h-1.759V5.611z M49.339,8.92h2.069c1.01,0,1.52-0.51,1.52-1.31c0-1.01-0.89-1.209-1.68-1.209h-1.909
		V8.92z"/>
	<path id="XMLID_69_" style="fill:#666666;" d="M56.205,7.66l-0.75,2.089h-0.998l2.697-7.176h1.1l2.6,7.176h-1.061L59.084,7.66
		H56.205z M58.734,6.801l-1.06-3.158h-0.021l-1.148,3.158H58.734z"/>
	<path id="XMLID_72_" style="fill:#666666;" d="M64.912,9.749h-0.66l0.291-2.099h-1.25l-0.289,2.099h-0.66l0.289-2.099h-1.029
		l0.09-0.63h1.03l0.19-1.419h-1.03l0.09-0.63h1.03l0.289-2.099h0.67l-0.29,2.099h1.239l0.29-2.099h0.669l-0.289,2.099h1.029
		l-0.09,0.63h-1.029l-0.2,1.419h1.029l-0.09,0.63h-1.029L64.912,9.749z M63.583,5.602l-0.2,1.419h1.25l0.189-1.419H63.583z"/>
	<path id="XMLID_75_" style="fill:#666666;" d="M70.464,9.749h-0.939V4.762h-1.64V4.063c1.141-0.08,1.609-0.19,1.89-1.34h0.689
		V9.749z"/>
	<path id="XMLID_77_" style="fill:#6ABF9E;" d="M77.266,9.749h-0.971V2.573h3.318c1.18,0,2.359,0.41,2.359,1.929
		c0,1.06-0.54,1.449-1,1.72c0.41,0.169,0.82,0.35,0.859,1.349l0.061,1.3c0.01,0.399,0.061,0.55,0.359,0.719v0.16h-1.189
		c-0.14-0.439-0.17-1.529-0.17-1.799c0-0.59-0.119-1.279-1.279-1.279h-2.348V9.749z M77.266,5.842h2.248
		c0.709,0,1.459-0.181,1.459-1.239c0-1.109-0.809-1.2-1.289-1.2h-2.418V5.842z"/>
	<path id="XMLID_80_" style="fill:#6ABF9E;" d="M85.525,4.372c1.67,0,2.429,1.409,2.429,2.759c0,1.349-0.759,2.759-2.429,2.759
		c-1.669,0-2.429-1.41-2.429-2.759C83.097,5.781,83.856,4.372,85.525,4.372z M85.525,9.13c1.26,0,1.52-1.3,1.52-1.999
		c0-0.7-0.26-1.999-1.52-1.999s-1.52,1.299-1.52,1.999C84.006,7.83,84.266,9.13,85.525,9.13z"/>
	<path id="XMLID_83_" style="fill:#6ABF9E;" d="M91.266,4.372c1.669,0,2.428,1.409,2.428,2.759c0,1.349-0.759,2.759-2.428,2.759
		c-1.67,0-2.43-1.41-2.43-2.759C88.836,5.781,89.596,4.372,91.266,4.372z M91.266,9.13c1.259,0,1.52-1.3,1.52-1.999
		c0-0.7-0.261-1.999-1.52-1.999c-1.26,0-1.52,1.299-1.52,1.999C89.746,7.83,90.006,9.13,91.266,9.13z"/>
	<path id="XMLID_86_" style="fill:#6ABF9E;" d="M94.863,4.522h0.83v0.739h0.02c0.189-0.28,0.64-0.89,1.579-0.89
		s1.239,0.57,1.39,0.85c0.439-0.489,0.789-0.85,1.6-0.85c0.559,0,1.618,0.29,1.618,1.759v3.618h-0.88V6.371
		c0-0.72-0.219-1.209-0.969-1.209c-0.74,0-1.229,0.699-1.229,1.398v3.188h-0.88V6.131c0-0.439-0.17-0.969-0.819-0.969
		c-0.499,0-1.379,0.319-1.379,1.738v2.849h-0.88V4.522z"/>
	<path id="XMLID_88_" style="fill:#6ABF9E;" d="M109.111,9.749h-0.939V4.762h-1.639V4.063c1.14-0.08,1.609-0.19,1.889-1.34h0.689
		V9.749z"/>
	<path id="XMLID_90_" style="fill:#6ABF9E;" d="M113.52,9.939c-2.02,0-2.409-2.149-2.409-3.608s0.39-3.608,2.409-3.608
		c2.019,0,2.408,2.149,2.408,3.608S115.538,9.939,113.52,9.939z M113.52,3.513c-1.01,0-1.47,1.06-1.47,2.818s0.46,2.818,1.47,2.818
		s1.469-1.06,1.469-2.818S114.529,3.513,113.52,3.513z"/>
	<path id="XMLID_93_" style="fill:#6ABF9E;" d="M120.732,8.04v1.709h-0.879V8.04h-3.068V7.181l3.218-4.458h0.729V7.28h1.029v0.76
		H120.732z M117.594,7.28h2.26V4.093h-0.021L117.594,7.28z"/>
</g>
<g id="XMLID_41_">
</g>
<g id="XMLID_96_">
</g>
<g id="XMLID_97_">
</g>
<g id="XMLID_98_">
</g>
<g id="XMLID_99_">
</g>
<g id="XMLID_100_">
</g>
<g id="XMLID_101_">
</g>
<g id="XMLID_102_">
</g>
<g id="XMLID_103_">
</g>
<g id="XMLID_104_">
</g>
<g id="XMLID_105_">
</g>
<g id="XMLID_106_">
</g>
<g id="XMLID_107_">
</g>
<g id="XMLID_108_">
</g>
<g id="XMLID_109_">
</g>
</svg>
