<?xml version="1.0" encoding="iso-8859-1"?>
<!-- Generator: Adobe Illustrator 19.0.0, SVG Export Plug-In . SVG Version: 6.00 Build 0)  -->
<svg version="1.1" id="&#x5716;&#x5C64;_1" xmlns="http://www.w3.org/2000/svg" xmlns:xlink="http://www.w3.org/1999/xlink" x="0px"
	 y="0px" viewBox="0 0 177.167 12" style="enable-background:new 0 0 177.167 12;" xml:space="preserve">
<g id="XMLID_10_">
	<path id="XMLID_16_" style="fill:#666666;" d="M0.596,5.432h3.143v0.348H2.371v3.97H1.963v-3.97H0.596V5.432z"/>
	<path id="XMLID_18_" style="fill:#666666;" d="M4.245,8.28C4.238,8.952,4.598,9.51,5.288,9.51c0.468,0,0.833-0.258,0.941-0.714
		h0.402C6.451,9.384,6.08,9.833,5.288,9.833c-0.996,0-1.427-0.707-1.427-1.625c0-0.905,0.54-1.649,1.427-1.649
		c0.852,0,1.373,0.606,1.367,1.722H4.245z M6.271,7.98c0-0.605-0.336-1.098-0.983-1.098c-0.636,0-0.972,0.51-1.043,1.098H6.271z"/>
	<path id="XMLID_21_" style="fill:#666666;" d="M8.949,7.938c0.132-0.013,0.354-0.048,0.474-0.103
		c0.12-0.054,0.132-0.216,0.132-0.323c0-0.366-0.216-0.63-0.774-0.63c-0.498,0-0.839,0.162-0.905,0.701H7.51
		c0.054-0.731,0.6-1.025,1.277-1.025c0.629,0,1.127,0.246,1.127,0.966v1.691c0,0.281,0.072,0.348,0.378,0.239v0.282
		c-0.054,0.018-0.18,0.06-0.282,0.06c-0.06,0-0.108-0.006-0.162-0.018c-0.24-0.036-0.282-0.246-0.288-0.462
		c-0.3,0.336-0.708,0.516-1.157,0.516c-0.546,0-1.038-0.294-1.038-0.894c0-0.521,0.36-0.839,1.085-0.936L8.949,7.938z M9.555,8.118
		c-0.306,0.126-0.618,0.15-0.93,0.174C8.079,8.334,7.75,8.532,7.75,8.952c0,0.377,0.33,0.558,0.671,0.558
		c0.57,0,1.134-0.276,1.134-0.906V8.118z"/>
	<path id="XMLID_24_" style="fill:#666666;" d="M13.178,7.62c-0.125-0.462-0.443-0.737-0.923-0.737
		c-0.737,0-1.043,0.672-1.043,1.319c0,0.653,0.3,1.308,1.043,1.308c0.534,0,0.87-0.318,0.954-0.834h0.384
		c-0.126,0.689-0.558,1.157-1.337,1.157c-0.989,0-1.427-0.714-1.427-1.631c0-0.863,0.498-1.644,1.427-1.644
		c0.714,0,1.182,0.342,1.29,1.062H13.178z"/>
	<path id="XMLID_26_" style="fill:#666666;" d="M14.452,9.749V5.432h0.36v1.644c0.288-0.307,0.57-0.517,1.001-0.517
		c0.378,0,0.726,0.12,0.948,0.444c0.15,0.222,0.156,0.456,0.156,0.714v2.032h-0.36V7.723c0-0.558-0.228-0.84-0.804-0.84
		c-0.444,0-0.75,0.288-0.863,0.605c-0.072,0.198-0.078,0.372-0.078,0.588v1.673H14.452z"/>
	<path id="XMLID_28_" style="fill:#666666;" d="M17.949,5.966V5.432h0.396v0.534H17.949z M17.967,9.749V6.643h0.36v3.106H17.967z"/>
	<path id="XMLID_31_" style="fill:#666666;" d="M19.735,9.749h-0.36V6.643h0.36v0.433c0.288-0.307,0.57-0.517,1.001-0.517
		c0.378,0,0.726,0.12,0.948,0.444c0.15,0.222,0.156,0.456,0.156,0.714v2.032h-0.36V7.723c0-0.558-0.228-0.84-0.804-0.84
		c-0.444,0-0.75,0.288-0.863,0.605c-0.072,0.198-0.078,0.372-0.078,0.588V9.749z"/>
	<path id="XMLID_33_" style="fill:#666666;" d="M25.24,6.643h0.36v2.807c0,0.834-0.276,1.571-1.458,1.571
		c-0.911,0-1.289-0.521-1.313-0.894h0.384c0.108,0.468,0.503,0.569,0.929,0.569c0.983,0,1.116-0.731,1.098-1.444
		c-0.228,0.377-0.672,0.581-1.109,0.581c-0.948,0-1.385-0.773-1.385-1.643c0-0.918,0.402-1.632,1.403-1.632
		c0.396,0,0.869,0.223,1.079,0.63h0.012V6.643z M24.191,6.883c-0.606,0-1.056,0.438-1.062,1.218
		c-0.03,0.779,0.318,1.409,1.062,1.409c0.653,0,1.049-0.6,1.049-1.302C25.24,7.459,24.868,6.883,24.191,6.883z"/>
	<path id="XMLID_36_" style="fill:#666666;" d="M27.953,9.749l1.697-4.317h0.461l1.655,4.317h-0.42L30.85,8.394h-1.967l-0.51,1.355
		H27.953z M29.021,8.046h1.691l-0.846-2.267L29.021,8.046z"/>
	<path id="XMLID_39_" style="fill:#666666;" d="M32.689,8.777c0.114,0.534,0.39,0.732,0.93,0.732c0.521,0,0.768-0.276,0.768-0.576
		c0-0.899-1.991-0.264-1.991-1.487c0-0.516,0.402-0.888,1.091-0.888c0.672,0,1.11,0.276,1.2,0.978H34.32
		c-0.066-0.479-0.39-0.653-0.84-0.653c-0.456,0-0.702,0.216-0.702,0.534c0,0.845,1.991,0.317,1.991,1.511
		c0,0.594-0.534,0.905-1.266,0.905c-0.731,0-1.151-0.468-1.181-1.056H32.689z"/>
	<path id="XMLID_41_" style="fill:#666666;" d="M35.86,8.777c0.114,0.534,0.39,0.732,0.93,0.732c0.521,0,0.768-0.276,0.768-0.576
		c0-0.899-1.991-0.264-1.991-1.487c0-0.516,0.402-0.888,1.091-0.888c0.672,0,1.11,0.276,1.2,0.978h-0.366
		c-0.066-0.479-0.39-0.653-0.84-0.653c-0.456,0-0.702,0.216-0.702,0.534c0,0.845,1.991,0.317,1.991,1.511
		c0,0.594-0.534,0.905-1.266,0.905c-0.731,0-1.151-0.468-1.181-1.056H35.86z"/>
	<path id="XMLID_43_" style="fill:#666666;" d="M38.814,5.966V5.432h0.396v0.534H38.814z M38.832,9.749V6.643h0.36v3.106H38.832z"/>
	<path id="XMLID_46_" style="fill:#666666;" d="M40.442,8.777c0.114,0.534,0.39,0.732,0.93,0.732c0.521,0,0.768-0.276,0.768-0.576
		c0-0.899-1.991-0.264-1.991-1.487c0-0.516,0.402-0.888,1.091-0.888c0.672,0,1.11,0.276,1.2,0.978h-0.366
		c-0.066-0.479-0.39-0.653-0.84-0.653c-0.456,0-0.702,0.216-0.702,0.534c0,0.845,1.991,0.317,1.991,1.511
		c0,0.594-0.534,0.905-1.266,0.905c-0.731,0-1.151-0.468-1.181-1.056H40.442z"/>
	<path id="XMLID_48_" style="fill:#666666;" d="M44.446,9.762c-0.083,0.018-0.24,0.071-0.414,0.071
		c-0.354,0-0.552-0.155-0.552-0.617V6.942h-0.438v-0.3h0.438V5.779h0.36v0.863h0.582v0.3H43.84v2.129
		c0,0.307,0.012,0.438,0.312,0.438c0.096,0,0.198-0.019,0.293-0.042V9.762z"/>
	<path id="XMLID_50_" style="fill:#666666;" d="M46.621,7.938c0.132-0.013,0.354-0.048,0.474-0.103
		c0.12-0.054,0.132-0.216,0.132-0.323c0-0.366-0.216-0.63-0.774-0.63c-0.498,0-0.839,0.162-0.905,0.701h-0.366
		c0.054-0.731,0.6-1.025,1.277-1.025c0.629,0,1.127,0.246,1.127,0.966v1.691c0,0.281,0.072,0.348,0.378,0.239v0.282
		c-0.054,0.018-0.18,0.06-0.282,0.06c-0.06,0-0.108-0.006-0.162-0.018c-0.24-0.036-0.282-0.246-0.288-0.462
		c-0.3,0.336-0.708,0.516-1.157,0.516c-0.546,0-1.038-0.294-1.038-0.894c0-0.521,0.36-0.839,1.085-0.936L46.621,7.938z
		 M47.227,8.118c-0.306,0.126-0.618,0.15-0.93,0.174c-0.546,0.042-0.875,0.24-0.875,0.66c0,0.377,0.33,0.558,0.671,0.558
		c0.57,0,1.134-0.276,1.134-0.906V8.118z"/>
	<path id="XMLID_53_" style="fill:#666666;" d="M49.055,9.749h-0.36V6.643h0.36v0.433c0.288-0.307,0.57-0.517,1.001-0.517
		c0.378,0,0.726,0.12,0.948,0.444c0.15,0.222,0.156,0.456,0.156,0.714v2.032H50.8V7.723c0-0.558-0.228-0.84-0.804-0.84
		c-0.444,0-0.75,0.288-0.863,0.605c-0.072,0.198-0.078,0.372-0.078,0.588V9.749z"/>
	<path id="XMLID_55_" style="fill:#666666;" d="M53.224,9.762c-0.084,0.018-0.239,0.071-0.413,0.071
		c-0.354,0-0.553-0.155-0.553-0.617V6.942H51.82v-0.3h0.438V5.779h0.36v0.863h0.581v0.3h-0.581v2.129
		c0,0.307,0.013,0.438,0.312,0.438c0.096,0,0.198-0.019,0.294-0.042V9.762z"/>
	<path id="XMLID_57_" style="fill:#666666;" d="M63.798,9.749h-0.97V2.573h0.97v3.479l3.478-3.479h1.34l-2.988,2.898l3.068,4.277
		h-1.26l-2.508-3.598l-1.13,1.079V9.749z"/>
	<path id="XMLID_59_" style="fill:#666666;" d="M73.717,8.11c-0.03,0.25-0.27,0.989-0.93,1.429c-0.24,0.16-0.58,0.36-1.42,0.36
		c-1.469,0-2.338-1.109-2.338-2.619c0-1.619,0.779-2.908,2.508-2.908c1.51,0,2.25,1.199,2.25,3.049h-3.818
		c0,1.089,0.51,1.719,1.52,1.719c0.829,0,1.318-0.64,1.349-1.029H73.717z M72.877,6.721c-0.05-0.81-0.39-1.559-1.459-1.559
		c-0.81,0-1.449,0.749-1.449,1.559H72.877z"/>
	<path id="XMLID_62_" style="fill:#666666;" d="M77.387,7.431h-2.448V6.531h2.448V7.431z"/>
	<path id="XMLID_64_" style="fill:#666666;" d="M84.797,9.749V5.512c0-0.21,0.02-1.119,0.02-1.789h-0.02l-2.02,6.026h-0.959
		l-2.02-6.017h-0.02c0,0.66,0.02,1.569,0.02,1.779v4.237h-0.939V2.573h1.39l2.049,6.066h0.021l2.039-6.066h1.379v7.176H84.797z"/>
	<path id="XMLID_66_" style="fill:#666666;" d="M87.305,3.572V2.573h0.88v0.999H87.305z M88.185,9.749h-0.88V4.522h0.88V9.749z"/>
	<path id="XMLID_69_" style="fill:#666666;" d="M93.889,9.749H93.01V6.531c0-0.91-0.26-1.369-1.12-1.369
		c-0.499,0-1.379,0.319-1.379,1.738v2.849h-0.88V4.522h0.83v0.739h0.02c0.189-0.28,0.68-0.89,1.579-0.89
		c0.81,0,1.829,0.33,1.829,1.819V9.749z"/>
	<path id="XMLID_71_" style="fill:#6ABF9E;" d="M103.008,2.573h0.971v7.176h-0.971V6.401h-3.747v3.348h-0.97V2.573h0.97v2.969h3.747
		V2.573z"/>
	<path id="XMLID_73_" style="fill:#6ABF9E;" d="M108.941,9.749v-0.76l-0.021-0.02c-0.37,0.609-0.819,0.93-1.659,0.93
		c-0.77,0-1.699-0.37-1.699-1.619V4.522h0.88V7.99c0,0.859,0.44,1.149,1.009,1.149c1.11,0,1.439-0.979,1.439-1.739V4.522h0.88v5.227
		H108.941z"/>
	<path id="XMLID_75_" style="fill:#B3B3B3;" d="M114.363,2.384h0.729v7.556h-0.729V2.384z"/>
	<path id="XMLID_77_" style="fill:#666666;" d="M120.732,8.89h3.638v0.859h-4.607V2.573h0.97V8.89z"/>
	<path id="XMLID_79_" style="fill:#666666;" d="M125.351,3.572V2.573h0.88v0.999H125.351z M126.23,9.749h-0.88V4.522h0.88V9.749z"/>
	<path id="XMLID_82_" style="fill:#666666;" d="M130.006,7.431h-2.449V6.531h2.449V7.431z"/>
	<path id="XMLID_84_" style="fill:#666666;" d="M132.421,7.66l-0.75,2.089h-0.999l2.698-7.176h1.1l2.599,7.176h-1.06l-0.71-2.089
		H132.421z M134.949,6.801l-1.06-3.158h-0.02l-1.149,3.158H134.949z"/>
	<path id="XMLID_87_" style="fill:#666666;" d="M142.27,9.749h-0.879V6.531c0-0.91-0.26-1.369-1.119-1.369
		c-0.5,0-1.379,0.319-1.379,1.738v2.849h-0.881V4.522h0.83v0.739h0.02c0.19-0.28,0.68-0.89,1.58-0.89
		c0.809,0,1.828,0.33,1.828,1.819V9.749z"/>
	<path id="XMLID_89_" style="fill:#6ABF9E;" d="M151.699,4.732c-0.27-1.26-1.318-1.489-2.008-1.489c-1.3,0-2.35,0.959-2.35,2.848
		c0,1.689,0.6,2.989,2.379,2.989c0.63,0,1.719-0.3,2.049-1.97h0.939c-0.4,2.709-2.599,2.829-3.139,2.829
		c-1.629,0-3.228-1.06-3.228-3.818c0-2.209,1.259-3.737,3.349-3.737c1.848,0,2.808,1.148,2.947,2.349H151.699z"/>
	<path id="XMLID_91_" style="fill:#6ABF9E;" d="M158.146,9.749h-0.879V6.331c0-0.71-0.199-1.169-1.039-1.169
		c-0.721,0-1.459,0.42-1.459,1.738v2.849h-0.881V2.573h0.881v2.648h0.02c0.25-0.33,0.689-0.85,1.529-0.85
		c0.809,0,1.828,0.33,1.828,1.819V9.749z"/>
	<path id="XMLID_93_" style="fill:#6ABF9E;" d="M162.965,9.749v-0.76l-0.02-0.02c-0.369,0.609-0.819,0.93-1.658,0.93
		c-0.771,0-1.699-0.37-1.699-1.619V4.522h0.879V7.99c0,0.859,0.439,1.149,1.01,1.149c1.109,0,1.439-0.979,1.439-1.739V4.522h0.879
		v5.227H162.965z"/>
	<path id="XMLID_95_" style="fill:#6ABF9E;" d="M169.512,9.749h-0.879V6.531c0-0.91-0.26-1.369-1.12-1.369
		c-0.499,0-1.379,0.319-1.379,1.738v2.849h-0.88V4.522h0.83v0.739h0.02c0.189-0.28,0.68-0.89,1.579-0.89
		c0.81,0,1.829,0.33,1.829,1.819V9.749z"/>
	<path id="XMLID_97_" style="fill:#6ABF9E;" d="M175.295,9.319c0,0.75-0.01,2.629-2.429,2.629c-0.62,0-1.829-0.17-1.999-1.56h0.88
		c0.159,0.83,0.97,0.83,1.179,0.83c1.52,0,1.49-1.22,1.49-1.839V9.159h-0.021v0.04c-0.229,0.37-0.69,0.7-1.39,0.7
		c-1.779,0-2.299-1.669-2.299-2.919c0-1.469,0.79-2.608,2.18-2.608c0.949,0,1.349,0.59,1.559,0.89h0.02V4.522h0.83V9.319z
		 M173.026,9.14c0.56,0,1.429-0.37,1.429-1.759c0-0.85-0.14-2.219-1.409-2.219c-1.358,0-1.429,1.289-1.429,1.959
		C171.617,8.271,172.066,9.14,173.026,9.14z"/>
</g>
<g id="XMLID_15_">
</g>
<g id="XMLID_100_">
</g>
<g id="XMLID_101_">
</g>
<g id="XMLID_102_">
</g>
<g id="XMLID_103_">
</g>
<g id="XMLID_104_">
</g>
<g id="XMLID_105_">
</g>
<g id="XMLID_106_">
</g>
<g id="XMLID_107_">
</g>
<g id="XMLID_108_">
</g>
<g id="XMLID_109_">
</g>
<g id="XMLID_110_">
</g>
<g id="XMLID_111_">
</g>
<g id="XMLID_112_">
</g>
<g id="XMLID_113_">
</g>
</svg>
