<?xml version="1.0" encoding="iso-8859-1"?>
<!-- Generator: Adobe Illustrator 19.0.0, SVG Export Plug-In . SVG Version: 6.00 Build 0)  -->
<svg version="1.1" id="&#x5716;&#x5C64;_1" xmlns="http://www.w3.org/2000/svg" xmlns:xlink="http://www.w3.org/1999/xlink" x="0px"
	 y="0px" viewBox="-41 115 158.13 12" enable-background="new -41 115 158.13 12" xml:space="preserve">
<g id="XMLID_10_">
	<path id="XMLID_29_" fill="#666666" d="M-39.61,122.79v1.96h-0.41v-4.32h1.69c0.95,0,1.47,0.34,1.47,1.13c0,0.54-0.2,0.83-0.7,1.06
		c0.51,0.17,0.54,0.71,0.55,1.17c0.02,0.65,0.07,0.83,0.18,0.92v0.04h-0.45c-0.17-0.29-0.13-1.1-0.19-1.43
		c-0.1-0.47-0.45-0.53-0.86-0.53H-39.61z M-38.34,122.44c0.61,0,1.07-0.25,1.07-0.86c0-0.65-0.5-0.8-1.05-0.8h-1.29v1.66H-38.34z"/>
	<path id="XMLID_32_" fill="#666666" d="M-36.06,123.2c0-0.9,0.48-1.64,1.44-1.64c0.97,0,1.44,0.73,1.44,1.64
		c0,0.98-0.57,1.64-1.44,1.64C-35.42,124.82-36.06,124.28-36.06,123.2z M-34.63,121.88c-0.76,0-1.06,0.64-1.06,1.31
		c0,0.77,0.37,1.31,1.06,1.31c0.76,0,1.06-0.65,1.06-1.31C-33.58,122.46-33.86,121.88-34.63,121.88z"/>
	<path id="XMLID_35_" fill="#666666" d="M-30.24,121.64h0.36v3.11h-0.36v-0.43c-0.19,0.22-0.46,0.52-1,0.52
		c-0.83,0-1.1-0.5-1.1-1.15v-2.04h0.36v2.04c0,0.53,0.23,0.83,0.8,0.83c0.59,0,0.95-0.49,0.95-1.18
		C-30.24,123.33-30.24,121.64-30.24,121.64z"/>
	<path id="XMLID_37_" fill="#666666" d="M-27.75,124.76c-0.08,0.02-0.24,0.07-0.41,0.07c-0.35,0-0.55-0.15-0.55-0.62v-2.27h-0.44
		v-0.3h0.44v-0.86h0.36v0.86h0.58v0.3h-0.58v2.13c0,0.31,0.01,0.44,0.31,0.44c0.1,0,0.2-0.02,0.29-0.04L-27.75,124.76L-27.75,124.76
		z"/>
	<path id="XMLID_39_" fill="#666666" d="M-27,120.97v-0.53h0.4v0.53H-27z M-26.98,124.75v-3.11h0.36v3.11
		C-26.62,124.75-26.98,124.75-26.98,124.75z"/>
	<path id="XMLID_42_" fill="#666666" d="M-25.22,124.75h-0.36v-3.11h0.36v0.43c0.29-0.31,0.57-0.52,1-0.52
		c0.38,0,0.73,0.12,0.95,0.44c0.15,0.22,0.16,0.46,0.16,0.71v2.03h-0.36v-2.03c0-0.56-0.23-0.84-0.8-0.84
		c-0.44,0-0.75,0.29-0.86,0.6c-0.07,0.2-0.08,0.37-0.08,0.59C-25.22,123.08-25.22,124.75-25.22,124.75z"/>
	<path id="XMLID_44_" fill="#666666" d="M-21.85,123.28c-0.01,0.67,0.35,1.23,1.04,1.23c0.47,0,0.83-0.26,0.94-0.71h0.4
		c-0.18,0.59-0.55,1.04-1.34,1.04c-1,0-1.43-0.71-1.43-1.63c0-0.9,0.54-1.65,1.43-1.65c0.85,0,1.37,0.61,1.37,1.72H-21.85z
		 M-19.83,122.98c0-0.61-0.34-1.1-0.98-1.1c-0.64,0-0.97,0.51-1.04,1.1H-19.83z"/>
	<path id="XMLID_47_" fill="#666666" d="M-17.29,120.43h3.14v0.35h-1.37v3.97h-0.41v-3.97h-1.37
		C-17.29,120.78-17.29,120.43-17.29,120.43z"/>
	<path id="XMLID_49_" fill="#666666" d="M-13.37,120.97v-0.53h0.4v0.53H-13.37z M-13.35,124.75v-3.11h0.36v3.11
		C-12.99,124.75-13.35,124.75-13.35,124.75z"/>
	<path id="XMLID_52_" fill="#666666" d="M-11.61,124.75h-0.36v-3.11h0.36v0.47h0.01c0.19-0.35,0.56-0.55,0.96-0.55
		c0.58,0,0.78,0.27,0.91,0.6c0.2-0.4,0.57-0.6,1.01-0.6c0.85,0,0.97,0.61,0.97,1.23v1.96h-0.36v-2.15c0-0.44-0.16-0.72-0.67-0.72
		c-0.26,0-0.52,0.11-0.7,0.35c-0.16,0.2-0.2,0.58-0.2,0.84v1.67h-0.36v-2.15c0-0.44-0.16-0.72-0.67-0.72c-0.26,0-0.52,0.11-0.7,0.35
		c-0.16,0.2-0.2,0.58-0.2,0.84L-11.61,124.75L-11.61,124.75z"/>
	<path id="XMLID_54_" fill="#666666" d="M-6.51,123.28c-0.01,0.67,0.35,1.23,1.04,1.23c0.47,0,0.83-0.26,0.94-0.71h0.4
		c-0.18,0.59-0.55,1.04-1.34,1.04c-1,0-1.43-0.71-1.43-1.63c0-0.9,0.54-1.65,1.43-1.65c0.85,0,1.37,0.61,1.37,1.72H-6.51z
		 M-4.49,122.98c0-0.61-0.34-1.1-0.98-1.1c-0.64,0-0.97,0.51-1.04,1.1H-4.49z"/>
	<path id="XMLID_57_" fill="#666666" d="M7.92,124.75H6.9l-1.87-7.18h1.05l1.34,5.84h0.02l1.61-5.84h1.06l1.61,5.84h0.02l1.34-5.84
		h1.07l-1.89,7.18h-1.02L9.6,118.8H9.58L7.92,124.75z"/>
	<path id="XMLID_59_" fill="#666666" d="M19.24,123.11c-0.03,0.25-0.27,0.99-0.93,1.43c-0.24,0.16-0.58,0.36-1.42,0.36
		c-1.47,0-2.34-1.11-2.34-2.62c0-1.62,0.78-2.91,2.51-2.91c1.51,0,2.25,1.2,2.25,3.05h-3.82c0,1.09,0.51,1.72,1.52,1.72
		c0.83,0,1.32-0.64,1.35-1.03L19.24,123.11L19.24,123.11z M18.4,121.72c-0.05-0.81-0.39-1.56-1.46-1.56c-0.81,0-1.45,0.75-1.45,1.56
		H18.4z"/>
	<path id="XMLID_62_" fill="#666666" d="M24.88,124.75h-0.83v-0.72h-0.02c-0.38,0.71-0.98,0.87-1.49,0.87c-1.78,0-2.3-1.67-2.3-2.92
		c0-1.47,0.79-2.61,2.18-2.61c0.95,0,1.35,0.59,1.56,0.89l0.02-0.07v-2.62h0.88V124.75z M22.56,124.14c0.56,0,1.43-0.37,1.43-1.76
		c0-0.85-0.14-2.22-1.41-2.22c-1.36,0-1.43,1.29-1.43,1.96C21.15,123.27,21.6,124.14,22.56,124.14z"/>
	<path id="XMLID_65_" fill="#666666" d="M30.54,124.75h-0.88v-3.22c0-0.91-0.26-1.37-1.12-1.37c-0.5,0-1.38,0.32-1.38,1.74v2.85
		h-0.88v-5.23h0.83v0.74h0.02c0.19-0.28,0.68-0.89,1.58-0.89c0.81,0,1.83,0.33,1.83,1.82C30.55,121.19,30.55,124.75,30.54,124.75z"
		/>
	<path id="XMLID_67_" fill="#666666" d="M36.43,123.11c-0.03,0.25-0.27,0.99-0.93,1.43c-0.24,0.16-0.58,0.36-1.42,0.36
		c-1.47,0-2.34-1.11-2.34-2.62c0-1.62,0.78-2.91,2.51-2.91c1.51,0,2.25,1.2,2.25,3.05h-3.82c0,1.09,0.51,1.72,1.52,1.72
		c0.83,0,1.32-0.64,1.35-1.03L36.43,123.11L36.43,123.11z M35.59,121.72c-0.05-0.81-0.39-1.56-1.46-1.56
		c-0.81,0-1.45,0.75-1.45,1.56H35.59z"/>
	<path id="XMLID_70_" fill="#666666" d="M40.66,121.01c-0.01-0.33-0.13-0.88-1.24-0.88c-0.27,0-1.04,0.09-1.04,0.74
		c0,0.43,0.27,0.53,0.95,0.7l0.88,0.22c1.09,0.27,1.47,0.67,1.47,1.38c0,1.08-0.89,1.73-2.07,1.73c-2.07,0-2.22-1.2-2.25-1.83h0.85
		c0.03,0.41,0.15,1.07,1.39,1.07c0.63,0,1.2-0.25,1.2-0.83c0-0.42-0.29-0.56-1.04-0.75l-1.02-0.25c-0.73-0.18-1.21-0.55-1.21-1.27
		c0-1.15,0.95-1.67,1.98-1.67c1.87,0,2,1.38,2,1.64L40.66,121.01L40.66,121.01z"/>
	<path id="XMLID_72_" fill="#666666" d="M47.18,124.75h-0.83v-0.72h-0.02c-0.38,0.71-0.98,0.87-1.49,0.87c-1.78,0-2.3-1.67-2.3-2.92
		c0-1.47,0.79-2.61,2.18-2.61c0.95,0,1.35,0.59,1.56,0.89l0.02-0.07v-2.62h0.88L47.18,124.75L47.18,124.75z M44.86,124.14
		c0.56,0,1.43-0.37,1.43-1.76c0-0.85-0.14-2.22-1.41-2.22c-1.36,0-1.43,1.29-1.43,1.96C43.46,123.27,43.9,124.14,44.86,124.14z"/>
	<path id="XMLID_75_" fill="#666666" d="M48.58,121.11c0.04-1.25,0.87-1.74,2.16-1.74c0.42,0,1.94,0.12,1.94,1.46v3.01
		c0,0.22,0.11,0.31,0.29,0.31c0.08,0,0.19-0.02,0.29-0.04v0.64c-0.15,0.04-0.28,0.1-0.48,0.1c-0.78,0-0.9-0.4-0.93-0.8
		c-0.34,0.37-0.87,0.85-1.89,0.85c-0.96,0-1.64-0.61-1.64-1.51c0-0.44,0.13-1.46,1.59-1.64l1.45-0.18c0.21-0.02,0.46-0.1,0.46-0.62
		c0-0.55-0.4-0.85-1.23-0.85c-1,0-1.14,0.61-1.2,1.01L48.58,121.11L48.58,121.11z M51.79,122.08c-0.14,0.11-0.36,0.19-1.45,0.33
		c-0.43,0.06-1.12,0.19-1.12,0.85c0,0.57,0.29,0.91,0.95,0.91c0.82,0,1.62-0.53,1.62-1.23V122.08z"/>
	<path id="XMLID_78_" fill="#666666" d="M57.35,119.52h0.97c-0.61,1.71-1.21,3.42-1.88,5.13c-0.83,2.12-0.92,2.24-2.05,2.24
		c-0.13,0-0.23-0.04-0.37-0.08v-0.8c0.11,0.04,0.29,0.09,0.53,0.09c0.46,0,0.51-0.13,0.93-1.21l-1.94-5.37h1l1.39,4.26h0.02
		L57.35,119.52z"/>
</g>
<g id="XMLID_28_">
</g>
<g id="XMLID_107_">
</g>
<g id="XMLID_108_">
</g>
<g id="XMLID_109_">
</g>
<g id="XMLID_110_">
</g>
<g id="XMLID_111_">
</g>
<g id="XMLID_112_">
</g>
<g id="XMLID_113_">
</g>
<g id="XMLID_114_">
</g>
<g id="XMLID_115_">
</g>
<g id="XMLID_116_">
</g>
<g id="XMLID_117_">
</g>
<g id="XMLID_118_">
</g>
<g id="XMLID_119_">
</g>
<g id="XMLID_120_">
</g>
<g id="XMLID_26_">
	<path fill="#6ABF9E" d="M65.08,124.75h-0.94v-4.99H62.5v-0.7c1.14-0.08,1.61-0.19,1.89-1.34h0.69V124.75z"/>
	<path fill="#6ABF9E" d="M68.88,120.75c0.15,0.01,0.31,0.02,0.46,0.02c0.68,0,1.34-0.27,1.34-1.15c0-0.42-0.25-1.11-1.3-1.11
		c-1.25,0-1.33,1.02-1.37,1.51h-0.86c0-1.03,0.42-2.3,2.27-2.3c1.36,0,2.17,0.78,2.17,1.85c0,0.9-0.52,1.33-0.9,1.45v0.02
		c0.68,0.22,1.17,0.7,1.17,1.64c0,1.15-0.74,2.26-2.53,2.26c-0.52,0-0.96-0.13-1.3-0.31c-0.78-0.41-0.99-1.22-1.05-2.03h0.91
		c0.03,0.66,0.19,1.55,1.5,1.55c0.9,0,1.53-0.55,1.53-1.36c0-1.18-1.04-1.29-1.64-1.29c-0.13,0-0.27,0.01-0.4,0.01V120.75z"/>
	<path fill="#6ABF9E" d="M74.53,120.65h-1.04v-1.06h1.04V120.65z M74.53,124.75h-1.04v-1.06h1.04V124.75z"/>
	<path fill="#6ABF9E" d="M76.31,120.24c0-2.29,1.67-2.52,2.43-2.52c1.22,0,2.2,0.79,2.2,2.1c0,1.26-0.83,1.79-1.88,2.35l-0.73,0.4
		c-0.96,0.53-1.17,1.08-1.21,1.35h3.82v0.83h-4.81c0.05-1.46,0.71-2.24,1.65-2.79l0.93-0.54c0.75-0.43,1.29-0.72,1.29-1.64
		c0-0.56-0.36-1.27-1.39-1.27c-1.33,0-1.39,1.24-1.42,1.73H76.31z"/>
	<path fill="#6ABF9E" d="M84.3,124.94c-2.02,0-2.41-2.15-2.41-3.61c0-1.46,0.39-3.61,2.41-3.61s2.41,2.15,2.41,3.61
		C86.71,122.79,86.32,124.94,84.3,124.94z M84.3,118.51c-1.01,0-1.47,1.06-1.47,2.82c0,1.76,0.46,2.82,1.47,2.82
		s1.47-1.06,1.47-2.82C85.77,119.57,85.31,118.51,84.3,118.51z"/>
	<path fill="#6ABF9E" d="M90.43,122.43h-2.45v-0.9h2.45V122.43z"/>
	<path fill="#6ABF9E" d="M93.87,124.75h-0.94v-4.99h-1.64v-0.7c1.14-0.08,1.61-0.19,1.89-1.34h0.69V124.75z"/>
	<path fill="#6ABF9E" d="M99.65,119.59c-0.11-0.62-0.45-1.08-1.21-1.08c-1.38,0-1.67,1.86-1.67,2.6l0.02,0.02
		c0.22-0.38,0.71-0.86,1.67-0.86c0.86,0,2.2,0.55,2.2,2.23c0,0.72-0.19,1.24-0.67,1.76c-0.37,0.41-0.79,0.68-1.78,0.68
		c-0.54,0-1.31-0.24-1.81-1.02c-0.42-0.66-0.54-1.52-0.54-2.44c0-1.54,0.5-3.76,2.6-3.76c0.81,0,1.96,0.44,2.05,1.87H99.65z
		 M98.37,124.15c0.84,0,1.38-0.66,1.38-1.61c0-0.62-0.33-1.48-1.42-1.48c-0.97,0-1.44,0.7-1.44,1.53
		C96.89,123.34,97.34,124.15,98.37,124.15z"/>
	<path fill="#6ABF9E" d="M103.35,120.65h-1.04v-1.06h1.04V120.65z M103.35,124.75h-1.04v-1.06h1.04V124.75z"/>
	<path fill="#6ABF9E" d="M105.13,120.24c0-2.29,1.67-2.52,2.43-2.52c1.22,0,2.2,0.79,2.2,2.1c0,1.26-0.83,1.79-1.88,2.35l-0.73,0.4
		c-0.96,0.53-1.17,1.08-1.21,1.35h3.82v0.83h-4.81c0.05-1.46,0.71-2.24,1.65-2.79l0.93-0.54c0.75-0.43,1.29-0.72,1.29-1.64
		c0-0.56-0.36-1.27-1.39-1.27c-1.33,0-1.39,1.24-1.42,1.73H105.13z"/>
	<path fill="#6ABF9E" d="M113.12,124.94c-2.02,0-2.41-2.15-2.41-3.61c0-1.46,0.39-3.61,2.41-3.61c2.02,0,2.41,2.15,2.41,3.61
		C115.53,122.79,115.14,124.94,113.12,124.94z M113.12,118.51c-1.01,0-1.47,1.06-1.47,2.82c0,1.76,0.46,2.82,1.47,2.82
		s1.47-1.06,1.47-2.82C114.59,119.57,114.13,118.51,113.12,118.51z"/>
</g>
</svg>
