<?xml version="1.0" encoding="iso-8859-1"?>
<!-- Generator: Adobe Illustrator 19.0.0, SVG Export Plug-In . SVG Version: 6.00 Build 0)  -->
<svg version="1.1" id="&#x5716;&#x5C64;_1" xmlns="http://www.w3.org/2000/svg" xmlns:xlink="http://www.w3.org/1999/xlink" x="0px"
	 y="0px" viewBox="0 0 240 240" enable-background="new 0 0 240 240" xml:space="preserve">
<g id="XMLID_24_">
	<g id="XMLID_25_">
		<path id="XMLID_26_" fill="#6ABF9E" d="M183.72,66.34l-37.04-38.49c-0.53-0.55-1.25-0.86-2.01-0.86h-55.2
			c-6.18,0-11.2,5.02-11.2,11.2v39.13H55.88c-4.62,0-8.38,3.76-8.38,8.38v41.95c0,4.62,3.76,8.38,8.38,8.38h22.37v25.17
			c0,6.16,5.03,11.18,11.2,11.18h83.83c6.18,0,11.2-5.01,11.2-11.17V68.28C184.5,67.56,184.22,66.86,183.72,66.34z M145.36,34.55
			l30.41,31.59h-30.41V34.55z M55.88,130.45c-1.54,0-2.79-1.25-2.79-2.79V85.71c0-1.54,1.25-2.79,2.79-2.79h75.5
			c1.54,0,2.79,1.25,2.79,2.79v41.95c0,1.54-1.25,2.79-2.79,2.79H55.88z M178.91,161.21c0,3.08-2.52,5.58-5.61,5.58H89.46
			c-3.09,0-5.61-2.51-5.61-5.59v-25.17h47.53c4.62,0,8.38-3.76,8.38-8.38V85.71c0-4.62-3.76-8.38-8.38-8.38H83.85V38.2
			c0-3.09,2.52-5.61,5.61-5.61h50.3v36.35c0,1.54,1.25,2.8,2.8,2.8h36.35V161.21L178.91,161.21z"/>
	</g>
</g>
<g id="XMLID_19_">
	<g id="XMLID_20_">
		<path id="XMLID_21_" fill="#6ABF9E" d="M80.93,97.96c-0.93-1.21-2.08-1.99-3.46-2.35c-0.9-0.24-2.82-0.36-5.77-0.36h-7.78v24.02
			h4.85v-9.06h3.16c2.2,0,3.87-0.11,5.03-0.34c0.85-0.19,1.69-0.57,2.51-1.14c0.82-0.57,1.5-1.36,2.04-2.37
			c0.54-1,0.8-2.24,0.8-3.72C82.32,100.72,81.85,99.17,80.93,97.96z M76.77,104.57c-0.37,0.54-0.87,0.93-1.52,1.18
			c-0.64,0.25-1.92,0.38-3.83,0.38h-2.65v-6.81h2.34c1.75,0,2.91,0.05,3.49,0.16c0.79,0.14,1.44,0.5,1.95,1.06
			c0.51,0.57,0.77,1.29,0.77,2.16C77.32,103.41,77.14,104.03,76.77,104.57z"/>
	</g>
</g>
<g id="XMLID_14_">
	<g id="XMLID_15_">
		<path id="XMLID_16_" fill="#6ABF9E" d="M105.63,101.81c-0.52-1.53-1.29-2.83-2.29-3.89c-1-1.06-2.21-1.8-3.62-2.21
			c-1.05-0.31-2.57-0.46-4.57-0.46h-8.86v24.02h9.12c1.79,0,3.22-0.17,4.29-0.51c1.43-0.46,2.57-1.1,3.41-1.92
			c1.11-1.08,1.97-2.5,2.57-4.24c0.49-1.43,0.74-3.13,0.74-5.11C106.42,105.23,106.15,103.34,105.63,101.81z M100.91,111.67
			c-0.33,1.08-0.75,1.85-1.27,2.32c-0.52,0.47-1.17,0.8-1.96,1c-0.6,0.15-1.58,0.23-2.93,0.23h-3.62l0,0V99.31h2.18
			c1.98,0,3.3,0.08,3.98,0.23c0.91,0.2,1.65,0.57,2.24,1.13c0.59,0.56,1.05,1.33,1.38,2.33c0.33,0.99,0.49,2.42,0.49,4.28
			C101.4,109.13,101.24,110.59,100.91,111.67z"/>
	</g>
</g>
<g id="XMLID_11_">
	<g id="XMLID_12_">
		<polygon id="XMLID_1_" fill="#6ABF9E" points="127.03,99.31 127.03,95.25 110.56,95.25 110.56,119.26 115.41,119.26 
			115.41,109.06 125.44,109.06 125.44,104.99 115.41,104.99 115.41,99.31 		"/>
	</g>
</g>
<g id="XMLID_10_">
	<path id="XMLID_17_" fill="#6ABF9E" d="M39.06,208.81c0,4.16-2.51,5.94-6.49,5.94c-1.45,0-3.61-0.35-5.02-1.91
		c-0.86-0.97-1.19-2.24-1.23-3.83v-10.47h3.37v10.25c0,2.2,1.28,3.17,2.82,3.17c2.27,0,3.19-1.1,3.19-3.01v-10.41h3.37V208.81z"/>
	<path id="XMLID_22_" fill="#6ABF9E" d="M46.91,214.33h-3.3v-15.8h7.22c3.06,0,4.91,1.96,4.91,5.06c0,1.43-0.79,5.04-5.04,5.04
		h-3.78V214.33z M49.97,205.91c2.46,0,2.46-1.76,2.46-2.46c0-1.54-0.86-2.18-2.9-2.18h-2.62v4.64H49.97z"/>
	<path id="XMLID_28_" fill="#6ABF9E" d="M62.9,211.47h7.85v2.86H59.6v-15.8h3.3V211.47z"/>
	<path id="XMLID_30_" fill="#6ABF9E" d="M81.25,198.12c2.09,0,7.59,0.9,7.59,8.32s-5.5,8.32-7.59,8.32s-7.59-0.9-7.59-8.32
		S79.16,198.12,81.25,198.12z M81.25,211.96c1.78,0,4.29-1.1,4.29-5.52c0-4.42-2.51-5.52-4.29-5.52s-4.29,1.1-4.29,5.52
		C76.96,210.86,79.47,211.96,81.25,211.96z"/>
	<path id="XMLID_33_" fill="#6ABF9E" d="M93.94,214.33h-3.48l5.63-15.8h3.81l5.57,15.8h-3.59l-1.01-3.26h-5.83L93.94,214.33z
		 M95.92,208.35h4.03l-1.96-6.25h-0.04L95.92,208.35z"/>
	<path id="XMLID_36_" fill="#6ABF9E" d="M108.9,198.54h6.98c5.32,0,6.43,4.53,6.43,7.52c0,3.39-1.34,8.27-6.56,8.27h-6.84V198.54z
		 M112.14,211.61h3.21c2.68,0,3.59-2.71,3.59-5.3c0-4.67-2.22-5.04-3.63-5.04h-3.17V211.61z"/>
	<path id="XMLID_39_" fill="#6ABF9E" d="M133.54,198.54h7.99c4.2,0,4.97,3.1,4.97,4.47c0,1.74-0.88,3.24-2.44,3.76
		c1.3,0.57,2,1.06,2,4c0,2.31,0,2.88,0.7,3.15v0.42h-3.65c-0.22-0.75-0.35-1.56-0.35-3.19c0-2.16-0.13-2.99-2.57-2.99h-3.41v6.18
		h-3.23V198.54z M140.65,205.49c1.72,0,2.55-0.59,2.55-2.16c0-0.84-0.37-2.07-2.31-2.07h-4.11v4.22H140.65z"/>
	<path id="XMLID_42_" fill="#6ABF9E" d="M162.96,208.81c0,4.16-2.51,5.94-6.49,5.94c-1.45,0-3.61-0.35-5.02-1.91
		c-0.86-0.97-1.19-2.24-1.23-3.83v-10.47h3.37v10.25c0,2.2,1.28,3.17,2.82,3.17c2.27,0,3.19-1.1,3.19-3.01v-10.41h3.37V208.81z"/>
	<path id="XMLID_44_" fill="#6ABF9E" d="M170.81,211.47h7.85v2.86h-11.16v-15.8h3.3V211.47z"/>
	<path id="XMLID_46_" fill="#6ABF9E" d="M193.89,201.33h-8.38v3.32h7.7v2.79h-7.7v4.09h8.76v2.79h-11.99v-15.8h11.62V201.33z"/>
	<path id="XMLID_48_" fill="#6ABF9E" d="M200.62,209.47c0.02,0.88,0.46,2.55,3.34,2.55c1.56,0,3.3-0.37,3.3-2.05
		c0-1.23-1.19-1.56-2.86-1.96l-1.69-0.4c-2.55-0.59-5.02-1.17-5.02-4.64c0-1.76,0.95-4.86,6.07-4.86c4.84,0,6.14,3.17,6.16,5.11
		h-3.17c-0.09-0.7-0.35-2.38-3.23-2.38c-1.25,0-2.75,0.46-2.75,1.89c0,1.23,1.01,1.5,1.67,1.65l3.85,0.95
		c2.16,0.53,4.14,1.41,4.14,4.25c0,4.75-4.84,5.17-6.23,5.17c-5.77,0-6.76-3.32-6.76-5.28H200.62z"/>
</g>
<g id="XMLID_13_">
</g>
<g id="XMLID_50_">
</g>
<g id="XMLID_51_">
</g>
<g id="XMLID_52_">
</g>
<g id="XMLID_53_">
</g>
<g id="XMLID_54_">
</g>
<g id="XMLID_55_">
</g>
<g id="XMLID_56_">
</g>
<g id="XMLID_57_">
</g>
<g id="XMLID_58_">
</g>
<g id="XMLID_59_">
</g>
<g id="XMLID_60_">
</g>
<g id="XMLID_61_">
</g>
<g id="XMLID_62_">
</g>
<g id="XMLID_63_">
</g>
</svg>
