<svg xmlns="http://www.w3.org/2000/svg" viewBox="0 0 126.79 126.79">
  <path fill="#f9f6f2"
    d="M0,0V126.79H126.79V0ZM121.16,38.7a11.63,11.63,0,0,1,0,16.46,11.65,11.65,0,0,0,0,16.46,11.73,11.73,0,0,1,0,16.54,11.75,11.75,0,0,0,0,16.54,11.67,11.67,0,1,1-16.54,16.46,11.73,11.73,0,0,0-16.53,0,11.64,11.64,0,0,1-16.47,0,11.65,11.65,0,0,0-16.46,0,11.73,11.73,0,0,1-16.54,0,11.73,11.73,0,0,0-16.53,0A11.67,11.67,0,0,1,5.62,104.62a11.72,11.72,0,0,0,0-16.53,11.66,11.66,0,0,1,0-16.47,11.63,11.63,0,0,0,0-16.46,11.75,11.75,0,0,1,0-16.54,11.72,11.72,0,0,0,0-16.53A11.65,11.65,0,0,1,22.09,5.62a11.72,11.72,0,0,0,16.53,0,11.75,11.75,0,0,1,16.54,0,11.63,11.63,0,0,0,16.46,0,11.66,11.66,0,0,1,16.47,0,11.72,11.72,0,0,0,16.53,0,11.7,11.7,0,0,1,16.54,16.54A11.75,11.75,0,0,0,121.16,38.7Z" />
</svg>