<svg xmlns="http://www.w3.org/2000/svg" viewBox="0 0 9.47 792.71"><defs><style>.b6c1343d-17c4-46c3-87db-e64515b3849c{fill:none;stroke:#ccd6d5;stroke-miterlimit:10;}</style></defs><title>wave</title><g id="b22b6bc0-23c3-4e87-b545-2a7c34ca107e" data-name="圖層 2"><g id="a55a53a1-fd02-40c8-98da-efa1b5076409" data-name="圖層 1"><path class="b6c1343d-17c4-46c3-87db-e64515b3849c" d="M5.56,132.35a11.62,11.62,0,0,1,0-16.45v0a11.64,11.64,0,0,0,0-16.45v-.15a11.62,11.62,0,0,1,0-16.45v0a11.64,11.64,0,0,0,0-16.45,11.62,11.62,0,0,1,0-16.45v0a11.64,11.64,0,0,0,0-16.45v-.15a11.62,11.62,0,0,1,0-16.45v0A11.64,11.64,0,0,0,5.56.35"/><path class="b6c1343d-17c4-46c3-87db-e64515b3849c" d="M5.23,264.35a11.62,11.62,0,0,1,0-16.45v0a11.64,11.64,0,0,0,0-16.45v-.15a11.62,11.62,0,0,1,0-16.45v0a11.64,11.64,0,0,0,0-16.45,11.62,11.62,0,0,1,0-16.45v0a11.64,11.64,0,0,0,0-16.45v-.15a11.62,11.62,0,0,1,0-16.45v0a11.64,11.64,0,0,0,0-16.45"/><path class="b6c1343d-17c4-46c3-87db-e64515b3849c" d="M4.9,396.35a11.62,11.62,0,0,1,0-16.45v0a11.64,11.64,0,0,0,0-16.45v-.15a11.62,11.62,0,0,1,0-16.45v0a11.64,11.64,0,0,0,0-16.45,11.62,11.62,0,0,1,0-16.45v0a11.64,11.64,0,0,0,0-16.45v-.15a11.62,11.62,0,0,1,0-16.45v0a11.64,11.64,0,0,0,0-16.45"/><path class="b6c1343d-17c4-46c3-87db-e64515b3849c" d="M4.57,528.35a11.62,11.62,0,0,1,0-16.45v0a11.64,11.64,0,0,0,0-16.45v-.15a11.62,11.62,0,0,1,0-16.45v0a11.64,11.64,0,0,0,0-16.45,11.62,11.62,0,0,1,0-16.45v0a11.64,11.64,0,0,0,0-16.45v-.15a11.62,11.62,0,0,1,0-16.45v0a11.64,11.64,0,0,0,0-16.45"/><path class="b6c1343d-17c4-46c3-87db-e64515b3849c" d="M4.24,660.35a11.62,11.62,0,0,1,0-16.45v0a11.64,11.64,0,0,0,0-16.45v-.15a11.62,11.62,0,0,1,0-16.45v0a11.64,11.64,0,0,0,0-16.45,11.62,11.62,0,0,1,0-16.45v0a11.64,11.64,0,0,0,0-16.45v-.15a11.62,11.62,0,0,1,0-16.45v0a11.64,11.64,0,0,0,0-16.45"/><path class="b6c1343d-17c4-46c3-87db-e64515b3849c" d="M3.91,792.35a11.62,11.62,0,0,1,0-16.45v0a11.62,11.62,0,0,0,0-16.45v-.15a11.62,11.62,0,0,1,0-16.45v0a11.62,11.62,0,0,0,0-16.45,11.62,11.62,0,0,1,0-16.45v0a11.62,11.62,0,0,0,0-16.45v-.15a11.62,11.62,0,0,1,0-16.45v0a11.62,11.62,0,0,0,0-16.45"/></g></g></svg>