<?xml version="1.0" encoding="iso-8859-1"?>
<!-- Generator: Adobe Illustrator 24.0.0, SVG Export Plug-In . SVG Version: 6.00 Build 0)  -->
<svg version="1.1" id="wave-block" xmlns="http://www.w3.org/2000/svg" xmlns:xlink="http://www.w3.org/1999/xlink" x="0px"
	 y="0px" viewBox="0 0 99 125" style="enable-background:new 0 0 99 125;" xml:space="preserve">
<g>
	<g>
		<path style="fill:none;stroke:#8a446b;stroke-width:0.75;stroke-miterlimit:10;" d="M86.861,114.652
			c-3.593-3.593-3.599-9.402-0.013-12.989l0-0.02c3.586-3.586,3.58-9.395-0.013-12.989l0-0.121
			c-3.593-3.593-3.599-9.402-0.013-12.989l0-0.02c3.586-3.586,3.58-9.395-0.013-12.989c-3.593-3.593-3.599-9.402-0.013-12.989
			l0-0.02c3.586-3.586,3.58-9.395-0.013-12.989l0-0.121c-3.593-3.593-3.599-9.402-0.013-12.989l0-0.02
			c3.586-3.586,3.58-9.395-0.013-12.989"/>
		<path style="fill:none;stroke:#8a446b;stroke-width:0.75;stroke-miterlimit:10;" d="M74.424,114.64
			c-3.593-3.593-3.599-9.402-0.013-12.989l0-0.02c3.586-3.586,3.58-9.395-0.013-12.989l0-0.121
			c-3.593-3.593-3.599-9.402-0.013-12.989l0-0.02c3.586-3.586,3.58-9.395-0.013-12.989c-3.593-3.593-3.599-9.402-0.013-12.989
			l0-0.02c3.586-3.586,3.58-9.395-0.013-12.989l0-0.121c-3.593-3.593-3.599-9.402-0.013-12.989l0-0.02
			c3.586-3.586,3.58-9.395-0.013-12.989"/>
		<path style="fill:none;stroke:#8a446b;stroke-width:0.75;stroke-miterlimit:10;" d="M61.987,114.628
			c-3.593-3.593-3.599-9.402-0.013-12.989l0-0.02c3.586-3.586,3.58-9.395-0.013-12.989l0-0.121
			c-3.593-3.593-3.599-9.402-0.013-12.989l0-0.02c3.586-3.586,3.58-9.395-0.013-12.989c-3.593-3.593-3.599-9.402-0.013-12.989
			l0-0.02c3.586-3.586,3.58-9.395-0.013-12.989l0-0.121c-3.593-3.593-3.599-9.402-0.013-12.989l0-0.02
			c3.586-3.586,3.58-9.395-0.013-12.989"/>
		<path style="fill:none;stroke:#8a446b;stroke-width:0.75;stroke-miterlimit:10;" d="M49.551,114.616
			c-3.593-3.593-3.599-9.402-0.013-12.989l0-0.02c3.586-3.586,3.58-9.395-0.013-12.989l0-0.121
			c-3.593-3.593-3.599-9.402-0.013-12.989l0-0.02c3.586-3.586,3.58-9.395-0.013-12.989c-3.593-3.593-3.599-9.402-0.013-12.989
			l0-0.02c3.586-3.586,3.58-9.395-0.013-12.989l0-0.121c-3.593-3.593-3.599-9.402-0.013-12.989l0-0.02
			c3.586-3.586,3.58-9.395-0.013-12.989"/>
		<path style="fill:none;stroke:#8a446b;stroke-width:0.75;stroke-miterlimit:10;" d="M37.114,114.603
			c-3.593-3.593-3.599-9.402-0.013-12.989l0-0.02c3.586-3.586,3.58-9.395-0.013-12.989l0-0.121
			c-3.593-3.593-3.599-9.402-0.013-12.989l0-0.02c3.586-3.586,3.58-9.395-0.013-12.989c-3.593-3.593-3.599-9.402-0.013-12.989
			l0-0.02c3.586-3.586,3.58-9.395-0.013-12.989l0-0.121c-3.593-3.593-3.599-9.402-0.013-12.989l0-0.02
			c3.586-3.586,3.58-9.395-0.013-12.989"/>
		<path style="fill:none;stroke:#8a446b;stroke-width:0.75;stroke-miterlimit:10;" d="M24.677,114.591
			c-3.593-3.593-3.599-9.402-0.013-12.989l0-0.02c3.586-3.586,3.58-9.395-0.013-12.989l0-0.121
			c-3.593-3.593-3.599-9.402-0.013-12.989l0-0.02c3.586-3.586,3.58-9.395-0.013-12.989s-3.599-9.402-0.013-12.989l0-0.02
			c3.586-3.586,3.58-9.395-0.013-12.989l0-0.121c-3.593-3.593-3.599-9.402-0.013-12.989l0-0.02c3.586-3.586,3.58-9.395-0.013-12.989
			"/>
		<path style="fill:none;stroke:#8a446b;stroke-width:0.75;stroke-miterlimit:10;" d="M12.241,114.579
			c-3.593-3.593-3.599-9.402-0.013-12.989l0-0.02c3.586-3.586,3.58-9.395-0.013-12.989l0-0.121
			c-3.593-3.593-3.599-9.402-0.013-12.989l0-0.02c3.586-3.586,3.58-9.395-0.013-12.989c-3.593-3.593-3.599-9.402-0.013-12.989
			l0-0.02c3.586-3.586,3.58-9.395-0.013-12.989l0-0.121c-3.593-3.593-3.599-9.402-0.013-12.989l0-0.02
			c3.586-3.586,3.58-9.395-0.013-12.989"/>
	</g>
</g>
</svg>
